<?xml version="1.0" encoding="utf-8" standalone="no"?>
<!DOCTYPE svg PUBLIC "-//W3C//DTD SVG 1.1//EN"
  "http://www.w3.org/Graphics/SVG/1.1/DTD/svg11.dtd">
<!-- Created with matplotlib (https://matplotlib.org/) -->
<svg height="398.71892pt" version="1.1" viewBox="0 0 436.272031 398.71892" width="436.272031pt" xmlns="http://www.w3.org/2000/svg" xmlns:xlink="http://www.w3.org/1999/xlink">
 <defs>
  <style type="text/css">
*{stroke-linecap:butt;stroke-linejoin:round;}
  </style>
 </defs>
 <g id="figure_1">
  <g id="patch_1">
   <path d="M 0 398.71892 
L 436.272031 398.71892 
L 436.272031 0 
L 0 0 
z
" style="fill:#ffffff;"/>
  </g>
  <g id="axes_1">
   <g id="patch_2">
    <path d="M 85.272031 350.49392 
L 420.072031 350.49392 
L 420.072031 24.33392 
L 85.272031 24.33392 
z
" style="fill:#ffffff;"/>
   </g>
   <g id="matplotlib.axis_1">
    <g id="xtick_1">
     <g id="line2d_1">
      <defs>
       <path d="M 0 0 
L 0 9 
" id="m24c2d72e21" style="stroke:#262626;stroke-width:1.875;"/>
      </defs>
      <g>
       <use style="fill:#262626;stroke:#262626;stroke-width:1.875;" x="168.126577" xlink:href="#m24c2d72e21" y="360.49392"/>
      </g>
     </g>
     <g id="text_1">
      <!-- Neutral -->
      <defs>
       <path d="M 7.421875 0 
L 7.421875 71.578125 
L 21.484375 71.578125 
L 50.78125 23.78125 
L 50.78125 71.578125 
L 64.203125 71.578125 
L 64.203125 0 
L 49.703125 0 
L 20.84375 46.6875 
L 20.84375 0 
z
" id="Arial-BoldMT-78"/>
       <path d="M 37.203125 16.5 
L 50.875 14.203125 
Q 48.25 6.6875 42.546875 2.75 
Q 36.859375 -1.171875 28.328125 -1.171875 
Q 14.796875 -1.171875 8.296875 7.671875 
Q 3.171875 14.75 3.171875 25.53125 
Q 3.171875 38.421875 9.90625 45.71875 
Q 16.65625 53.03125 26.953125 53.03125 
Q 38.53125 53.03125 45.21875 45.390625 
Q 51.90625 37.75 51.609375 21.96875 
L 17.234375 21.96875 
Q 17.390625 15.875 20.5625 12.46875 
Q 23.734375 9.078125 28.46875 9.078125 
Q 31.6875 9.078125 33.875 10.828125 
Q 36.078125 12.59375 37.203125 16.5 
z
M 37.984375 30.375 
Q 37.84375 36.328125 34.90625 39.421875 
Q 31.984375 42.53125 27.78125 42.53125 
Q 23.296875 42.53125 20.359375 39.265625 
Q 17.4375 35.984375 17.484375 30.375 
z
" id="Arial-BoldMT-101"/>
       <path d="M 41.3125 0 
L 41.3125 7.765625 
Q 38.484375 3.609375 33.859375 1.21875 
Q 29.25 -1.171875 24.125 -1.171875 
Q 18.890625 -1.171875 14.734375 1.125 
Q 10.59375 3.421875 8.734375 7.5625 
Q 6.890625 11.71875 6.890625 19.046875 
L 6.890625 51.859375 
L 20.609375 51.859375 
L 20.609375 28.03125 
Q 20.609375 17.09375 21.359375 14.625 
Q 22.125 12.15625 24.125 10.71875 
Q 26.125 9.28125 29.203125 9.28125 
Q 32.71875 9.28125 35.5 11.203125 
Q 38.28125 13.140625 39.296875 15.984375 
Q 40.328125 18.84375 40.328125 29.984375 
L 40.328125 51.859375 
L 54.046875 51.859375 
L 54.046875 0 
z
" id="Arial-BoldMT-117"/>
       <path d="M 30.953125 51.859375 
L 30.953125 40.921875 
L 21.578125 40.921875 
L 21.578125 20.015625 
Q 21.578125 13.671875 21.84375 12.625 
Q 22.125 11.578125 23.078125 10.890625 
Q 24.03125 10.203125 25.390625 10.203125 
Q 27.296875 10.203125 30.90625 11.53125 
L 32.078125 0.875 
Q 27.296875 -1.171875 21.234375 -1.171875 
Q 17.53125 -1.171875 14.546875 0.0625 
Q 11.578125 1.3125 10.1875 3.296875 
Q 8.796875 5.28125 8.25 8.640625 
Q 7.8125 11.03125 7.8125 18.3125 
L 7.8125 40.921875 
L 1.515625 40.921875 
L 1.515625 51.859375 
L 7.8125 51.859375 
L 7.8125 62.15625 
L 21.578125 70.171875 
L 21.578125 51.859375 
z
" id="Arial-BoldMT-116"/>
       <path d="M 20.3125 0 
L 6.59375 0 
L 6.59375 51.859375 
L 19.34375 51.859375 
L 19.34375 44.484375 
Q 22.609375 49.703125 25.21875 51.359375 
Q 27.828125 53.03125 31.15625 53.03125 
Q 35.84375 53.03125 40.1875 50.4375 
L 35.9375 38.484375 
Q 32.46875 40.71875 29.5 40.71875 
Q 26.609375 40.71875 24.609375 39.125 
Q 22.609375 37.546875 21.453125 33.390625 
Q 20.3125 29.25 20.3125 16.015625 
z
" id="Arial-BoldMT-114"/>
       <path d="M 17.4375 36.03125 
L 4.984375 38.28125 
Q 7.078125 45.796875 12.203125 49.40625 
Q 17.328125 53.03125 27.4375 53.03125 
Q 36.625 53.03125 41.109375 50.859375 
Q 45.609375 48.6875 47.4375 45.34375 
Q 49.265625 42 49.265625 33.0625 
L 49.125 17.046875 
Q 49.125 10.203125 49.78125 6.953125 
Q 50.4375 3.71875 52.25 0 
L 38.671875 0 
Q 38.140625 1.375 37.359375 4.046875 
Q 37.015625 5.28125 36.859375 5.671875 
Q 33.34375 2.25 29.34375 0.53125 
Q 25.34375 -1.171875 20.796875 -1.171875 
Q 12.796875 -1.171875 8.171875 3.171875 
Q 3.5625 7.515625 3.5625 14.15625 
Q 3.5625 18.5625 5.65625 22 
Q 7.765625 25.4375 11.546875 27.265625 
Q 15.328125 29.109375 22.46875 30.46875 
Q 32.078125 32.28125 35.796875 33.84375 
L 35.796875 35.203125 
Q 35.796875 39.15625 33.84375 40.84375 
Q 31.890625 42.53125 26.46875 42.53125 
Q 22.796875 42.53125 20.75 41.09375 
Q 18.703125 39.65625 17.4375 36.03125 
z
M 35.796875 24.90625 
Q 33.15625 24.03125 27.4375 22.796875 
Q 21.734375 21.578125 19.96875 20.40625 
Q 17.28125 18.5 17.28125 15.578125 
Q 17.28125 12.703125 19.421875 10.59375 
Q 21.578125 8.5 24.90625 8.5 
Q 28.609375 8.5 31.984375 10.9375 
Q 34.46875 12.796875 35.25 15.484375 
Q 35.796875 17.234375 35.796875 22.171875 
z
" id="Arial-BoldMT-97"/>
       <path d="M 7.171875 0 
L 7.171875 71.578125 
L 20.90625 71.578125 
L 20.90625 0 
z
" id="Arial-BoldMT-108"/>
      </defs>
      <g style="fill:#262626;" transform="translate(133.675014 387.309545)scale(0.2 -0.2)">
       <use xlink:href="#Arial-BoldMT-78"/>
       <use x="72.216797" xlink:href="#Arial-BoldMT-101"/>
       <use x="127.832031" xlink:href="#Arial-BoldMT-117"/>
       <use x="188.916016" xlink:href="#Arial-BoldMT-116"/>
       <use x="222.216797" xlink:href="#Arial-BoldMT-114"/>
       <use x="261.132812" xlink:href="#Arial-BoldMT-97"/>
       <use x="316.748047" xlink:href="#Arial-BoldMT-108"/>
      </g>
     </g>
    </g>
    <g id="xtick_2">
     <g id="line2d_2">
      <g>
       <use style="fill:#262626;stroke:#262626;stroke-width:1.875;" x="337.217486" xlink:href="#m24c2d72e21" y="360.49392"/>
      </g>
     </g>
     <g id="text_2">
      <!-- Disgust -->
      <defs>
       <path d="M 7.234375 71.578125 
L 33.640625 71.578125 
Q 42.578125 71.578125 47.265625 70.21875 
Q 53.5625 68.359375 58.046875 63.625 
Q 62.546875 58.890625 64.890625 52.03125 
Q 67.234375 45.171875 67.234375 35.109375 
Q 67.234375 26.265625 65.046875 19.875 
Q 62.359375 12.0625 57.375 7.234375 
Q 53.609375 3.5625 47.21875 1.515625 
Q 42.4375 0 34.421875 0 
L 7.234375 0 
z
M 21.6875 59.46875 
L 21.6875 12.0625 
L 32.46875 12.0625 
Q 38.53125 12.0625 41.21875 12.75 
Q 44.734375 13.625 47.046875 15.71875 
Q 49.359375 17.828125 50.828125 22.625 
Q 52.296875 27.4375 52.296875 35.75 
Q 52.296875 44.046875 50.828125 48.484375 
Q 49.359375 52.9375 46.71875 55.421875 
Q 44.09375 57.90625 40.046875 58.796875 
Q 37.015625 59.46875 28.171875 59.46875 
z
" id="Arial-BoldMT-68"/>
       <path d="M 7.171875 58.890625 
L 7.171875 71.578125 
L 20.90625 71.578125 
L 20.90625 58.890625 
z
M 7.171875 0 
L 7.171875 51.859375 
L 20.90625 51.859375 
L 20.90625 0 
z
" id="Arial-BoldMT-105"/>
       <path d="M 2.34375 14.796875 
L 16.109375 16.890625 
Q 17 12.890625 19.671875 10.8125 
Q 22.359375 8.734375 27.203125 8.734375 
Q 32.515625 8.734375 35.203125 10.6875 
Q 37.015625 12.0625 37.015625 14.359375 
Q 37.015625 15.921875 36.03125 16.9375 
Q 35.015625 17.921875 31.453125 18.75 
Q 14.84375 22.40625 10.40625 25.4375 
Q 4.25 29.640625 4.25 37.109375 
Q 4.25 43.84375 9.5625 48.4375 
Q 14.890625 53.03125 26.078125 53.03125 
Q 36.71875 53.03125 41.890625 49.5625 
Q 47.078125 46.09375 49.03125 39.3125 
L 36.078125 36.921875 
Q 35.25 39.9375 32.921875 41.546875 
Q 30.609375 43.171875 26.3125 43.171875 
Q 20.90625 43.171875 18.5625 41.65625 
Q 17 40.578125 17 38.875 
Q 17 37.40625 18.359375 36.375 
Q 20.21875 35.015625 31.171875 32.515625 
Q 42.140625 30.03125 46.484375 26.421875 
Q 50.78125 22.75 50.78125 16.21875 
Q 50.78125 9.078125 44.828125 3.953125 
Q 38.875 -1.171875 27.203125 -1.171875 
Q 16.609375 -1.171875 10.421875 3.125 
Q 4.25 7.421875 2.34375 14.796875 
z
" id="Arial-BoldMT-115"/>
       <path d="M 5.90625 -3.421875 
L 21.578125 -5.328125 
Q 21.96875 -8.0625 23.390625 -9.078125 
Q 25.34375 -10.546875 29.546875 -10.546875 
Q 34.90625 -10.546875 37.59375 -8.9375 
Q 39.40625 -7.859375 40.328125 -5.46875 
Q 40.96875 -3.765625 40.96875 0.828125 
L 40.96875 8.40625 
Q 34.8125 0 25.4375 0 
Q 14.984375 0 8.890625 8.84375 
Q 4.109375 15.828125 4.109375 26.21875 
Q 4.109375 39.265625 10.375 46.140625 
Q 16.65625 53.03125 25.984375 53.03125 
Q 35.59375 53.03125 41.84375 44.578125 
L 41.84375 51.859375 
L 54.6875 51.859375 
L 54.6875 5.328125 
Q 54.6875 -3.859375 53.171875 -8.390625 
Q 51.65625 -12.9375 48.921875 -15.515625 
Q 46.1875 -18.109375 41.625 -19.578125 
Q 37.0625 -21.046875 30.078125 -21.046875 
Q 16.890625 -21.046875 11.375 -16.53125 
Q 5.859375 -12.015625 5.859375 -5.078125 
Q 5.859375 -4.390625 5.90625 -3.421875 
z
M 18.171875 27 
Q 18.171875 18.75 21.359375 14.90625 
Q 24.5625 11.078125 29.25 11.078125 
Q 34.28125 11.078125 37.75 15.015625 
Q 41.21875 18.953125 41.21875 26.65625 
Q 41.21875 34.71875 37.890625 38.625 
Q 34.578125 42.53125 29.5 42.53125 
Q 24.5625 42.53125 21.359375 38.6875 
Q 18.171875 34.859375 18.171875 27 
z
" id="Arial-BoldMT-103"/>
      </defs>
      <g style="fill:#262626;" transform="translate(300.550298 387.309545)scale(0.2 -0.2)">
       <use xlink:href="#Arial-BoldMT-68"/>
       <use x="72.216797" xlink:href="#Arial-BoldMT-105"/>
       <use x="100" xlink:href="#Arial-BoldMT-115"/>
       <use x="155.615234" xlink:href="#Arial-BoldMT-103"/>
       <use x="216.699219" xlink:href="#Arial-BoldMT-117"/>
       <use x="277.783203" xlink:href="#Arial-BoldMT-115"/>
       <use x="333.398438" xlink:href="#Arial-BoldMT-116"/>
      </g>
     </g>
    </g>
   </g>
   <g id="matplotlib.axis_2">
    <g id="ytick_1">
     <g id="line2d_3">
      <defs>
       <path d="M 0 0 
L -9 0 
" id="mb64928f4d3" style="stroke:#262626;stroke-width:1.875;"/>
      </defs>
      <g>
       <use style="fill:#262626;stroke:#262626;stroke-width:1.875;" x="75.272031" xlink:href="#mb64928f4d3" y="342.940134"/>
      </g>
     </g>
     <g id="text_3">
      <!-- −1.0 -->
      <defs>
       <path d="M 52.828125 31.203125 
L 5.5625 31.203125 
L 5.5625 39.40625 
L 52.828125 39.40625 
z
" id="ArialMT-8722"/>
       <path d="M 37.25 0 
L 28.46875 0 
L 28.46875 56 
Q 25.296875 52.984375 20.140625 49.953125 
Q 14.984375 46.921875 10.890625 45.40625 
L 10.890625 53.90625 
Q 18.265625 57.375 23.78125 62.296875 
Q 29.296875 67.234375 31.59375 71.875 
L 37.25 71.875 
z
" id="ArialMT-49"/>
       <path d="M 9.078125 0 
L 9.078125 10.015625 
L 19.09375 10.015625 
L 19.09375 0 
z
" id="ArialMT-46"/>
       <path d="M 4.15625 35.296875 
Q 4.15625 48 6.765625 55.734375 
Q 9.375 63.484375 14.515625 67.671875 
Q 19.671875 71.875 27.484375 71.875 
Q 33.25 71.875 37.59375 69.546875 
Q 41.9375 67.234375 44.765625 62.859375 
Q 47.609375 58.5 49.21875 52.21875 
Q 50.828125 45.953125 50.828125 35.296875 
Q 50.828125 22.703125 48.234375 14.96875 
Q 45.65625 7.234375 40.5 3 
Q 35.359375 -1.21875 27.484375 -1.21875 
Q 17.140625 -1.21875 11.234375 6.203125 
Q 4.15625 15.140625 4.15625 35.296875 
z
M 13.1875 35.296875 
Q 13.1875 17.671875 17.3125 11.828125 
Q 21.4375 6 27.484375 6 
Q 33.546875 6 37.671875 11.859375 
Q 41.796875 17.71875 41.796875 35.296875 
Q 41.796875 52.984375 37.671875 58.78125 
Q 33.546875 64.59375 27.390625 64.59375 
Q 21.34375 64.59375 17.71875 59.46875 
Q 13.1875 52.9375 13.1875 35.296875 
z
" id="ArialMT-48"/>
      </defs>
      <g style="fill:#262626;" transform="translate(30.2 348.845329)scale(0.165 -0.165)">
       <use xlink:href="#ArialMT-8722"/>
       <use x="58.398438" xlink:href="#ArialMT-49"/>
       <use x="114.013672" xlink:href="#ArialMT-46"/>
       <use x="141.796875" xlink:href="#ArialMT-48"/>
      </g>
     </g>
    </g>
    <g id="ytick_2">
     <g id="line2d_4">
      <g>
       <use style="fill:#262626;stroke:#262626;stroke-width:1.875;" x="75.272031" xlink:href="#mb64928f4d3" y="295.47439"/>
      </g>
     </g>
     <g id="text_4">
      <!-- −0.5 -->
      <defs>
       <path d="M 4.15625 18.75 
L 13.375 19.53125 
Q 14.40625 12.796875 18.140625 9.390625 
Q 21.875 6 27.15625 6 
Q 33.5 6 37.890625 10.78125 
Q 42.28125 15.578125 42.28125 23.484375 
Q 42.28125 31 38.0625 35.34375 
Q 33.84375 39.703125 27 39.703125 
Q 22.75 39.703125 19.328125 37.765625 
Q 15.921875 35.84375 13.96875 32.765625 
L 5.71875 33.84375 
L 12.640625 70.609375 
L 48.25 70.609375 
L 48.25 62.203125 
L 19.671875 62.203125 
L 15.828125 42.96875 
Q 22.265625 47.46875 29.34375 47.46875 
Q 38.71875 47.46875 45.15625 40.96875 
Q 51.609375 34.46875 51.609375 24.265625 
Q 51.609375 14.546875 45.953125 7.46875 
Q 39.0625 -1.21875 27.15625 -1.21875 
Q 17.390625 -1.21875 11.203125 4.25 
Q 5.03125 9.71875 4.15625 18.75 
z
" id="ArialMT-53"/>
      </defs>
      <g style="fill:#262626;" transform="translate(30.2 301.379585)scale(0.165 -0.165)">
       <use xlink:href="#ArialMT-8722"/>
       <use x="58.398438" xlink:href="#ArialMT-48"/>
       <use x="114.013672" xlink:href="#ArialMT-46"/>
       <use x="141.796875" xlink:href="#ArialMT-53"/>
      </g>
     </g>
    </g>
    <g id="ytick_3">
     <g id="line2d_5">
      <g>
       <use style="fill:#262626;stroke:#262626;stroke-width:1.875;" x="75.272031" xlink:href="#mb64928f4d3" y="248.008647"/>
      </g>
     </g>
     <g id="text_5">
      <!-- 0.0 -->
      <g style="fill:#262626;" transform="translate(39.837031 253.913842)scale(0.165 -0.165)">
       <use xlink:href="#ArialMT-48"/>
       <use x="55.615234" xlink:href="#ArialMT-46"/>
       <use x="83.398438" xlink:href="#ArialMT-48"/>
      </g>
     </g>
    </g>
    <g id="ytick_4">
     <g id="line2d_6">
      <g>
       <use style="fill:#262626;stroke:#262626;stroke-width:1.875;" x="75.272031" xlink:href="#mb64928f4d3" y="200.542903"/>
      </g>
     </g>
     <g id="text_6">
      <!-- 0.5 -->
      <g style="fill:#262626;" transform="translate(39.837031 206.448098)scale(0.165 -0.165)">
       <use xlink:href="#ArialMT-48"/>
       <use x="55.615234" xlink:href="#ArialMT-46"/>
       <use x="83.398438" xlink:href="#ArialMT-53"/>
      </g>
     </g>
    </g>
    <g id="ytick_5">
     <g id="line2d_7">
      <g>
       <use style="fill:#262626;stroke:#262626;stroke-width:1.875;" x="75.272031" xlink:href="#mb64928f4d3" y="153.077159"/>
      </g>
     </g>
     <g id="text_7">
      <!-- 1.0 -->
      <g style="fill:#262626;" transform="translate(39.837031 158.982355)scale(0.165 -0.165)">
       <use xlink:href="#ArialMT-49"/>
       <use x="55.615234" xlink:href="#ArialMT-46"/>
       <use x="83.398438" xlink:href="#ArialMT-48"/>
      </g>
     </g>
    </g>
    <g id="ytick_6">
     <g id="line2d_8">
      <g>
       <use style="fill:#262626;stroke:#262626;stroke-width:1.875;" x="75.272031" xlink:href="#mb64928f4d3" y="105.611416"/>
      </g>
     </g>
     <g id="text_8">
      <!-- 1.5 -->
      <g style="fill:#262626;" transform="translate(39.837031 111.516611)scale(0.165 -0.165)">
       <use xlink:href="#ArialMT-49"/>
       <use x="55.615234" xlink:href="#ArialMT-46"/>
       <use x="83.398438" xlink:href="#ArialMT-53"/>
      </g>
     </g>
    </g>
    <g id="ytick_7">
     <g id="line2d_9">
      <g>
       <use style="fill:#262626;stroke:#262626;stroke-width:1.875;" x="75.272031" xlink:href="#mb64928f4d3" y="58.145672"/>
      </g>
     </g>
     <g id="text_9">
      <!-- 2.0 -->
      <defs>
       <path d="M 50.34375 8.453125 
L 50.34375 0 
L 3.03125 0 
Q 2.9375 3.171875 4.046875 6.109375 
Q 5.859375 10.9375 9.828125 15.625 
Q 13.8125 20.3125 21.34375 26.46875 
Q 33.015625 36.03125 37.109375 41.625 
Q 41.21875 47.21875 41.21875 52.203125 
Q 41.21875 57.421875 37.46875 61 
Q 33.734375 64.59375 27.734375 64.59375 
Q 21.390625 64.59375 17.578125 60.78125 
Q 13.765625 56.984375 13.71875 50.25 
L 4.6875 51.171875 
Q 5.609375 61.28125 11.65625 66.578125 
Q 17.71875 71.875 27.9375 71.875 
Q 38.234375 71.875 44.234375 66.15625 
Q 50.25 60.453125 50.25 52 
Q 50.25 47.703125 48.484375 43.546875 
Q 46.734375 39.40625 42.65625 34.8125 
Q 38.578125 30.21875 29.109375 22.21875 
Q 21.1875 15.578125 18.9375 13.203125 
Q 16.703125 10.84375 15.234375 8.453125 
z
" id="ArialMT-50"/>
      </defs>
      <g style="fill:#262626;" transform="translate(39.837031 64.050868)scale(0.165 -0.165)">
       <use xlink:href="#ArialMT-50"/>
       <use x="55.615234" xlink:href="#ArialMT-46"/>
       <use x="83.398438" xlink:href="#ArialMT-48"/>
      </g>
     </g>
    </g>
    <g id="text_10">
     <!-- $\Delta$ valence rating -->
     <defs>
      <path d="M 34.1875 63.1875 
L 14.15625 8.203125 
L 54.25 8.203125 
z
M 0.78125 0 
L 28.609375 72.90625 
L 39.796875 72.90625 
L 67.578125 0 
z
" id="DejaVuSans-916"/>
      <path id="Arial-BoldMT-32"/>
      <path d="M 21.4375 0 
L 0.53125 51.859375 
L 14.9375 51.859375 
L 24.703125 25.390625 
L 27.546875 16.546875 
Q 28.65625 19.921875 28.953125 21 
Q 29.640625 23.1875 30.421875 25.390625 
L 40.28125 51.859375 
L 54.390625 51.859375 
L 33.796875 0 
z
" id="Arial-BoldMT-118"/>
      <path d="M 54.34375 0 
L 40.625 0 
L 40.625 26.46875 
Q 40.625 34.859375 39.75 37.328125 
Q 38.875 39.796875 36.890625 41.15625 
Q 34.90625 42.53125 32.125 42.53125 
Q 28.5625 42.53125 25.734375 40.578125 
Q 22.90625 38.625 21.84375 35.390625 
Q 20.796875 32.171875 20.796875 23.484375 
L 20.796875 0 
L 7.078125 0 
L 7.078125 51.859375 
L 19.828125 51.859375 
L 19.828125 44.234375 
Q 26.609375 53.03125 36.921875 53.03125 
Q 41.453125 53.03125 45.203125 51.390625 
Q 48.96875 49.75 50.890625 47.203125 
Q 52.828125 44.671875 53.578125 41.453125 
Q 54.34375 38.234375 54.34375 32.234375 
z
" id="Arial-BoldMT-110"/>
      <path d="M 52.390625 36.53125 
L 38.875 34.078125 
Q 38.1875 38.140625 35.765625 40.1875 
Q 33.34375 42.234375 29.5 42.234375 
Q 24.359375 42.234375 21.3125 38.6875 
Q 18.265625 35.15625 18.265625 26.859375 
Q 18.265625 17.625 21.359375 13.8125 
Q 24.46875 10.015625 29.6875 10.015625 
Q 33.59375 10.015625 36.078125 12.234375 
Q 38.578125 14.453125 39.59375 19.875 
L 53.078125 17.578125 
Q 50.984375 8.296875 45.015625 3.5625 
Q 39.0625 -1.171875 29.046875 -1.171875 
Q 17.671875 -1.171875 10.90625 6 
Q 4.15625 13.1875 4.15625 25.875 
Q 4.15625 38.71875 10.9375 45.875 
Q 17.71875 53.03125 29.296875 53.03125 
Q 38.765625 53.03125 44.359375 48.953125 
Q 49.953125 44.875 52.390625 36.53125 
z
" id="Arial-BoldMT-99"/>
     </defs>
     <g style="fill:#262626;" transform="translate(21.8 264.31392)rotate(-90)scale(0.2 -0.2)">
      <use transform="translate(0 0.09375)" xlink:href="#DejaVuSans-916"/>
      <use transform="translate(68.408203 0.09375)" xlink:href="#Arial-BoldMT-32"/>
      <use transform="translate(96.191406 0.09375)" xlink:href="#Arial-BoldMT-118"/>
      <use transform="translate(151.806641 0.09375)" xlink:href="#Arial-BoldMT-97"/>
      <use transform="translate(207.421875 0.09375)" xlink:href="#Arial-BoldMT-108"/>
      <use transform="translate(235.205078 0.09375)" xlink:href="#Arial-BoldMT-101"/>
      <use transform="translate(290.820312 0.09375)" xlink:href="#Arial-BoldMT-110"/>
      <use transform="translate(351.904297 0.09375)" xlink:href="#Arial-BoldMT-99"/>
      <use transform="translate(407.519531 0.09375)" xlink:href="#Arial-BoldMT-101"/>
      <use transform="translate(463.134766 0.09375)" xlink:href="#Arial-BoldMT-32"/>
      <use transform="translate(490.917969 0.09375)" xlink:href="#Arial-BoldMT-114"/>
      <use transform="translate(529.833984 0.09375)" xlink:href="#Arial-BoldMT-97"/>
      <use transform="translate(585.449219 0.09375)" xlink:href="#Arial-BoldMT-116"/>
      <use transform="translate(618.75 0.09375)" xlink:href="#Arial-BoldMT-105"/>
      <use transform="translate(646.533203 0.09375)" xlink:href="#Arial-BoldMT-110"/>
      <use transform="translate(707.617188 0.09375)" xlink:href="#Arial-BoldMT-103"/>
     </g>
    </g>
   </g>
   <g id="PathCollection_1"/>
   <g id="PathCollection_2"/>
   <g id="PathCollection_3"/>
   <g id="patch_3">
    <path clip-path="url(#pf03038c5c2)" d="M 100.490213 248.008647 
L 145.581122 248.008647 
L 145.581122 242.364099 
L 100.490213 242.364099 
z
" style="fill:#489e53;stroke:#333333;stroke-linejoin:miter;stroke-width:1.5;"/>
   </g>
   <g id="patch_4">
    <path clip-path="url(#pf03038c5c2)" d="M 269.581122 248.008647 
L 314.672031 248.008647 
L 314.672031 212.611108 
L 269.581122 212.611108 
z
" style="fill:#489e53;stroke:#333333;stroke-linejoin:miter;stroke-width:1.5;"/>
   </g>
   <g id="patch_5">
    <path clip-path="url(#pf03038c5c2)" d="M 145.581122 248.008647 
L 190.672031 248.008647 
L 190.672031 250.791608 
L 145.581122 250.791608 
z
" style="fill:#c8645e;stroke:#333333;stroke-linejoin:miter;stroke-width:1.5;"/>
   </g>
   <g id="patch_6">
    <path clip-path="url(#pf03038c5c2)" d="M 314.672031 248.008647 
L 359.76294 248.008647 
L 359.76294 212.769927 
L 314.672031 212.769927 
z
" style="fill:#c8645e;stroke:#333333;stroke-linejoin:miter;stroke-width:1.5;"/>
   </g>
   <g id="patch_7">
    <path clip-path="url(#pf03038c5c2)" d="M 190.672031 248.008647 
L 235.76294 248.008647 
L 235.76294 244.786615 
L 190.672031 244.786615 
z
" style="fill:#465e87;stroke:#333333;stroke-linejoin:miter;stroke-width:1.5;"/>
   </g>
   <g id="patch_8">
    <path clip-path="url(#pf03038c5c2)" d="M 359.76294 248.008647 
L 404.853849 248.008647 
L 404.853849 229.019638 
L 359.76294 229.019638 
z
" style="fill:#465e87;stroke:#333333;stroke-linejoin:miter;stroke-width:1.5;"/>
   </g>
   <g id="line2d_10">
    <path clip-path="url(#pf03038c5c2)" d="M 123.035668 249.860849 
L 123.035668 235.320949 
" style="fill:none;stroke:#424242;stroke-linecap:round;stroke-width:4.05;"/>
   </g>
   <g id="line2d_11">
    <path clip-path="url(#pf03038c5c2)" d="M 118.808395 249.860849 
L 127.26294 249.860849 
" style="fill:none;stroke:#424242;stroke-linecap:round;stroke-width:4.05;"/>
   </g>
   <g id="line2d_12">
    <path clip-path="url(#pf03038c5c2)" d="M 118.808395 235.320949 
L 127.26294 235.320949 
" style="fill:none;stroke:#424242;stroke-linecap:round;stroke-width:4.05;"/>
   </g>
   <g id="line2d_13">
    <path clip-path="url(#pf03038c5c2)" d="M 292.126577 221.481289 
L 292.126577 202.343964 
" style="fill:none;stroke:#424242;stroke-linecap:round;stroke-width:4.05;"/>
   </g>
   <g id="line2d_14">
    <path clip-path="url(#pf03038c5c2)" d="M 287.899304 221.481289 
L 296.353849 221.481289 
" style="fill:none;stroke:#424242;stroke-linecap:round;stroke-width:4.05;"/>
   </g>
   <g id="line2d_15">
    <path clip-path="url(#pf03038c5c2)" d="M 287.899304 202.343964 
L 296.353849 202.343964 
" style="fill:none;stroke:#424242;stroke-linecap:round;stroke-width:4.05;"/>
   </g>
   <g id="line2d_16">
    <path clip-path="url(#pf03038c5c2)" d="M 168.126577 258.075402 
L 168.126577 243.764698 
" style="fill:none;stroke:#424242;stroke-linecap:round;stroke-width:4.05;"/>
   </g>
   <g id="line2d_17">
    <path clip-path="url(#pf03038c5c2)" d="M 163.899304 258.075402 
L 172.353849 258.075402 
" style="fill:none;stroke:#424242;stroke-linecap:round;stroke-width:4.05;"/>
   </g>
   <g id="line2d_18">
    <path clip-path="url(#pf03038c5c2)" d="M 163.899304 243.764698 
L 172.353849 243.764698 
" style="fill:none;stroke:#424242;stroke-linecap:round;stroke-width:4.05;"/>
   </g>
   <g id="line2d_19">
    <path clip-path="url(#pf03038c5c2)" d="M 337.217486 222.287567 
L 337.217486 203.533884 
" style="fill:none;stroke:#424242;stroke-linecap:round;stroke-width:4.05;"/>
   </g>
   <g id="line2d_20">
    <path clip-path="url(#pf03038c5c2)" d="M 332.990213 222.287567 
L 341.444759 222.287567 
" style="fill:none;stroke:#424242;stroke-linecap:round;stroke-width:4.05;"/>
   </g>
   <g id="line2d_21">
    <path clip-path="url(#pf03038c5c2)" d="M 332.990213 203.533884 
L 341.444759 203.533884 
" style="fill:none;stroke:#424242;stroke-linecap:round;stroke-width:4.05;"/>
   </g>
   <g id="line2d_22">
    <path clip-path="url(#pf03038c5c2)" d="M 213.217486 254.596042 
L 213.217486 235.442291 
" style="fill:none;stroke:#424242;stroke-linecap:round;stroke-width:4.05;"/>
   </g>
   <g id="line2d_23">
    <path clip-path="url(#pf03038c5c2)" d="M 208.990213 254.596042 
L 217.444759 254.596042 
" style="fill:none;stroke:#424242;stroke-linecap:round;stroke-width:4.05;"/>
   </g>
   <g id="line2d_24">
    <path clip-path="url(#pf03038c5c2)" d="M 208.990213 235.442291 
L 217.444759 235.442291 
" style="fill:none;stroke:#424242;stroke-linecap:round;stroke-width:4.05;"/>
   </g>
   <g id="line2d_25">
    <path clip-path="url(#pf03038c5c2)" d="M 382.308395 236.20055 
L 382.308395 222.078412 
" style="fill:none;stroke:#424242;stroke-linecap:round;stroke-width:4.05;"/>
   </g>
   <g id="line2d_26">
    <path clip-path="url(#pf03038c5c2)" d="M 378.081122 236.20055 
L 386.535668 236.20055 
" style="fill:none;stroke:#424242;stroke-linecap:round;stroke-width:4.05;"/>
   </g>
   <g id="line2d_27">
    <path clip-path="url(#pf03038c5c2)" d="M 378.081122 222.078412 
L 386.535668 222.078412 
" style="fill:none;stroke:#424242;stroke-linecap:round;stroke-width:4.05;"/>
   </g>
   <g id="line2d_28">
    <path clip-path="url(#pf03038c5c2)" d="M 337.217486 48.652524 
L 337.217486 39.159375 
L 382.872031 39.159375 
L 382.872031 48.652524 
" style="fill:none;stroke:#1a1a1a;stroke-linecap:round;stroke-width:4;"/>
   </g>
   <g id="line2d_29">
    <path clip-path="url(#pf03038c5c2)" d="M 85.272031 248.008647 
L 420.072031 248.008647 
" style="fill:none;stroke:#000000;stroke-dasharray:8.325,3.6;stroke-dashoffset:0;stroke-width:2.25;"/>
   </g>
   <g id="patch_9">
    <path d="M 75.272031 342.940134 
L 75.272031 58.145672 
" style="fill:none;stroke:#262626;stroke-linecap:square;stroke-linejoin:miter;stroke-width:1.875;"/>
   </g>
   <g id="patch_10">
    <path d="M 168.126577 360.49392 
L 337.217486 360.49392 
" style="fill:none;stroke:#262626;stroke-linecap:square;stroke-linejoin:miter;stroke-width:1.875;"/>
   </g>
   <g id="PathCollection_4">
    <defs>
     <path d="M 0 2.5 
C 0.663008 2.5 1.29895 2.236584 1.767767 1.767767 
C 2.236584 1.29895 2.5 0.663008 2.5 0 
C 2.5 -0.663008 2.236584 -1.29895 1.767767 -1.767767 
C 1.29895 -2.236584 0.663008 -2.5 0 -2.5 
C -0.663008 -2.5 -1.29895 -2.236584 -1.767767 -1.767767 
C -2.236584 -1.29895 -2.5 -0.663008 -2.5 0 
C -2.5 0.663008 -2.236584 1.29895 -1.767767 1.767767 
C -1.29895 2.236584 -0.663008 2.5 0 2.5 
z
" id="C0_0_9d301f8a4d"/>
    </defs>
    <g clip-path="url(#pf03038c5c2)">
     <use style="fill:#39ad48;fill-opacity:0.4;stroke:#1a1a1a;stroke-opacity:0.4;stroke-width:1.5;" x="125.231869" xlink:href="#C0_0_9d301f8a4d" y="235.782622"/>
    </g>
    <g clip-path="url(#pf03038c5c2)">
     <use style="fill:#39ad48;fill-opacity:0.4;stroke:#1a1a1a;stroke-opacity:0.4;stroke-width:1.5;" x="122.775068" xlink:href="#C0_0_9d301f8a4d" y="266.994944"/>
    </g>
    <g clip-path="url(#pf03038c5c2)">
     <use style="fill:#39ad48;fill-opacity:0.4;stroke:#1a1a1a;stroke-opacity:0.4;stroke-width:1.5;" x="123.966987" xlink:href="#C0_0_9d301f8a4d" y="221.638789"/>
    </g>
    <g clip-path="url(#pf03038c5c2)">
     <use style="fill:#39ad48;fill-opacity:0.4;stroke:#1a1a1a;stroke-opacity:0.4;stroke-width:1.5;" x="120.115498" xlink:href="#C0_0_9d301f8a4d" y="266.994944"/>
    </g>
    <g clip-path="url(#pf03038c5c2)">
     <use style="fill:#39ad48;fill-opacity:0.4;stroke:#1a1a1a;stroke-opacity:0.4;stroke-width:1.5;" x="125.955858" xlink:href="#C0_0_9d301f8a4d" y="187.5977"/>
    </g>
    <g clip-path="url(#pf03038c5c2)">
     <use style="fill:#39ad48;fill-opacity:0.4;stroke:#1a1a1a;stroke-opacity:0.4;stroke-width:1.5;" x="123.783342" xlink:href="#C0_0_9d301f8a4d" y="195.268931"/>
    </g>
    <g clip-path="url(#pf03038c5c2)">
     <use style="fill:#39ad48;fill-opacity:0.4;stroke:#1a1a1a;stroke-opacity:0.4;stroke-width:1.5;" x="118.612919" xlink:href="#C0_0_9d301f8a4d" y="291.159322"/>
    </g>
    <g clip-path="url(#pf03038c5c2)">
     <use style="fill:#39ad48;fill-opacity:0.4;stroke:#1a1a1a;stroke-opacity:0.4;stroke-width:1.5;" x="126.884129" xlink:href="#C0_0_9d301f8a4d" y="229.31002"/>
    </g>
    <g clip-path="url(#pf03038c5c2)">
     <use style="fill:#39ad48;fill-opacity:0.4;stroke:#1a1a1a;stroke-opacity:0.4;stroke-width:1.5;" x="123.237041" xlink:href="#C0_0_9d301f8a4d" y="327.118219"/>
    </g>
    <g clip-path="url(#pf03038c5c2)">
     <use style="fill:#39ad48;fill-opacity:0.4;stroke:#1a1a1a;stroke-opacity:0.4;stroke-width:1.5;" x="122.630603" xlink:href="#C0_0_9d301f8a4d" y="247.289469"/>
    </g>
    <g clip-path="url(#pf03038c5c2)">
     <use style="fill:#39ad48;fill-opacity:0.4;stroke:#1a1a1a;stroke-opacity:0.4;stroke-width:1.5;" x="124.443603" xlink:href="#C0_0_9d301f8a4d" y="211.330572"/>
    </g>
    <g clip-path="url(#pf03038c5c2)">
     <use style="fill:#39ad48;fill-opacity:0.4;stroke:#1a1a1a;stroke-opacity:0.4;stroke-width:1.5;" x="118.041393" xlink:href="#C0_0_9d301f8a4d" y="208.45386"/>
    </g>
    <g clip-path="url(#pf03038c5c2)">
     <use style="fill:#39ad48;fill-opacity:0.4;stroke:#1a1a1a;stroke-opacity:0.4;stroke-width:1.5;" x="120.852735" xlink:href="#C0_0_9d301f8a4d" y="210.036052"/>
    </g>
    <g clip-path="url(#pf03038c5c2)">
     <use style="fill:#39ad48;fill-opacity:0.4;stroke:#1a1a1a;stroke-opacity:0.4;stroke-width:1.5;" x="124.731088" xlink:href="#C0_0_9d301f8a4d" y="221.159337"/>
    </g>
    <g clip-path="url(#pf03038c5c2)">
     <use style="fill:#39ad48;fill-opacity:0.4;stroke:#1a1a1a;stroke-opacity:0.4;stroke-width:1.5;" x="121.819395" xlink:href="#C0_0_9d301f8a4d" y="205.816874"/>
    </g>
    <g clip-path="url(#pf03038c5c2)">
     <use style="fill:#39ad48;fill-opacity:0.4;stroke:#1a1a1a;stroke-opacity:0.4;stroke-width:1.5;" x="127.644037" xlink:href="#C0_0_9d301f8a4d" y="258.55659"/>
    </g>
    <g clip-path="url(#pf03038c5c2)">
     <use style="fill:#39ad48;fill-opacity:0.4;stroke:#1a1a1a;stroke-opacity:0.4;stroke-width:1.5;" x="124.563561" xlink:href="#C0_0_9d301f8a4d" y="285.981241"/>
    </g>
    <g clip-path="url(#pf03038c5c2)">
     <use style="fill:#39ad48;fill-opacity:0.4;stroke:#1a1a1a;stroke-opacity:0.4;stroke-width:1.5;" x="126.418847" xlink:href="#C0_0_9d301f8a4d" y="244.053168"/>
    </g>
    <g clip-path="url(#pf03038c5c2)">
     <use style="fill:#39ad48;fill-opacity:0.4;stroke:#1a1a1a;stroke-opacity:0.4;stroke-width:1.5;" x="117.429377" xlink:href="#C0_0_9d301f8a4d" y="242.255223"/>
    </g>
    <g clip-path="url(#pf03038c5c2)">
     <use style="fill:#39ad48;fill-opacity:0.4;stroke:#1a1a1a;stroke-opacity:0.4;stroke-width:1.5;" x="120.072417" xlink:href="#C0_0_9d301f8a4d" y="265.268917"/>
    </g>
    <g clip-path="url(#pf03038c5c2)">
     <use style="fill:#39ad48;fill-opacity:0.4;stroke:#1a1a1a;stroke-opacity:0.4;stroke-width:1.5;" x="125.150473" xlink:href="#C0_0_9d301f8a4d" y="255.919604"/>
    </g>
    <g clip-path="url(#pf03038c5c2)">
     <use style="fill:#39ad48;fill-opacity:0.4;stroke:#1a1a1a;stroke-opacity:0.4;stroke-width:1.5;" x="128.343527" xlink:href="#C0_0_9d301f8a4d" y="269.104533"/>
    </g>
    <g clip-path="url(#pf03038c5c2)">
     <use style="fill:#39ad48;fill-opacity:0.4;stroke:#1a1a1a;stroke-opacity:0.4;stroke-width:1.5;" x="127.182428" xlink:href="#C0_0_9d301f8a4d" y="200.542903"/>
    </g>
    <g clip-path="url(#pf03038c5c2)">
     <use style="fill:#39ad48;fill-opacity:0.4;stroke:#1a1a1a;stroke-opacity:0.4;stroke-width:1.5;" x="124.113028" xlink:href="#C0_0_9d301f8a4d" y="269.104533"/>
    </g>
   </g>
   <g id="PathCollection_5">
    <defs>
     <path d="M 0 2.5 
C 0.663008 2.5 1.29895 2.236584 1.767767 1.767767 
C 2.236584 1.29895 2.5 0.663008 2.5 0 
C 2.5 -0.663008 2.236584 -1.29895 1.767767 -1.767767 
C 1.29895 -2.236584 0.663008 -2.5 0 -2.5 
C -0.663008 -2.5 -1.29895 -2.236584 -1.767767 -1.767767 
C -2.236584 -1.29895 -2.5 -0.663008 -2.5 0 
C -2.5 0.663008 -2.236584 1.29895 -1.767767 1.767767 
C -1.29895 2.236584 -0.663008 2.5 0 2.5 
z
" id="C1_0_a78b1d2356"/>
    </defs>
    <g clip-path="url(#pf03038c5c2)">
     <use style="fill:#d9544d;fill-opacity:0.4;stroke:#1a1a1a;stroke-opacity:0.4;stroke-width:1.5;" x="165.763602" xlink:href="#C1_0_a78b1d2356" y="254.049741"/>
    </g>
    <g clip-path="url(#pf03038c5c2)">
     <use style="fill:#d9544d;fill-opacity:0.4;stroke:#1a1a1a;stroke-opacity:0.4;stroke-width:1.5;" x="163.330032" xlink:href="#C1_0_a78b1d2356" y="287.563433"/>
    </g>
    <g clip-path="url(#pf03038c5c2)">
     <use style="fill:#d9544d;fill-opacity:0.4;stroke:#1a1a1a;stroke-opacity:0.4;stroke-width:1.5;" x="169.870048" xlink:href="#C1_0_a78b1d2356" y="240.097689"/>
    </g>
    <g clip-path="url(#pf03038c5c2)">
     <use style="fill:#d9544d;fill-opacity:0.4;stroke:#1a1a1a;stroke-opacity:0.4;stroke-width:1.5;" x="173.543445" xlink:href="#C1_0_a78b1d2356" y="290.440145"/>
    </g>
    <g clip-path="url(#pf03038c5c2)">
     <use style="fill:#d9544d;fill-opacity:0.4;stroke:#1a1a1a;stroke-opacity:0.4;stroke-width:1.5;" x="164.339684" xlink:href="#C1_0_a78b1d2356" y="235.063444"/>
    </g>
    <g clip-path="url(#pf03038c5c2)">
     <use style="fill:#d9544d;fill-opacity:0.4;stroke:#1a1a1a;stroke-opacity:0.4;stroke-width:1.5;" x="172.067458" xlink:href="#C1_0_a78b1d2356" y="208.45386"/>
    </g>
    <g clip-path="url(#pf03038c5c2)">
     <use style="fill:#d9544d;fill-opacity:0.4;stroke:#1a1a1a;stroke-opacity:0.4;stroke-width:1.5;" x="171.92145" xlink:href="#C1_0_a78b1d2356" y="258.077138"/>
    </g>
    <g clip-path="url(#pf03038c5c2)">
     <use style="fill:#d9544d;fill-opacity:0.4;stroke:#1a1a1a;stroke-opacity:0.4;stroke-width:1.5;" x="169.903906" xlink:href="#C1_0_a78b1d2356" y="235.351115"/>
    </g>
    <g clip-path="url(#pf03038c5c2)">
     <use style="fill:#d9544d;fill-opacity:0.4;stroke:#1a1a1a;stroke-opacity:0.4;stroke-width:1.5;" x="165.313343" xlink:href="#C1_0_a78b1d2356" y="292.837404"/>
    </g>
    <g clip-path="url(#pf03038c5c2)">
     <use style="fill:#d9544d;fill-opacity:0.4;stroke:#1a1a1a;stroke-opacity:0.4;stroke-width:1.5;" x="163.942068" xlink:href="#C1_0_a78b1d2356" y="233.625088"/>
    </g>
    <g clip-path="url(#pf03038c5c2)">
     <use style="fill:#d9544d;fill-opacity:0.4;stroke:#1a1a1a;stroke-opacity:0.4;stroke-width:1.5;" x="173.414194" xlink:href="#C1_0_a78b1d2356" y="150.440174"/>
    </g>
    <g clip-path="url(#pf03038c5c2)">
     <use style="fill:#d9544d;fill-opacity:0.4;stroke:#1a1a1a;stroke-opacity:0.4;stroke-width:1.5;" x="163.905167" xlink:href="#C1_0_a78b1d2356" y="232.186732"/>
    </g>
    <g clip-path="url(#pf03038c5c2)">
     <use style="fill:#d9544d;fill-opacity:0.4;stroke:#1a1a1a;stroke-opacity:0.4;stroke-width:1.5;" x="162.547792" xlink:href="#C1_0_a78b1d2356" y="228.231253"/>
    </g>
    <g clip-path="url(#pf03038c5c2)">
     <use style="fill:#d9544d;fill-opacity:0.4;stroke:#1a1a1a;stroke-opacity:0.4;stroke-width:1.5;" x="169.040197" xlink:href="#C1_0_a78b1d2356" y="219.5292"/>
    </g>
    <g clip-path="url(#pf03038c5c2)">
     <use style="fill:#d9544d;fill-opacity:0.4;stroke:#1a1a1a;stroke-opacity:0.4;stroke-width:1.5;" x="173.729492" xlink:href="#C1_0_a78b1d2356" y="224.275775"/>
    </g>
    <g clip-path="url(#pf03038c5c2)">
     <use style="fill:#d9544d;fill-opacity:0.4;stroke:#1a1a1a;stroke-opacity:0.4;stroke-width:1.5;" x="163.487371" xlink:href="#C1_0_a78b1d2356" y="232.186732"/>
    </g>
    <g clip-path="url(#pf03038c5c2)">
     <use style="fill:#d9544d;fill-opacity:0.4;stroke:#1a1a1a;stroke-opacity:0.4;stroke-width:1.5;" x="165.280548" xlink:href="#C1_0_a78b1d2356" y="265.268917"/>
    </g>
    <g clip-path="url(#pf03038c5c2)">
     <use style="fill:#d9544d;fill-opacity:0.4;stroke:#1a1a1a;stroke-opacity:0.4;stroke-width:1.5;" x="163.300427" xlink:href="#C1_0_a78b1d2356" y="276.056586"/>
    </g>
    <g clip-path="url(#pf03038c5c2)">
     <use style="fill:#d9544d;fill-opacity:0.4;stroke:#1a1a1a;stroke-opacity:0.4;stroke-width:1.5;" x="170.383128" xlink:href="#C1_0_a78b1d2356" y="316.570276"/>
    </g>
    <g clip-path="url(#pf03038c5c2)">
     <use style="fill:#d9544d;fill-opacity:0.4;stroke:#1a1a1a;stroke-opacity:0.4;stroke-width:1.5;" x="162.833862" xlink:href="#C1_0_a78b1d2356" y="303.385347"/>
    </g>
    <g clip-path="url(#pf03038c5c2)">
     <use style="fill:#d9544d;fill-opacity:0.4;stroke:#1a1a1a;stroke-opacity:0.4;stroke-width:1.5;" x="164.137031" xlink:href="#C1_0_a78b1d2356" y="255.919604"/>
    </g>
    <g clip-path="url(#pf03038c5c2)">
     <use style="fill:#d9544d;fill-opacity:0.4;stroke:#1a1a1a;stroke-opacity:0.4;stroke-width:1.5;" x="172.514955" xlink:href="#C1_0_a78b1d2356" y="268.577135"/>
    </g>
    <g clip-path="url(#pf03038c5c2)">
     <use style="fill:#d9544d;fill-opacity:0.4;stroke:#1a1a1a;stroke-opacity:0.4;stroke-width:1.5;" x="167.967898" xlink:href="#C1_0_a78b1d2356" y="222.118241"/>
    </g>
    <g clip-path="url(#pf03038c5c2)">
     <use style="fill:#d9544d;fill-opacity:0.4;stroke:#1a1a1a;stroke-opacity:0.4;stroke-width:1.5;" x="171.587155" xlink:href="#C1_0_a78b1d2356" y="288.69357"/>
    </g>
   </g>
   <g id="PathCollection_6">
    <defs>
     <path d="M 0 2.5 
C 0.663008 2.5 1.29895 2.236584 1.767767 1.767767 
C 2.236584 1.29895 2.5 0.663008 2.5 0 
C 2.5 -0.663008 2.236584 -1.29895 1.767767 -1.767767 
C 1.29895 -2.236584 0.663008 -2.5 0 -2.5 
C -0.663008 -2.5 -1.29895 -2.236584 -1.767767 -1.767767 
C -2.236584 -1.29895 -2.5 -0.663008 -2.5 0 
C -2.5 0.663008 -2.236584 1.29895 -1.767767 1.767767 
C -1.29895 2.236584 -0.663008 2.5 0 2.5 
z
" id="C2_0_d912a285eb"/>
    </defs>
    <g clip-path="url(#pf03038c5c2)">
     <use style="fill:#3b5b92;fill-opacity:0.4;stroke:#1a1a1a;stroke-opacity:0.4;stroke-width:1.5;" x="218.647758" xlink:href="#C2_0_d912a285eb" y="230.604541"/>
    </g>
    <g clip-path="url(#pf03038c5c2)">
     <use style="fill:#3b5b92;fill-opacity:0.4;stroke:#1a1a1a;stroke-opacity:0.4;stroke-width:1.5;" x="216.342536" xlink:href="#C2_0_d912a285eb" y="313.597674"/>
    </g>
    <g clip-path="url(#pf03038c5c2)">
     <use style="fill:#3b5b92;fill-opacity:0.4;stroke:#1a1a1a;stroke-opacity:0.4;stroke-width:1.5;" x="210.568633" xlink:href="#C2_0_d912a285eb" y="298.830554"/>
    </g>
    <g clip-path="url(#pf03038c5c2)">
     <use style="fill:#3b5b92;fill-opacity:0.4;stroke:#1a1a1a;stroke-opacity:0.4;stroke-width:1.5;" x="208.589869" xlink:href="#C2_0_d912a285eb" y="250.885358"/>
    </g>
    <g clip-path="url(#pf03038c5c2)">
     <use style="fill:#3b5b92;fill-opacity:0.4;stroke:#1a1a1a;stroke-opacity:0.4;stroke-width:1.5;" x="210.04547" xlink:href="#C2_0_d912a285eb" y="172.255238"/>
    </g>
    <g clip-path="url(#pf03038c5c2)">
     <use style="fill:#3b5b92;fill-opacity:0.4;stroke:#1a1a1a;stroke-opacity:0.4;stroke-width:1.5;" x="214.098925" xlink:href="#C2_0_d912a285eb" y="187.885371"/>
    </g>
    <g clip-path="url(#pf03038c5c2)">
     <use style="fill:#3b5b92;fill-opacity:0.4;stroke:#1a1a1a;stroke-opacity:0.4;stroke-width:1.5;" x="218.016219" xlink:href="#C2_0_d912a285eb" y="229.022349"/>
    </g>
    <g clip-path="url(#pf03038c5c2)">
     <use style="fill:#3b5b92;fill-opacity:0.4;stroke:#1a1a1a;stroke-opacity:0.4;stroke-width:1.5;" x="218.660956" xlink:href="#C2_0_d912a285eb" y="295.47439"/>
    </g>
    <g clip-path="url(#pf03038c5c2)">
     <use style="fill:#3b5b92;fill-opacity:0.4;stroke:#1a1a1a;stroke-opacity:0.4;stroke-width:1.5;" x="212.256491" xlink:href="#C2_0_d912a285eb" y="301.803156"/>
    </g>
    <g clip-path="url(#pf03038c5c2)">
     <use style="fill:#3b5b92;fill-opacity:0.4;stroke:#1a1a1a;stroke-opacity:0.4;stroke-width:1.5;" x="212.513262" xlink:href="#C2_0_d912a285eb" y="248.008647"/>
    </g>
    <g clip-path="url(#pf03038c5c2)">
     <use style="fill:#3b5b92;fill-opacity:0.4;stroke:#1a1a1a;stroke-opacity:0.4;stroke-width:1.5;" x="214.375754" xlink:href="#C2_0_d912a285eb" y="153.077159"/>
    </g>
    <g clip-path="url(#pf03038c5c2)">
     <use style="fill:#3b5b92;fill-opacity:0.4;stroke:#1a1a1a;stroke-opacity:0.4;stroke-width:1.5;" x="208.560714" xlink:href="#C2_0_d912a285eb" y="189.323727"/>
    </g>
    <g clip-path="url(#pf03038c5c2)">
     <use style="fill:#3b5b92;fill-opacity:0.4;stroke:#1a1a1a;stroke-opacity:0.4;stroke-width:1.5;" x="218.34064" xlink:href="#C2_0_d912a285eb" y="221.638789"/>
    </g>
    <g clip-path="url(#pf03038c5c2)">
     <use style="fill:#3b5b92;fill-opacity:0.4;stroke:#1a1a1a;stroke-opacity:0.4;stroke-width:1.5;" x="215.326845" xlink:href="#C2_0_d912a285eb" y="283.248365"/>
    </g>
    <g clip-path="url(#pf03038c5c2)">
     <use style="fill:#3b5b92;fill-opacity:0.4;stroke:#1a1a1a;stroke-opacity:0.4;stroke-width:1.5;" x="214.030245" xlink:href="#C2_0_d912a285eb" y="191.433316"/>
    </g>
    <g clip-path="url(#pf03038c5c2)">
     <use style="fill:#3b5b92;fill-opacity:0.4;stroke:#1a1a1a;stroke-opacity:0.4;stroke-width:1.5;" x="216.179243" xlink:href="#C2_0_d912a285eb" y="196.947013"/>
    </g>
    <g clip-path="url(#pf03038c5c2)">
     <use style="fill:#3b5b92;fill-opacity:0.4;stroke:#1a1a1a;stroke-opacity:0.4;stroke-width:1.5;" x="217.519967" xlink:href="#C2_0_d912a285eb" y="299.789458"/>
    </g>
    <g clip-path="url(#pf03038c5c2)">
     <use style="fill:#3b5b92;fill-opacity:0.4;stroke:#1a1a1a;stroke-opacity:0.4;stroke-width:1.5;" x="215.444905" xlink:href="#C2_0_d912a285eb" y="233.625088"/>
    </g>
    <g clip-path="url(#pf03038c5c2)">
     <use style="fill:#3b5b92;fill-opacity:0.4;stroke:#1a1a1a;stroke-opacity:0.4;stroke-width:1.5;" x="218.202862" xlink:href="#C2_0_d912a285eb" y="263.111383"/>
    </g>
    <g clip-path="url(#pf03038c5c2)">
     <use style="fill:#3b5b92;fill-opacity:0.4;stroke:#1a1a1a;stroke-opacity:0.4;stroke-width:1.5;" x="211.160695" xlink:href="#C2_0_d912a285eb" y="271.741518"/>
    </g>
    <g clip-path="url(#pf03038c5c2)">
     <use style="fill:#3b5b92;fill-opacity:0.4;stroke:#1a1a1a;stroke-opacity:0.4;stroke-width:1.5;" x="217.878417" xlink:href="#C2_0_d912a285eb" y="319.207262"/>
    </g>
    <g clip-path="url(#pf03038c5c2)">
     <use style="fill:#3b5b92;fill-opacity:0.4;stroke:#1a1a1a;stroke-opacity:0.4;stroke-width:1.5;" x="215.248619" xlink:href="#C2_0_d912a285eb" y="252.323714"/>
    </g>
    <g clip-path="url(#pf03038c5c2)">
     <use style="fill:#3b5b92;fill-opacity:0.4;stroke:#1a1a1a;stroke-opacity:0.4;stroke-width:1.5;" x="213.416233" xlink:href="#C2_0_d912a285eb" y="227.967555"/>
    </g>
    <g clip-path="url(#pf03038c5c2)">
     <use style="fill:#3b5b92;fill-opacity:0.4;stroke:#1a1a1a;stroke-opacity:0.4;stroke-width:1.5;" x="210.099963" xlink:href="#C2_0_d912a285eb" y="243.077141"/>
    </g>
   </g>
   <g id="PathCollection_7">
    <defs>
     <path d="M 0 2.5 
C 0.663008 2.5 1.29895 2.236584 1.767767 1.767767 
C 2.236584 1.29895 2.5 0.663008 2.5 0 
C 2.5 -0.663008 2.236584 -1.29895 1.767767 -1.767767 
C 1.29895 -2.236584 0.663008 -2.5 0 -2.5 
C -0.663008 -2.5 -1.29895 -2.236584 -1.767767 -1.767767 
C -2.236584 -1.29895 -2.5 -0.663008 -2.5 0 
C -2.5 0.663008 -2.236584 1.29895 -1.767767 1.767767 
C -1.29895 2.236584 -0.663008 2.5 0 2.5 
z
" id="C3_0_d0c6d03de3"/>
    </defs>
    <g clip-path="url(#pf03038c5c2)">
     <use style="fill:#39ad48;fill-opacity:0.4;stroke:#1a1a1a;stroke-opacity:0.4;stroke-width:1.5;" x="290.407547" xlink:href="#C3_0_d0c6d03de3" y="214.44701"/>
    </g>
    <g clip-path="url(#pf03038c5c2)">
     <use style="fill:#39ad48;fill-opacity:0.4;stroke:#1a1a1a;stroke-opacity:0.4;stroke-width:1.5;" x="289.41434" xlink:href="#C3_0_d0c6d03de3" y="270.159327"/>
    </g>
    <g clip-path="url(#pf03038c5c2)">
     <use style="fill:#39ad48;fill-opacity:0.4;stroke:#1a1a1a;stroke-opacity:0.4;stroke-width:1.5;" x="292.393717" xlink:href="#C3_0_d0c6d03de3" y="254.049741"/>
    </g>
    <g clip-path="url(#pf03038c5c2)">
     <use style="fill:#39ad48;fill-opacity:0.4;stroke:#1a1a1a;stroke-opacity:0.4;stroke-width:1.5;" x="296.808262" xlink:href="#C3_0_d0c6d03de3" y="265.412752"/>
    </g>
    <g clip-path="url(#pf03038c5c2)">
     <use style="fill:#39ad48;fill-opacity:0.4;stroke:#1a1a1a;stroke-opacity:0.4;stroke-width:1.5;" x="289.51993" xlink:href="#C3_0_d0c6d03de3" y="217.803173"/>
    </g>
    <g clip-path="url(#pf03038c5c2)">
     <use style="fill:#39ad48;fill-opacity:0.4;stroke:#1a1a1a;stroke-opacity:0.4;stroke-width:1.5;" x="294.733475" xlink:href="#C3_0_d0c6d03de3" y="200.542903"/>
    </g>
    <g clip-path="url(#pf03038c5c2)">
     <use style="fill:#39ad48;fill-opacity:0.4;stroke:#1a1a1a;stroke-opacity:0.4;stroke-width:1.5;" x="293.205145" xlink:href="#C3_0_d0c6d03de3" y="209.892216"/>
    </g>
    <g clip-path="url(#pf03038c5c2)">
     <use style="fill:#39ad48;fill-opacity:0.4;stroke:#1a1a1a;stroke-opacity:0.4;stroke-width:1.5;" x="296.838025" xlink:href="#C3_0_d0c6d03de3" y="209.892216"/>
    </g>
    <g clip-path="url(#pf03038c5c2)">
     <use style="fill:#39ad48;fill-opacity:0.4;stroke:#1a1a1a;stroke-opacity:0.4;stroke-width:1.5;" x="288.374054" xlink:href="#C3_0_d0c6d03de3" y="159.118254"/>
    </g>
    <g clip-path="url(#pf03038c5c2)">
     <use style="fill:#39ad48;fill-opacity:0.4;stroke:#1a1a1a;stroke-opacity:0.4;stroke-width:1.5;" x="289.423411" xlink:href="#C3_0_d0c6d03de3" y="170.33743"/>
    </g>
    <g clip-path="url(#pf03038c5c2)">
     <use style="fill:#39ad48;fill-opacity:0.4;stroke:#1a1a1a;stroke-opacity:0.4;stroke-width:1.5;" x="291.708245" xlink:href="#C3_0_d0c6d03de3" y="227.440158"/>
    </g>
    <g clip-path="url(#pf03038c5c2)">
     <use style="fill:#39ad48;fill-opacity:0.4;stroke:#1a1a1a;stroke-opacity:0.4;stroke-width:1.5;" x="290.895813" xlink:href="#C3_0_d0c6d03de3" y="66.775808"/>
    </g>
    <g clip-path="url(#pf03038c5c2)">
     <use style="fill:#39ad48;fill-opacity:0.4;stroke:#1a1a1a;stroke-opacity:0.4;stroke-width:1.5;" x="295.337224" xlink:href="#C3_0_d0c6d03de3" y="230.748376"/>
    </g>
    <g clip-path="url(#pf03038c5c2)">
     <use style="fill:#39ad48;fill-opacity:0.4;stroke:#1a1a1a;stroke-opacity:0.4;stroke-width:1.5;" x="295.451958" xlink:href="#C3_0_d0c6d03de3" y="291.159322"/>
    </g>
    <g clip-path="url(#pf03038c5c2)">
     <use style="fill:#39ad48;fill-opacity:0.4;stroke:#1a1a1a;stroke-opacity:0.4;stroke-width:1.5;" x="289.085113" xlink:href="#C3_0_d0c6d03de3" y="277.494942"/>
    </g>
    <g clip-path="url(#pf03038c5c2)">
     <use style="fill:#39ad48;fill-opacity:0.4;stroke:#1a1a1a;stroke-opacity:0.4;stroke-width:1.5;" x="291.458087" xlink:href="#C3_0_d0c6d03de3" y="200.542903"/>
    </g>
    <g clip-path="url(#pf03038c5c2)">
     <use style="fill:#39ad48;fill-opacity:0.4;stroke:#1a1a1a;stroke-opacity:0.4;stroke-width:1.5;" x="294.5252" xlink:href="#C3_0_d0c6d03de3" y="213.200435"/>
    </g>
    <g clip-path="url(#pf03038c5c2)">
     <use style="fill:#39ad48;fill-opacity:0.4;stroke:#1a1a1a;stroke-opacity:0.4;stroke-width:1.5;" x="291.30759" xlink:href="#C3_0_d0c6d03de3" y="208.45386"/>
    </g>
    <g clip-path="url(#pf03038c5c2)">
     <use style="fill:#39ad48;fill-opacity:0.4;stroke:#1a1a1a;stroke-opacity:0.4;stroke-width:1.5;" x="291.459946" xlink:href="#C3_0_d0c6d03de3" y="199.823725"/>
    </g>
    <g clip-path="url(#pf03038c5c2)">
     <use style="fill:#39ad48;fill-opacity:0.4;stroke:#1a1a1a;stroke-opacity:0.4;stroke-width:1.5;" x="286.871925" xlink:href="#C3_0_d0c6d03de3" y="162.426473"/>
    </g>
    <g clip-path="url(#pf03038c5c2)">
     <use style="fill:#39ad48;fill-opacity:0.4;stroke:#1a1a1a;stroke-opacity:0.4;stroke-width:1.5;" x="287.880187" xlink:href="#C3_0_d0c6d03de3" y="169.474416"/>
    </g>
    <g clip-path="url(#pf03038c5c2)">
     <use style="fill:#39ad48;fill-opacity:0.4;stroke:#1a1a1a;stroke-opacity:0.4;stroke-width:1.5;" x="292.074436" xlink:href="#C3_0_d0c6d03de3" y="212.625092"/>
    </g>
    <g clip-path="url(#pf03038c5c2)">
     <use style="fill:#39ad48;fill-opacity:0.4;stroke:#1a1a1a;stroke-opacity:0.4;stroke-width:1.5;" x="288.933847" xlink:href="#C3_0_d0c6d03de3" y="255.919604"/>
    </g>
    <g clip-path="url(#pf03038c5c2)">
     <use style="fill:#39ad48;fill-opacity:0.4;stroke:#1a1a1a;stroke-opacity:0.4;stroke-width:1.5;" x="297.385552" xlink:href="#C3_0_d0c6d03de3" y="214.926462"/>
    </g>
   </g>
   <g id="PathCollection_8">
    <defs>
     <path d="M 0 2.5 
C 0.663008 2.5 1.29895 2.236584 1.767767 1.767767 
C 2.236584 1.29895 2.5 0.663008 2.5 0 
C 2.5 -0.663008 2.236584 -1.29895 1.767767 -1.767767 
C 1.29895 -2.236584 0.663008 -2.5 0 -2.5 
C -0.663008 -2.5 -1.29895 -2.236584 -1.767767 -1.767767 
C -2.236584 -1.29895 -2.5 -0.663008 -2.5 0 
C -2.5 0.663008 -2.236584 1.29895 -1.767767 1.767767 
C -1.29895 2.236584 -0.663008 2.5 0 2.5 
z
" id="C4_0_3226ea9fb5"/>
    </defs>
    <g clip-path="url(#pf03038c5c2)">
     <use style="fill:#d9544d;fill-opacity:0.4;stroke:#1a1a1a;stroke-opacity:0.4;stroke-width:1.5;" x="341.233596" xlink:href="#C4_0_3226ea9fb5" y="254.481248"/>
    </g>
    <g clip-path="url(#pf03038c5c2)">
     <use style="fill:#d9544d;fill-opacity:0.4;stroke:#1a1a1a;stroke-opacity:0.4;stroke-width:1.5;" x="332.669886" xlink:href="#C4_0_3226ea9fb5" y="214.782626"/>
    </g>
    <g clip-path="url(#pf03038c5c2)">
     <use style="fill:#d9544d;fill-opacity:0.4;stroke:#1a1a1a;stroke-opacity:0.4;stroke-width:1.5;" x="341.086655" xlink:href="#C4_0_3226ea9fb5" y="173.789484"/>
    </g>
    <g clip-path="url(#pf03038c5c2)">
     <use style="fill:#d9544d;fill-opacity:0.4;stroke:#1a1a1a;stroke-opacity:0.4;stroke-width:1.5;" x="334.091595" xlink:href="#C4_0_3226ea9fb5" y="255.128508"/>
    </g>
    <g clip-path="url(#pf03038c5c2)">
     <use style="fill:#d9544d;fill-opacity:0.4;stroke:#1a1a1a;stroke-opacity:0.4;stroke-width:1.5;" x="342.083102" xlink:href="#C4_0_3226ea9fb5" y="184.720988"/>
    </g>
    <g clip-path="url(#pf03038c5c2)">
     <use style="fill:#d9544d;fill-opacity:0.4;stroke:#1a1a1a;stroke-opacity:0.4;stroke-width:1.5;" x="336.198624" xlink:href="#C4_0_3226ea9fb5" y="124.310042"/>
    </g>
    <g clip-path="url(#pf03038c5c2)">
     <use style="fill:#d9544d;fill-opacity:0.4;stroke:#1a1a1a;stroke-opacity:0.4;stroke-width:1.5;" x="336.658741" xlink:href="#C4_0_3226ea9fb5" y="271.981244"/>
    </g>
    <g clip-path="url(#pf03038c5c2)">
     <use style="fill:#d9544d;fill-opacity:0.4;stroke:#1a1a1a;stroke-opacity:0.4;stroke-width:1.5;" x="342.595514" xlink:href="#C4_0_3226ea9fb5" y="248.008647"/>
    </g>
    <g clip-path="url(#pf03038c5c2)">
     <use style="fill:#d9544d;fill-opacity:0.4;stroke:#1a1a1a;stroke-opacity:0.4;stroke-width:1.5;" x="341.235761" xlink:href="#C4_0_3226ea9fb5" y="249.734674"/>
    </g>
    <g clip-path="url(#pf03038c5c2)">
     <use style="fill:#d9544d;fill-opacity:0.4;stroke:#1a1a1a;stroke-opacity:0.4;stroke-width:1.5;" x="335.881945" xlink:href="#C4_0_3226ea9fb5" y="182.084003"/>
    </g>
    <g clip-path="url(#pf03038c5c2)">
     <use style="fill:#d9544d;fill-opacity:0.4;stroke:#1a1a1a;stroke-opacity:0.4;stroke-width:1.5;" x="342.074465" xlink:href="#C4_0_3226ea9fb5" y="271.741518"/>
    </g>
    <g clip-path="url(#pf03038c5c2)">
     <use style="fill:#d9544d;fill-opacity:0.4;stroke:#1a1a1a;stroke-opacity:0.4;stroke-width:1.5;" x="335.559899" xlink:href="#C4_0_3226ea9fb5" y="66.584027"/>
    </g>
    <g clip-path="url(#pf03038c5c2)">
     <use style="fill:#d9544d;fill-opacity:0.4;stroke:#1a1a1a;stroke-opacity:0.4;stroke-width:1.5;" x="332.444684" xlink:href="#C4_0_3226ea9fb5" y="219.5292"/>
    </g>
    <g clip-path="url(#pf03038c5c2)">
     <use style="fill:#d9544d;fill-opacity:0.4;stroke:#1a1a1a;stroke-opacity:0.4;stroke-width:1.5;" x="335.077658" xlink:href="#C4_0_3226ea9fb5" y="226.91276"/>
    </g>
    <g clip-path="url(#pf03038c5c2)">
     <use style="fill:#d9544d;fill-opacity:0.4;stroke:#1a1a1a;stroke-opacity:0.4;stroke-width:1.5;" x="342.624209" xlink:href="#C4_0_3226ea9fb5" y="179.830579"/>
    </g>
    <g clip-path="url(#pf03038c5c2)">
     <use style="fill:#d9544d;fill-opacity:0.4;stroke:#1a1a1a;stroke-opacity:0.4;stroke-width:1.5;" x="333.815414" xlink:href="#C4_0_3226ea9fb5" y="192.631946"/>
    </g>
    <g clip-path="url(#pf03038c5c2)">
     <use style="fill:#d9544d;fill-opacity:0.4;stroke:#1a1a1a;stroke-opacity:0.4;stroke-width:1.5;" x="342.593318" xlink:href="#C4_0_3226ea9fb5" y="216.364817"/>
    </g>
    <g clip-path="url(#pf03038c5c2)">
     <use style="fill:#d9544d;fill-opacity:0.4;stroke:#1a1a1a;stroke-opacity:0.4;stroke-width:1.5;" x="341.826309" xlink:href="#C4_0_3226ea9fb5" y="276.056586"/>
    </g>
    <g clip-path="url(#pf03038c5c2)">
     <use style="fill:#d9544d;fill-opacity:0.4;stroke:#1a1a1a;stroke-opacity:0.4;stroke-width:1.5;" x="336.568562" xlink:href="#C4_0_3226ea9fb5" y="254.337412"/>
    </g>
    <g clip-path="url(#pf03038c5c2)">
     <use style="fill:#d9544d;fill-opacity:0.4;stroke:#1a1a1a;stroke-opacity:0.4;stroke-width:1.5;" x="338.507092" xlink:href="#C4_0_3226ea9fb5" y="184.001811"/>
    </g>
    <g clip-path="url(#pf03038c5c2)">
     <use style="fill:#d9544d;fill-opacity:0.4;stroke:#1a1a1a;stroke-opacity:0.4;stroke-width:1.5;" x="339.145844" xlink:href="#C4_0_3226ea9fb5" y="224.275775"/>
    </g>
    <g clip-path="url(#pf03038c5c2)">
     <use style="fill:#d9544d;fill-opacity:0.4;stroke:#1a1a1a;stroke-opacity:0.4;stroke-width:1.5;" x="335.147639" xlink:href="#C4_0_3226ea9fb5" y="191.19359"/>
    </g>
    <g clip-path="url(#pf03038c5c2)">
     <use style="fill:#d9544d;fill-opacity:0.4;stroke:#1a1a1a;stroke-opacity:0.4;stroke-width:1.5;" x="337.670298" xlink:href="#C4_0_3226ea9fb5" y="217.083995"/>
    </g>
    <g clip-path="url(#pf03038c5c2)">
     <use style="fill:#d9544d;fill-opacity:0.4;stroke:#1a1a1a;stroke-opacity:0.4;stroke-width:1.5;" x="341.273048" xlink:href="#C4_0_3226ea9fb5" y="226.91276"/>
    </g>
   </g>
   <g id="PathCollection_9">
    <defs>
     <path d="M 0 2.5 
C 0.663008 2.5 1.29895 2.236584 1.767767 1.767767 
C 2.236584 1.29895 2.5 0.663008 2.5 0 
C 2.5 -0.663008 2.236584 -1.29895 1.767767 -1.767767 
C 1.29895 -2.236584 0.663008 -2.5 0 -2.5 
C -0.663008 -2.5 -1.29895 -2.236584 -1.767767 -1.767767 
C -2.236584 -1.29895 -2.5 -0.663008 -2.5 0 
C -2.5 0.663008 -2.236584 1.29895 -1.767767 1.767767 
C -1.29895 2.236584 -0.663008 2.5 0 2.5 
z
" id="C5_0_1a3deaeae5"/>
    </defs>
    <g clip-path="url(#pf03038c5c2)">
     <use style="fill:#3b5b92;fill-opacity:0.4;stroke:#1a1a1a;stroke-opacity:0.4;stroke-width:1.5;" x="377.59973" xlink:href="#C5_0_1a3deaeae5" y="213.488106"/>
    </g>
    <g clip-path="url(#pf03038c5c2)">
     <use style="fill:#3b5b92;fill-opacity:0.4;stroke:#1a1a1a;stroke-opacity:0.4;stroke-width:1.5;" x="384.607215" xlink:href="#C5_0_1a3deaeae5" y="333.446985"/>
    </g>
    <g clip-path="url(#pf03038c5c2)">
     <use style="fill:#3b5b92;fill-opacity:0.4;stroke:#1a1a1a;stroke-opacity:0.4;stroke-width:1.5;" x="378.904347" xlink:href="#C5_0_1a3deaeae5" y="159.549761"/>
    </g>
    <g clip-path="url(#pf03038c5c2)">
     <use style="fill:#3b5b92;fill-opacity:0.4;stroke:#1a1a1a;stroke-opacity:0.4;stroke-width:1.5;" x="385.772326" xlink:href="#C5_0_1a3deaeae5" y="250.26892"/>
    </g>
    <g clip-path="url(#pf03038c5c2)">
     <use style="fill:#3b5b92;fill-opacity:0.4;stroke:#1a1a1a;stroke-opacity:0.4;stroke-width:1.5;" x="387.886304" xlink:href="#C5_0_1a3deaeae5" y="248.008647"/>
    </g>
    <g clip-path="url(#pf03038c5c2)">
     <use style="fill:#3b5b92;fill-opacity:0.4;stroke:#1a1a1a;stroke-opacity:0.4;stroke-width:1.5;" x="376.900032" xlink:href="#C5_0_1a3deaeae5" y="168.899074"/>
    </g>
    <g clip-path="url(#pf03038c5c2)">
     <use style="fill:#3b5b92;fill-opacity:0.4;stroke:#1a1a1a;stroke-opacity:0.4;stroke-width:1.5;" x="377.327674" xlink:href="#C5_0_1a3deaeae5" y="243.262072"/>
    </g>
    <g clip-path="url(#pf03038c5c2)">
     <use style="fill:#3b5b92;fill-opacity:0.4;stroke:#1a1a1a;stroke-opacity:0.4;stroke-width:1.5;" x="377.664343" xlink:href="#C5_0_1a3deaeae5" y="251.173029"/>
    </g>
    <g clip-path="url(#pf03038c5c2)">
     <use style="fill:#3b5b92;fill-opacity:0.4;stroke:#1a1a1a;stroke-opacity:0.4;stroke-width:1.5;" x="381.94841" xlink:href="#C5_0_1a3deaeae5" y="230.748376"/>
    </g>
    <g clip-path="url(#pf03038c5c2)">
     <use style="fill:#3b5b92;fill-opacity:0.4;stroke:#1a1a1a;stroke-opacity:0.4;stroke-width:1.5;" x="380.639114" xlink:href="#C5_0_1a3deaeae5" y="192.631946"/>
    </g>
    <g clip-path="url(#pf03038c5c2)">
     <use style="fill:#3b5b92;fill-opacity:0.4;stroke:#1a1a1a;stroke-opacity:0.4;stroke-width:1.5;" x="384.799997" xlink:href="#C5_0_1a3deaeae5" y="279.077133"/>
    </g>
    <g clip-path="url(#pf03038c5c2)">
     <use style="fill:#3b5b92;fill-opacity:0.4;stroke:#1a1a1a;stroke-opacity:0.4;stroke-width:1.5;" x="387.82785" xlink:href="#C5_0_1a3deaeae5" y="175.22784"/>
    </g>
    <g clip-path="url(#pf03038c5c2)">
     <use style="fill:#3b5b92;fill-opacity:0.4;stroke:#1a1a1a;stroke-opacity:0.4;stroke-width:1.5;" x="378.368122" xlink:href="#C5_0_1a3deaeae5" y="257.501795"/>
    </g>
    <g clip-path="url(#pf03038c5c2)">
     <use style="fill:#3b5b92;fill-opacity:0.4;stroke:#1a1a1a;stroke-opacity:0.4;stroke-width:1.5;" x="387.508596" xlink:href="#C5_0_1a3deaeae5" y="233.768923"/>
    </g>
    <g clip-path="url(#pf03038c5c2)">
     <use style="fill:#3b5b92;fill-opacity:0.4;stroke:#1a1a1a;stroke-opacity:0.4;stroke-width:1.5;" x="381.450017" xlink:href="#C5_0_1a3deaeae5" y="225.354542"/>
    </g>
    <g clip-path="url(#pf03038c5c2)">
     <use style="fill:#3b5b92;fill-opacity:0.4;stroke:#1a1a1a;stroke-opacity:0.4;stroke-width:1.5;" x="379.518288" xlink:href="#C5_0_1a3deaeae5" y="221.399063"/>
    </g>
    <g clip-path="url(#pf03038c5c2)">
     <use style="fill:#3b5b92;fill-opacity:0.4;stroke:#1a1a1a;stroke-opacity:0.4;stroke-width:1.5;" x="382.588184" xlink:href="#C5_0_1a3deaeae5" y="239.378511"/>
    </g>
    <g clip-path="url(#pf03038c5c2)">
     <use style="fill:#3b5b92;fill-opacity:0.4;stroke:#1a1a1a;stroke-opacity:0.4;stroke-width:1.5;" x="382.317655" xlink:href="#C5_0_1a3deaeae5" y="196.227835"/>
    </g>
    <g clip-path="url(#pf03038c5c2)">
     <use style="fill:#3b5b92;fill-opacity:0.4;stroke:#1a1a1a;stroke-opacity:0.4;stroke-width:1.5;" x="378.73996" xlink:href="#C5_0_1a3deaeae5" y="232.186732"/>
    </g>
    <g clip-path="url(#pf03038c5c2)">
     <use style="fill:#3b5b92;fill-opacity:0.4;stroke:#1a1a1a;stroke-opacity:0.4;stroke-width:1.5;" x="379.81577" xlink:href="#C5_0_1a3deaeae5" y="210.611394"/>
    </g>
    <g clip-path="url(#pf03038c5c2)">
     <use style="fill:#3b5b92;fill-opacity:0.4;stroke:#1a1a1a;stroke-opacity:0.4;stroke-width:1.5;" x="386.868174" xlink:href="#C5_0_1a3deaeae5" y="240.097689"/>
    </g>
    <g clip-path="url(#pf03038c5c2)">
     <use style="fill:#3b5b92;fill-opacity:0.4;stroke:#1a1a1a;stroke-opacity:0.4;stroke-width:1.5;" x="380.485988" xlink:href="#C5_0_1a3deaeae5" y="230.748376"/>
    </g>
    <g clip-path="url(#pf03038c5c2)">
     <use style="fill:#3b5b92;fill-opacity:0.4;stroke:#1a1a1a;stroke-opacity:0.4;stroke-width:1.5;" x="381.854272" xlink:href="#C5_0_1a3deaeae5" y="199.104547"/>
    </g>
    <g clip-path="url(#pf03038c5c2)">
     <use style="fill:#3b5b92;fill-opacity:0.4;stroke:#1a1a1a;stroke-opacity:0.4;stroke-width:1.5;" x="382.604086" xlink:href="#C5_0_1a3deaeae5" y="264.310013"/>
    </g>
   </g>
   <g id="text_11">
    <!-- * -->
    <defs>
     <path d="M 11.96875 38.671875 
L 4.59375 44.390625 
Q 8.109375 48.34375 11.921875 51.953125 
Q 13.421875 53.421875 13.8125 53.8125 
Q 12.59375 54 6.84375 55.421875 
Q 2.6875 56.453125 1.375 56.9375 
L 4.25 65.53125 
Q 10.640625 62.9375 15.671875 59.8125 
Q 14.5 67.78125 14.5 72.796875 
L 23.1875 72.796875 
Q 23.1875 69.234375 21.875 59.71875 
Q 22.859375 60.109375 26.078125 61.625 
Q 30.46875 63.625 34.1875 65.046875 
L 36.765625 56.203125 
Q 31.34375 54.984375 24.21875 53.8125 
L 30.078125 47.21875 
Q 31.84375 45.21875 32.859375 43.953125 
L 25.390625 39.015625 
L 18.796875 49.90625 
Q 15.828125 44.625 11.96875 38.671875 
z
" id="Arial-BoldMT-42"/>
    </defs>
    <g style="fill:#1a1a1a;" transform="translate(353.23343 32.252344)scale(0.35 -0.35)">
     <use xlink:href="#Arial-BoldMT-42"/>
    </g>
   </g>
   <g id="legend_1">
    <g id="patch_11">
     <path d="M 96.822031 199.814842 
L 216.552734 199.814842 
Q 219.852734 199.814842 219.852734 196.514842 
L 219.852734 35.88392 
Q 219.852734 32.58392 216.552734 32.58392 
L 96.822031 32.58392 
Q 93.522031 32.58392 93.522031 35.88392 
L 93.522031 196.514842 
Q 93.522031 199.814842 96.822031 199.814842 
z
" style="fill:#ffffff;opacity:0.8;stroke:#cccccc;stroke-linejoin:miter;stroke-width:1.5;"/>
    </g>
    <g id="text_12">
     <!-- Condition -->
     <defs>
      <path d="M 58.796875 25.09375 
L 68.265625 22.703125 
Q 65.28125 11.03125 57.546875 4.90625 
Q 49.8125 -1.21875 38.625 -1.21875 
Q 27.046875 -1.21875 19.796875 3.484375 
Q 12.546875 8.203125 8.765625 17.140625 
Q 4.984375 26.078125 4.984375 36.328125 
Q 4.984375 47.515625 9.25 55.828125 
Q 13.53125 64.15625 21.40625 68.46875 
Q 29.296875 72.796875 38.765625 72.796875 
Q 49.515625 72.796875 56.828125 67.328125 
Q 64.15625 61.859375 67.046875 51.953125 
L 57.71875 49.75 
Q 55.21875 57.5625 50.484375 61.125 
Q 45.75 64.703125 38.578125 64.703125 
Q 30.328125 64.703125 24.78125 60.734375 
Q 19.234375 56.78125 16.984375 50.109375 
Q 14.75 43.453125 14.75 36.375 
Q 14.75 27.25 17.40625 20.4375 
Q 20.0625 13.625 25.671875 10.25 
Q 31.296875 6.890625 37.84375 6.890625 
Q 45.796875 6.890625 51.3125 11.46875 
Q 56.84375 16.0625 58.796875 25.09375 
z
" id="ArialMT-67"/>
      <path d="M 3.328125 25.921875 
Q 3.328125 40.328125 11.328125 47.265625 
Q 18.015625 53.03125 27.640625 53.03125 
Q 38.328125 53.03125 45.109375 46.015625 
Q 51.90625 39.015625 51.90625 26.65625 
Q 51.90625 16.65625 48.90625 10.90625 
Q 45.90625 5.171875 40.15625 2 
Q 34.421875 -1.171875 27.640625 -1.171875 
Q 16.75 -1.171875 10.03125 5.8125 
Q 3.328125 12.796875 3.328125 25.921875 
z
M 12.359375 25.921875 
Q 12.359375 15.96875 16.703125 11.015625 
Q 21.046875 6.0625 27.640625 6.0625 
Q 34.1875 6.0625 38.53125 11.03125 
Q 42.875 16.015625 42.875 26.21875 
Q 42.875 35.84375 38.5 40.796875 
Q 34.125 45.75 27.640625 45.75 
Q 21.046875 45.75 16.703125 40.8125 
Q 12.359375 35.890625 12.359375 25.921875 
z
" id="ArialMT-111"/>
      <path d="M 6.59375 0 
L 6.59375 51.859375 
L 14.5 51.859375 
L 14.5 44.484375 
Q 20.21875 53.03125 31 53.03125 
Q 35.6875 53.03125 39.625 51.34375 
Q 43.5625 49.65625 45.515625 46.921875 
Q 47.46875 44.1875 48.25 40.4375 
Q 48.734375 37.984375 48.734375 31.890625 
L 48.734375 0 
L 39.9375 0 
L 39.9375 31.546875 
Q 39.9375 36.921875 38.90625 39.578125 
Q 37.890625 42.234375 35.28125 43.8125 
Q 32.671875 45.40625 29.15625 45.40625 
Q 23.53125 45.40625 19.453125 41.84375 
Q 15.375 38.28125 15.375 28.328125 
L 15.375 0 
z
" id="ArialMT-110"/>
      <path d="M 40.234375 0 
L 40.234375 6.546875 
Q 35.296875 -1.171875 25.734375 -1.171875 
Q 19.53125 -1.171875 14.328125 2.25 
Q 9.125 5.671875 6.265625 11.796875 
Q 3.421875 17.921875 3.421875 25.875 
Q 3.421875 33.640625 6 39.96875 
Q 8.59375 46.296875 13.765625 49.65625 
Q 18.953125 53.03125 25.34375 53.03125 
Q 30.03125 53.03125 33.6875 51.046875 
Q 37.359375 49.078125 39.65625 45.90625 
L 39.65625 71.578125 
L 48.390625 71.578125 
L 48.390625 0 
z
M 12.453125 25.875 
Q 12.453125 15.921875 16.640625 10.984375 
Q 20.84375 6.0625 26.5625 6.0625 
Q 32.328125 6.0625 36.34375 10.765625 
Q 40.375 15.484375 40.375 25.140625 
Q 40.375 35.796875 36.265625 40.765625 
Q 32.171875 45.75 26.171875 45.75 
Q 20.3125 45.75 16.375 40.96875 
Q 12.453125 36.1875 12.453125 25.875 
z
" id="ArialMT-100"/>
      <path d="M 6.640625 61.46875 
L 6.640625 71.578125 
L 15.4375 71.578125 
L 15.4375 61.46875 
z
M 6.640625 0 
L 6.640625 51.859375 
L 15.4375 51.859375 
L 15.4375 0 
z
" id="ArialMT-105"/>
      <path d="M 25.78125 7.859375 
L 27.046875 0.09375 
Q 23.34375 -0.6875 20.40625 -0.6875 
Q 15.625 -0.6875 12.984375 0.828125 
Q 10.359375 2.34375 9.28125 4.8125 
Q 8.203125 7.28125 8.203125 15.1875 
L 8.203125 45.015625 
L 1.765625 45.015625 
L 1.765625 51.859375 
L 8.203125 51.859375 
L 8.203125 64.703125 
L 16.9375 69.96875 
L 16.9375 51.859375 
L 25.78125 51.859375 
L 25.78125 45.015625 
L 16.9375 45.015625 
L 16.9375 14.703125 
Q 16.9375 10.9375 17.40625 9.859375 
Q 17.875 8.796875 18.921875 8.15625 
Q 19.96875 7.515625 21.921875 7.515625 
Q 23.390625 7.515625 25.78125 7.859375 
z
" id="ArialMT-116"/>
     </defs>
     <g style="fill:#262626;" transform="translate(124.367328 50.135374)scale(0.153 -0.153)">
      <use xlink:href="#ArialMT-67"/>
      <use x="72.216797" xlink:href="#ArialMT-111"/>
      <use x="127.832031" xlink:href="#ArialMT-110"/>
      <use x="183.447266" xlink:href="#ArialMT-100"/>
      <use x="239.0625" xlink:href="#ArialMT-105"/>
      <use x="261.279297" xlink:href="#ArialMT-116"/>
      <use x="289.0625" xlink:href="#ArialMT-105"/>
      <use x="311.279297" xlink:href="#ArialMT-111"/>
      <use x="366.894531" xlink:href="#ArialMT-110"/>
     </g>
    </g>
    <g id="PathCollection_10">
     <defs>
      <path d="M 0 3.872983 
C 1.027127 3.872983 2.012324 3.464901 2.738613 2.738613 
C 3.464901 2.012324 3.872983 1.027127 3.872983 0 
C 3.872983 -1.027127 3.464901 -2.012324 2.738613 -2.738613 
C 2.012324 -3.464901 1.027127 -3.872983 0 -3.872983 
C -1.027127 -3.872983 -2.012324 -3.464901 -2.738613 -2.738613 
C -3.464901 -2.012324 -3.872983 -1.027127 -3.872983 0 
C -3.872983 1.027127 -3.464901 2.012324 -2.738613 2.738613 
C -2.012324 3.464901 -1.027127 3.872983 0 3.872983 
z
" id="mcef44897e1" style="stroke:#39ad48;stroke-width:1.5;"/>
     </defs>
     <g>
      <use style="fill:#39ad48;stroke:#39ad48;stroke-width:1.5;" x="116.622031" xlink:href="#mcef44897e1" y="68.905389"/>
     </g>
    </g>
    <g id="text_13">
     <!-- Think -->
     <defs>
      <path d="M 25.921875 0 
L 25.921875 63.140625 
L 2.34375 63.140625 
L 2.34375 71.578125 
L 59.078125 71.578125 
L 59.078125 63.140625 
L 35.40625 63.140625 
L 35.40625 0 
z
" id="ArialMT-84"/>
      <path d="M 6.59375 0 
L 6.59375 71.578125 
L 15.375 71.578125 
L 15.375 45.90625 
Q 21.53125 53.03125 30.90625 53.03125 
Q 36.671875 53.03125 40.921875 50.75 
Q 45.171875 48.484375 47 44.484375 
Q 48.828125 40.484375 48.828125 32.859375 
L 48.828125 0 
L 40.046875 0 
L 40.046875 32.859375 
Q 40.046875 39.453125 37.1875 42.453125 
Q 34.328125 45.453125 29.109375 45.453125 
Q 25.203125 45.453125 21.75 43.421875 
Q 18.3125 41.40625 16.84375 37.9375 
Q 15.375 34.46875 15.375 28.375 
L 15.375 0 
z
" id="ArialMT-104"/>
      <path d="M 6.640625 0 
L 6.640625 71.578125 
L 15.4375 71.578125 
L 15.4375 30.765625 
L 36.234375 51.859375 
L 47.609375 51.859375 
L 27.78125 32.625 
L 49.609375 0 
L 38.765625 0 
L 21.625 26.515625 
L 15.4375 20.5625 
L 15.4375 0 
z
" id="ArialMT-107"/>
     </defs>
     <g style="fill:#262626;" transform="translate(146.322031 73.236639)scale(0.165 -0.165)">
      <use xlink:href="#ArialMT-84"/>
      <use x="61.083984" xlink:href="#ArialMT-104"/>
      <use x="116.699219" xlink:href="#ArialMT-105"/>
      <use x="138.916016" xlink:href="#ArialMT-110"/>
      <use x="194.53125" xlink:href="#ArialMT-107"/>
     </g>
    </g>
    <g id="PathCollection_11">
     <defs>
      <path d="M 0 3.872983 
C 1.027127 3.872983 2.012324 3.464901 2.738613 2.738613 
C 3.464901 2.012324 3.872983 1.027127 3.872983 0 
C 3.872983 -1.027127 3.464901 -2.012324 2.738613 -2.738613 
C 2.012324 -3.464901 1.027127 -3.872983 0 -3.872983 
C -1.027127 -3.872983 -2.012324 -3.464901 -2.738613 -2.738613 
C -3.464901 -2.012324 -3.872983 -1.027127 -3.872983 0 
C -3.872983 1.027127 -3.464901 2.012324 -2.738613 2.738613 
C -2.012324 3.464901 -1.027127 3.872983 0 3.872983 
z
" id="m80214f4fea" style="stroke:#d9544d;stroke-width:1.5;"/>
     </defs>
     <g>
      <use style="fill:#d9544d;stroke:#d9544d;stroke-width:1.5;" x="116.622031" xlink:href="#m80214f4fea" y="92.245155"/>
     </g>
    </g>
    <g id="text_14">
     <!-- No-Think -->
     <defs>
      <path d="M 7.625 0 
L 7.625 71.578125 
L 17.328125 71.578125 
L 54.9375 15.375 
L 54.9375 71.578125 
L 64.015625 71.578125 
L 64.015625 0 
L 54.296875 0 
L 16.703125 56.25 
L 16.703125 0 
z
" id="ArialMT-78"/>
      <path d="M 3.171875 21.484375 
L 3.171875 30.328125 
L 30.171875 30.328125 
L 30.171875 21.484375 
z
" id="ArialMT-45"/>
     </defs>
     <g style="fill:#262626;" transform="translate(146.322031 96.576405)scale(0.165 -0.165)">
      <use xlink:href="#ArialMT-78"/>
      <use x="72.216797" xlink:href="#ArialMT-111"/>
      <use x="127.832031" xlink:href="#ArialMT-45"/>
      <use x="161.132812" xlink:href="#ArialMT-84"/>
      <use x="222.216797" xlink:href="#ArialMT-104"/>
      <use x="277.832031" xlink:href="#ArialMT-105"/>
      <use x="300.048828" xlink:href="#ArialMT-110"/>
      <use x="355.664062" xlink:href="#ArialMT-107"/>
     </g>
    </g>
    <g id="PathCollection_12">
     <defs>
      <path d="M 0 3.872983 
C 1.027127 3.872983 2.012324 3.464901 2.738613 2.738613 
C 3.464901 2.012324 3.872983 1.027127 3.872983 0 
C 3.872983 -1.027127 3.464901 -2.012324 2.738613 -2.738613 
C 2.012324 -3.464901 1.027127 -3.872983 0 -3.872983 
C -1.027127 -3.872983 -2.012324 -3.464901 -2.738613 -2.738613 
C -3.464901 -2.012324 -3.872983 -1.027127 -3.872983 0 
C -3.872983 1.027127 -3.464901 2.012324 -2.738613 2.738613 
C -2.012324 3.464901 -1.027127 3.872983 0 3.872983 
z
" id="m813275bb9f" style="stroke:#3b5b92;stroke-width:1.5;"/>
     </defs>
     <g>
      <use style="fill:#3b5b92;stroke:#3b5b92;stroke-width:1.5;" x="116.622031" xlink:href="#m813275bb9f" y="115.58492"/>
     </g>
    </g>
    <g id="text_15">
     <!-- Baseline -->
     <defs>
      <path d="M 7.328125 0 
L 7.328125 71.578125 
L 34.1875 71.578125 
Q 42.390625 71.578125 47.34375 69.40625 
Q 52.296875 67.234375 55.09375 62.71875 
Q 57.90625 58.203125 57.90625 53.265625 
Q 57.90625 48.6875 55.421875 44.625 
Q 52.9375 40.578125 47.90625 38.09375 
Q 54.390625 36.1875 57.875 31.59375 
Q 61.375 27 61.375 20.75 
Q 61.375 15.71875 59.25 11.390625 
Q 57.125 7.078125 54 4.734375 
Q 50.875 2.390625 46.15625 1.1875 
Q 41.453125 0 34.625 0 
z
M 16.796875 41.5 
L 32.28125 41.5 
Q 38.578125 41.5 41.3125 42.328125 
Q 44.921875 43.40625 46.75 45.890625 
Q 48.578125 48.390625 48.578125 52.15625 
Q 48.578125 55.71875 46.875 58.421875 
Q 45.171875 61.140625 41.984375 62.140625 
Q 38.8125 63.140625 31.109375 63.140625 
L 16.796875 63.140625 
z
M 16.796875 8.453125 
L 34.625 8.453125 
Q 39.203125 8.453125 41.0625 8.796875 
Q 44.34375 9.375 46.53125 10.734375 
Q 48.734375 12.109375 50.140625 14.71875 
Q 51.5625 17.328125 51.5625 20.75 
Q 51.5625 24.75 49.515625 27.703125 
Q 47.46875 30.671875 43.828125 31.859375 
Q 40.1875 33.0625 33.34375 33.0625 
L 16.796875 33.0625 
z
" id="ArialMT-66"/>
      <path d="M 40.4375 6.390625 
Q 35.546875 2.25 31.03125 0.53125 
Q 26.515625 -1.171875 21.34375 -1.171875 
Q 12.796875 -1.171875 8.203125 3 
Q 3.609375 7.171875 3.609375 13.671875 
Q 3.609375 17.484375 5.34375 20.625 
Q 7.078125 23.78125 9.890625 25.6875 
Q 12.703125 27.59375 16.21875 28.5625 
Q 18.796875 29.25 24.03125 29.890625 
Q 34.671875 31.15625 39.703125 32.90625 
Q 39.75 34.71875 39.75 35.203125 
Q 39.75 40.578125 37.25 42.78125 
Q 33.890625 45.75 27.25 45.75 
Q 21.046875 45.75 18.09375 43.578125 
Q 15.140625 41.40625 13.71875 35.890625 
L 5.125 37.0625 
Q 6.296875 42.578125 8.984375 45.96875 
Q 11.671875 49.359375 16.75 51.1875 
Q 21.828125 53.03125 28.515625 53.03125 
Q 35.15625 53.03125 39.296875 51.46875 
Q 43.453125 49.90625 45.40625 47.53125 
Q 47.359375 45.171875 48.140625 41.546875 
Q 48.578125 39.3125 48.578125 33.453125 
L 48.578125 21.734375 
Q 48.578125 9.46875 49.140625 6.21875 
Q 49.703125 2.984375 51.375 0 
L 42.1875 0 
Q 40.828125 2.734375 40.4375 6.390625 
z
M 39.703125 26.03125 
Q 34.90625 24.078125 25.34375 22.703125 
Q 19.921875 21.921875 17.671875 20.9375 
Q 15.4375 19.96875 14.203125 18.09375 
Q 12.984375 16.21875 12.984375 13.921875 
Q 12.984375 10.40625 15.640625 8.0625 
Q 18.3125 5.71875 23.4375 5.71875 
Q 28.515625 5.71875 32.46875 7.9375 
Q 36.421875 10.15625 38.28125 14.015625 
Q 39.703125 17 39.703125 22.796875 
z
" id="ArialMT-97"/>
      <path d="M 3.078125 15.484375 
L 11.765625 16.84375 
Q 12.5 11.625 15.84375 8.84375 
Q 19.1875 6.0625 25.203125 6.0625 
Q 31.25 6.0625 34.171875 8.515625 
Q 37.109375 10.984375 37.109375 14.3125 
Q 37.109375 17.28125 34.515625 19 
Q 32.71875 20.171875 25.53125 21.96875 
Q 15.875 24.421875 12.140625 26.203125 
Q 8.40625 27.984375 6.46875 31.125 
Q 4.546875 34.28125 4.546875 38.09375 
Q 4.546875 41.546875 6.125 44.5 
Q 7.71875 47.46875 10.453125 49.421875 
Q 12.5 50.921875 16.03125 51.96875 
Q 19.578125 53.03125 23.640625 53.03125 
Q 29.734375 53.03125 34.34375 51.265625 
Q 38.96875 49.515625 41.15625 46.5 
Q 43.359375 43.5 44.1875 38.484375 
L 35.59375 37.3125 
Q 35.015625 41.3125 32.203125 43.546875 
Q 29.390625 45.796875 24.265625 45.796875 
Q 18.21875 45.796875 15.625 43.796875 
Q 13.03125 41.796875 13.03125 39.109375 
Q 13.03125 37.40625 14.109375 36.03125 
Q 15.1875 34.625 17.484375 33.6875 
Q 18.796875 33.203125 25.25 31.453125 
Q 34.578125 28.953125 38.25 27.359375 
Q 41.9375 25.78125 44.03125 22.75 
Q 46.140625 19.734375 46.140625 15.234375 
Q 46.140625 10.84375 43.578125 6.953125 
Q 41.015625 3.078125 36.171875 0.953125 
Q 31.34375 -1.171875 25.25 -1.171875 
Q 15.140625 -1.171875 9.84375 3.03125 
Q 4.546875 7.234375 3.078125 15.484375 
z
" id="ArialMT-115"/>
      <path d="M 42.09375 16.703125 
L 51.171875 15.578125 
Q 49.03125 7.625 43.21875 3.21875 
Q 37.40625 -1.171875 28.375 -1.171875 
Q 17 -1.171875 10.328125 5.828125 
Q 3.65625 12.84375 3.65625 25.484375 
Q 3.65625 38.578125 10.390625 45.796875 
Q 17.140625 53.03125 27.875 53.03125 
Q 38.28125 53.03125 44.875 45.953125 
Q 51.46875 38.875 51.46875 26.03125 
Q 51.46875 25.25 51.421875 23.6875 
L 12.75 23.6875 
Q 13.234375 15.140625 17.578125 10.59375 
Q 21.921875 6.0625 28.421875 6.0625 
Q 33.25 6.0625 36.671875 8.59375 
Q 40.09375 11.140625 42.09375 16.703125 
z
M 13.234375 30.90625 
L 42.1875 30.90625 
Q 41.609375 37.453125 38.875 40.71875 
Q 34.671875 45.796875 27.984375 45.796875 
Q 21.921875 45.796875 17.796875 41.75 
Q 13.671875 37.703125 13.234375 30.90625 
z
" id="ArialMT-101"/>
      <path d="M 6.390625 0 
L 6.390625 71.578125 
L 15.1875 71.578125 
L 15.1875 0 
z
" id="ArialMT-108"/>
     </defs>
     <g style="fill:#262626;" transform="translate(146.322031 119.91617)scale(0.165 -0.165)">
      <use xlink:href="#ArialMT-66"/>
      <use x="66.699219" xlink:href="#ArialMT-97"/>
      <use x="122.314453" xlink:href="#ArialMT-115"/>
      <use x="172.314453" xlink:href="#ArialMT-101"/>
      <use x="227.929688" xlink:href="#ArialMT-108"/>
      <use x="250.146484" xlink:href="#ArialMT-105"/>
      <use x="272.363281" xlink:href="#ArialMT-110"/>
      <use x="327.978516" xlink:href="#ArialMT-101"/>
     </g>
    </g>
    <g id="patch_12">
     <path d="M 100.122031 143.255936 
L 133.122031 143.255936 
L 133.122031 131.705936 
L 100.122031 131.705936 
z
" style="fill:#489e53;stroke:#333333;stroke-linejoin:miter;stroke-width:1.5;"/>
    </g>
    <g id="text_16">
     <!-- Think -->
     <g style="fill:#262626;" transform="translate(146.322031 143.255936)scale(0.165 -0.165)">
      <use xlink:href="#ArialMT-84"/>
      <use x="61.083984" xlink:href="#ArialMT-104"/>
      <use x="116.699219" xlink:href="#ArialMT-105"/>
      <use x="138.916016" xlink:href="#ArialMT-110"/>
      <use x="194.53125" xlink:href="#ArialMT-107"/>
     </g>
    </g>
    <g id="patch_13">
     <path d="M 100.122031 166.595702 
L 133.122031 166.595702 
L 133.122031 155.045702 
L 100.122031 155.045702 
z
" style="fill:#c8645e;stroke:#333333;stroke-linejoin:miter;stroke-width:1.5;"/>
    </g>
    <g id="text_17">
     <!-- No-Think -->
     <g style="fill:#262626;" transform="translate(146.322031 166.595702)scale(0.165 -0.165)">
      <use xlink:href="#ArialMT-78"/>
      <use x="72.216797" xlink:href="#ArialMT-111"/>
      <use x="127.832031" xlink:href="#ArialMT-45"/>
      <use x="161.132812" xlink:href="#ArialMT-84"/>
      <use x="222.216797" xlink:href="#ArialMT-104"/>
      <use x="277.832031" xlink:href="#ArialMT-105"/>
      <use x="300.048828" xlink:href="#ArialMT-110"/>
      <use x="355.664062" xlink:href="#ArialMT-107"/>
     </g>
    </g>
    <g id="patch_14">
     <path d="M 100.122031 189.935467 
L 133.122031 189.935467 
L 133.122031 178.385467 
L 100.122031 178.385467 
z
" style="fill:#465e87;stroke:#333333;stroke-linejoin:miter;stroke-width:1.5;"/>
    </g>
    <g id="text_18">
     <!-- Baseline -->
     <g style="fill:#262626;" transform="translate(146.322031 189.935467)scale(0.165 -0.165)">
      <use xlink:href="#ArialMT-66"/>
      <use x="66.699219" xlink:href="#ArialMT-97"/>
      <use x="122.314453" xlink:href="#ArialMT-115"/>
      <use x="172.314453" xlink:href="#ArialMT-101"/>
      <use x="227.929688" xlink:href="#ArialMT-108"/>
      <use x="250.146484" xlink:href="#ArialMT-105"/>
      <use x="272.363281" xlink:href="#ArialMT-110"/>
      <use x="327.978516" xlink:href="#ArialMT-101"/>
     </g>
    </g>
   </g>
  </g>
 </g>
 <defs>
  <clipPath id="pf03038c5c2">
   <rect height="326.16" width="334.8" x="85.272031" y="24.33392"/>
  </clipPath>
 </defs>
</svg>
