<?xml version="1.0" encoding="utf-8" standalone="no"?>
<!DOCTYPE svg PUBLIC "-//W3C//DTD SVG 1.1//EN"
  "http://www.w3.org/Graphics/SVG/1.1/DTD/svg11.dtd">
<!-- Created with matplotlib (https://matplotlib.org/) -->
<svg height="326.7825pt" version="1.1" viewBox="0 0 341.815391 326.7825" width="341.815391pt" xmlns="http://www.w3.org/2000/svg" xmlns:xlink="http://www.w3.org/1999/xlink">
 <defs>
  <style type="text/css">
*{stroke-linecap:butt;stroke-linejoin:round;}
  </style>
 </defs>
 <g id="figure_1">
  <g id="patch_1">
   <path d="M -0 326.7825 
L 341.815391 326.7825 
L 341.815391 0 
L -0 0 
z
" style="fill:#ffffff;"/>
  </g>
  <g id="axes_1">
   <g id="patch_2">
    <path d="M 79.995391 278.82 
L 325.615391 278.82 
L 325.615391 16.2 
L 79.995391 16.2 
z
" style="fill:#ffffff;"/>
   </g>
   <g id="matplotlib.axis_1">
    <g id="xtick_1">
     <g id="line2d_1">
      <defs>
       <path d="M 0 0 
L 0 9 
" id="me6789f4d55" style="stroke:#262626;stroke-width:1.875;"/>
      </defs>
      <g>
       <use style="fill:#262626;stroke:#262626;stroke-width:1.875;" x="120.932057" xlink:href="#me6789f4d55" y="288.82"/>
      </g>
     </g>
     <g id="text_1">
      <!-- Think -->
      <defs>
       <path d="M 23.390625 0 
L 23.390625 59.46875 
L 2.15625 59.46875 
L 2.15625 71.578125 
L 59.03125 71.578125 
L 59.03125 59.46875 
L 37.84375 59.46875 
L 37.84375 0 
z
" id="Arial-BoldMT-84"/>
       <path d="M 20.84375 71.578125 
L 20.84375 45.265625 
Q 27.484375 53.03125 36.71875 53.03125 
Q 41.453125 53.03125 45.265625 51.265625 
Q 49.078125 49.515625 51 46.78125 
Q 52.9375 44.046875 53.640625 40.71875 
Q 54.34375 37.40625 54.34375 30.421875 
L 54.34375 0 
L 40.625 0 
L 40.625 27.390625 
Q 40.625 35.546875 39.84375 37.734375 
Q 39.0625 39.9375 37.078125 41.234375 
Q 35.109375 42.53125 32.125 42.53125 
Q 28.71875 42.53125 26.03125 40.859375 
Q 23.34375 39.203125 22.09375 35.859375 
Q 20.84375 32.515625 20.84375 25.984375 
L 20.84375 0 
L 7.125 0 
L 7.125 71.578125 
z
" id="Arial-BoldMT-104"/>
       <path d="M 7.171875 58.890625 
L 7.171875 71.578125 
L 20.90625 71.578125 
L 20.90625 58.890625 
z
M 7.171875 0 
L 7.171875 51.859375 
L 20.90625 51.859375 
L 20.90625 0 
z
" id="Arial-BoldMT-105"/>
       <path d="M 54.34375 0 
L 40.625 0 
L 40.625 26.46875 
Q 40.625 34.859375 39.75 37.328125 
Q 38.875 39.796875 36.890625 41.15625 
Q 34.90625 42.53125 32.125 42.53125 
Q 28.5625 42.53125 25.734375 40.578125 
Q 22.90625 38.625 21.84375 35.390625 
Q 20.796875 32.171875 20.796875 23.484375 
L 20.796875 0 
L 7.078125 0 
L 7.078125 51.859375 
L 19.828125 51.859375 
L 19.828125 44.234375 
Q 26.609375 53.03125 36.921875 53.03125 
Q 41.453125 53.03125 45.203125 51.390625 
Q 48.96875 49.75 50.890625 47.203125 
Q 52.828125 44.671875 53.578125 41.453125 
Q 54.34375 38.234375 54.34375 32.234375 
z
" id="Arial-BoldMT-110"/>
       <path d="M 6.6875 0 
L 6.6875 71.578125 
L 20.40625 71.578125 
L 20.40625 33.59375 
L 36.46875 51.859375 
L 53.375 51.859375 
L 35.640625 32.90625 
L 54.640625 0 
L 39.84375 0 
L 26.8125 23.296875 
L 20.40625 16.609375 
L 20.40625 0 
z
" id="Arial-BoldMT-107"/>
      </defs>
      <g style="fill:#262626;" transform="translate(94.269557 315.635625)scale(0.2 -0.2)">
       <use xlink:href="#Arial-BoldMT-84"/>
       <use x="61.083984" xlink:href="#Arial-BoldMT-104"/>
       <use x="122.167969" xlink:href="#Arial-BoldMT-105"/>
       <use x="149.951172" xlink:href="#Arial-BoldMT-110"/>
       <use x="211.035156" xlink:href="#Arial-BoldMT-107"/>
      </g>
     </g>
    </g>
    <g id="xtick_2">
     <g id="line2d_2">
      <g>
       <use style="fill:#262626;stroke:#262626;stroke-width:1.875;" x="202.805391" xlink:href="#me6789f4d55" y="288.82"/>
      </g>
     </g>
     <g id="text_2">
      <!-- No-Think -->
      <defs>
       <path d="M 7.421875 0 
L 7.421875 71.578125 
L 21.484375 71.578125 
L 50.78125 23.78125 
L 50.78125 71.578125 
L 64.203125 71.578125 
L 64.203125 0 
L 49.703125 0 
L 20.84375 46.6875 
L 20.84375 0 
z
" id="Arial-BoldMT-78"/>
       <path d="M 4 26.65625 
Q 4 33.5 7.375 39.890625 
Q 10.75 46.296875 16.921875 49.65625 
Q 23.09375 53.03125 30.71875 53.03125 
Q 42.484375 53.03125 50 45.390625 
Q 57.515625 37.75 57.515625 26.078125 
Q 57.515625 14.3125 49.921875 6.5625 
Q 42.328125 -1.171875 30.8125 -1.171875 
Q 23.6875 -1.171875 17.21875 2.046875 
Q 10.75 5.28125 7.375 11.5 
Q 4 17.71875 4 26.65625 
z
M 18.0625 25.921875 
Q 18.0625 18.21875 21.71875 14.109375 
Q 25.390625 10.015625 30.765625 10.015625 
Q 36.140625 10.015625 39.765625 14.109375 
Q 43.40625 18.21875 43.40625 26.03125 
Q 43.40625 33.640625 39.765625 37.734375 
Q 36.140625 41.84375 30.765625 41.84375 
Q 25.390625 41.84375 21.71875 37.734375 
Q 18.0625 33.640625 18.0625 25.921875 
z
" id="Arial-BoldMT-111"/>
       <path d="M 5.609375 19.09375 
L 5.609375 32.8125 
L 32.5625 32.8125 
L 32.5625 19.09375 
z
" id="Arial-BoldMT-45"/>
      </defs>
      <g style="fill:#262626;" transform="translate(159.483516 315.635625)scale(0.2 -0.2)">
       <use xlink:href="#Arial-BoldMT-78"/>
       <use x="72.216797" xlink:href="#Arial-BoldMT-111"/>
       <use x="133.300781" xlink:href="#Arial-BoldMT-45"/>
       <use x="166.601562" xlink:href="#Arial-BoldMT-84"/>
       <use x="227.685547" xlink:href="#Arial-BoldMT-104"/>
       <use x="288.769531" xlink:href="#Arial-BoldMT-105"/>
       <use x="316.552734" xlink:href="#Arial-BoldMT-110"/>
       <use x="377.636719" xlink:href="#Arial-BoldMT-107"/>
      </g>
     </g>
    </g>
    <g id="xtick_3">
     <g id="line2d_3">
      <g>
       <use style="fill:#262626;stroke:#262626;stroke-width:1.875;" x="284.678724" xlink:href="#me6789f4d55" y="288.82"/>
      </g>
     </g>
     <g id="text_3">
      <!-- Baseline -->
      <defs>
       <path d="M 7.328125 71.578125 
L 35.9375 71.578125 
Q 44.4375 71.578125 48.609375 70.875 
Q 52.78125 70.171875 56.078125 67.921875 
Q 59.375 65.671875 61.5625 61.9375 
Q 63.765625 58.203125 63.765625 53.5625 
Q 63.765625 48.53125 61.046875 44.328125 
Q 58.34375 40.140625 53.71875 38.03125 
Q 60.25 36.140625 63.765625 31.546875 
Q 67.28125 26.953125 67.28125 20.75 
Q 67.28125 15.875 65.015625 11.25 
Q 62.75 6.640625 58.8125 3.875 
Q 54.890625 1.125 49.125 0.484375 
Q 45.515625 0.09375 31.6875 0 
L 7.328125 0 
z
M 21.78125 59.671875 
L 21.78125 43.109375 
L 31.25 43.109375 
Q 39.703125 43.109375 41.75 43.359375 
Q 45.453125 43.796875 47.578125 45.921875 
Q 49.703125 48.046875 49.703125 51.515625 
Q 49.703125 54.828125 47.875 56.90625 
Q 46.046875 58.984375 42.4375 59.421875 
Q 40.28125 59.671875 30.078125 59.671875 
z
M 21.78125 31.203125 
L 21.78125 12.0625 
L 35.15625 12.0625 
Q 42.96875 12.0625 45.0625 12.5 
Q 48.296875 13.09375 50.3125 15.359375 
Q 52.34375 17.625 52.34375 21.4375 
Q 52.34375 24.65625 50.78125 26.90625 
Q 49.21875 29.15625 46.265625 30.171875 
Q 43.3125 31.203125 33.453125 31.203125 
z
" id="Arial-BoldMT-66"/>
       <path d="M 17.4375 36.03125 
L 4.984375 38.28125 
Q 7.078125 45.796875 12.203125 49.40625 
Q 17.328125 53.03125 27.4375 53.03125 
Q 36.625 53.03125 41.109375 50.859375 
Q 45.609375 48.6875 47.4375 45.34375 
Q 49.265625 42 49.265625 33.0625 
L 49.125 17.046875 
Q 49.125 10.203125 49.78125 6.953125 
Q 50.4375 3.71875 52.25 0 
L 38.671875 0 
Q 38.140625 1.375 37.359375 4.046875 
Q 37.015625 5.28125 36.859375 5.671875 
Q 33.34375 2.25 29.34375 0.53125 
Q 25.34375 -1.171875 20.796875 -1.171875 
Q 12.796875 -1.171875 8.171875 3.171875 
Q 3.5625 7.515625 3.5625 14.15625 
Q 3.5625 18.5625 5.65625 22 
Q 7.765625 25.4375 11.546875 27.265625 
Q 15.328125 29.109375 22.46875 30.46875 
Q 32.078125 32.28125 35.796875 33.84375 
L 35.796875 35.203125 
Q 35.796875 39.15625 33.84375 40.84375 
Q 31.890625 42.53125 26.46875 42.53125 
Q 22.796875 42.53125 20.75 41.09375 
Q 18.703125 39.65625 17.4375 36.03125 
z
M 35.796875 24.90625 
Q 33.15625 24.03125 27.4375 22.796875 
Q 21.734375 21.578125 19.96875 20.40625 
Q 17.28125 18.5 17.28125 15.578125 
Q 17.28125 12.703125 19.421875 10.59375 
Q 21.578125 8.5 24.90625 8.5 
Q 28.609375 8.5 31.984375 10.9375 
Q 34.46875 12.796875 35.25 15.484375 
Q 35.796875 17.234375 35.796875 22.171875 
z
" id="Arial-BoldMT-97"/>
       <path d="M 2.34375 14.796875 
L 16.109375 16.890625 
Q 17 12.890625 19.671875 10.8125 
Q 22.359375 8.734375 27.203125 8.734375 
Q 32.515625 8.734375 35.203125 10.6875 
Q 37.015625 12.0625 37.015625 14.359375 
Q 37.015625 15.921875 36.03125 16.9375 
Q 35.015625 17.921875 31.453125 18.75 
Q 14.84375 22.40625 10.40625 25.4375 
Q 4.25 29.640625 4.25 37.109375 
Q 4.25 43.84375 9.5625 48.4375 
Q 14.890625 53.03125 26.078125 53.03125 
Q 36.71875 53.03125 41.890625 49.5625 
Q 47.078125 46.09375 49.03125 39.3125 
L 36.078125 36.921875 
Q 35.25 39.9375 32.921875 41.546875 
Q 30.609375 43.171875 26.3125 43.171875 
Q 20.90625 43.171875 18.5625 41.65625 
Q 17 40.578125 17 38.875 
Q 17 37.40625 18.359375 36.375 
Q 20.21875 35.015625 31.171875 32.515625 
Q 42.140625 30.03125 46.484375 26.421875 
Q 50.78125 22.75 50.78125 16.21875 
Q 50.78125 9.078125 44.828125 3.953125 
Q 38.875 -1.171875 27.203125 -1.171875 
Q 16.609375 -1.171875 10.421875 3.125 
Q 4.25 7.421875 2.34375 14.796875 
z
" id="Arial-BoldMT-115"/>
       <path d="M 37.203125 16.5 
L 50.875 14.203125 
Q 48.25 6.6875 42.546875 2.75 
Q 36.859375 -1.171875 28.328125 -1.171875 
Q 14.796875 -1.171875 8.296875 7.671875 
Q 3.171875 14.75 3.171875 25.53125 
Q 3.171875 38.421875 9.90625 45.71875 
Q 16.65625 53.03125 26.953125 53.03125 
Q 38.53125 53.03125 45.21875 45.390625 
Q 51.90625 37.75 51.609375 21.96875 
L 17.234375 21.96875 
Q 17.390625 15.875 20.5625 12.46875 
Q 23.734375 9.078125 28.46875 9.078125 
Q 31.6875 9.078125 33.875 10.828125 
Q 36.078125 12.59375 37.203125 16.5 
z
M 37.984375 30.375 
Q 37.84375 36.328125 34.90625 39.421875 
Q 31.984375 42.53125 27.78125 42.53125 
Q 23.296875 42.53125 20.359375 39.265625 
Q 17.4375 35.984375 17.484375 30.375 
z
" id="Arial-BoldMT-101"/>
       <path d="M 7.171875 0 
L 7.171875 71.578125 
L 20.90625 71.578125 
L 20.90625 0 
z
" id="Arial-BoldMT-108"/>
      </defs>
      <g style="fill:#262626;" transform="translate(243.549036 315.635625)scale(0.2 -0.2)">
       <use xlink:href="#Arial-BoldMT-66"/>
       <use x="72.216797" xlink:href="#Arial-BoldMT-97"/>
       <use x="127.832031" xlink:href="#Arial-BoldMT-115"/>
       <use x="183.447266" xlink:href="#Arial-BoldMT-101"/>
       <use x="239.0625" xlink:href="#Arial-BoldMT-108"/>
       <use x="266.845703" xlink:href="#Arial-BoldMT-105"/>
       <use x="294.628906" xlink:href="#Arial-BoldMT-110"/>
       <use x="355.712891" xlink:href="#Arial-BoldMT-101"/>
      </g>
     </g>
    </g>
   </g>
   <g id="matplotlib.axis_2">
    <g id="ytick_1">
     <g id="line2d_4">
      <defs>
       <path d="M 0 0 
L -9 0 
" id="m680b645500" style="stroke:#262626;stroke-width:1.875;"/>
      </defs>
      <g>
       <use style="fill:#262626;stroke:#262626;stroke-width:1.875;" x="69.995391" xlink:href="#m680b645500" y="278.82"/>
      </g>
     </g>
     <g id="text_4">
      <!-- 70 -->
      <defs>
       <path d="M 4.734375 62.203125 
L 4.734375 70.65625 
L 51.078125 70.65625 
L 51.078125 63.8125 
Q 44.234375 56.546875 37.515625 44.484375 
Q 30.8125 32.421875 27.15625 19.671875 
Q 24.515625 10.6875 23.78125 0 
L 14.75 0 
Q 14.890625 8.453125 18.0625 20.40625 
Q 21.234375 32.375 27.171875 43.484375 
Q 33.109375 54.59375 39.796875 62.203125 
z
" id="ArialMT-55"/>
       <path d="M 4.15625 35.296875 
Q 4.15625 48 6.765625 55.734375 
Q 9.375 63.484375 14.515625 67.671875 
Q 19.671875 71.875 27.484375 71.875 
Q 33.25 71.875 37.59375 69.546875 
Q 41.9375 67.234375 44.765625 62.859375 
Q 47.609375 58.5 49.21875 52.21875 
Q 50.828125 45.953125 50.828125 35.296875 
Q 50.828125 22.703125 48.234375 14.96875 
Q 45.65625 7.234375 40.5 3 
Q 35.359375 -1.21875 27.484375 -1.21875 
Q 17.140625 -1.21875 11.234375 6.203125 
Q 4.15625 15.140625 4.15625 35.296875 
z
M 13.1875 35.296875 
Q 13.1875 17.671875 17.3125 11.828125 
Q 21.4375 6 27.484375 6 
Q 33.546875 6 37.671875 11.859375 
Q 41.796875 17.71875 41.796875 35.296875 
Q 41.796875 52.984375 37.671875 58.78125 
Q 33.546875 64.59375 27.390625 64.59375 
Q 21.34375 64.59375 17.71875 59.46875 
Q 13.1875 52.9375 13.1875 35.296875 
z
" id="ArialMT-48"/>
      </defs>
      <g style="fill:#262626;" transform="translate(39.144297 284.725195)scale(0.165 -0.165)">
       <use xlink:href="#ArialMT-55"/>
       <use x="55.615234" xlink:href="#ArialMT-48"/>
      </g>
     </g>
    </g>
    <g id="ytick_2">
     <g id="line2d_5">
      <g>
       <use style="fill:#262626;stroke:#262626;stroke-width:1.875;" x="69.995391" xlink:href="#m680b645500" y="235.05"/>
      </g>
     </g>
     <g id="text_5">
      <!-- 75 -->
      <defs>
       <path d="M 4.15625 18.75 
L 13.375 19.53125 
Q 14.40625 12.796875 18.140625 9.390625 
Q 21.875 6 27.15625 6 
Q 33.5 6 37.890625 10.78125 
Q 42.28125 15.578125 42.28125 23.484375 
Q 42.28125 31 38.0625 35.34375 
Q 33.84375 39.703125 27 39.703125 
Q 22.75 39.703125 19.328125 37.765625 
Q 15.921875 35.84375 13.96875 32.765625 
L 5.71875 33.84375 
L 12.640625 70.609375 
L 48.25 70.609375 
L 48.25 62.203125 
L 19.671875 62.203125 
L 15.828125 42.96875 
Q 22.265625 47.46875 29.34375 47.46875 
Q 38.71875 47.46875 45.15625 40.96875 
Q 51.609375 34.46875 51.609375 24.265625 
Q 51.609375 14.546875 45.953125 7.46875 
Q 39.0625 -1.21875 27.15625 -1.21875 
Q 17.390625 -1.21875 11.203125 4.25 
Q 5.03125 9.71875 4.15625 18.75 
z
" id="ArialMT-53"/>
      </defs>
      <g style="fill:#262626;" transform="translate(39.144297 240.955195)scale(0.165 -0.165)">
       <use xlink:href="#ArialMT-55"/>
       <use x="55.615234" xlink:href="#ArialMT-53"/>
      </g>
     </g>
    </g>
    <g id="ytick_3">
     <g id="line2d_6">
      <g>
       <use style="fill:#262626;stroke:#262626;stroke-width:1.875;" x="69.995391" xlink:href="#m680b645500" y="191.28"/>
      </g>
     </g>
     <g id="text_6">
      <!-- 80 -->
      <defs>
       <path d="M 17.671875 38.8125 
Q 12.203125 40.828125 9.5625 44.53125 
Q 6.9375 48.25 6.9375 53.421875 
Q 6.9375 61.234375 12.546875 66.546875 
Q 18.171875 71.875 27.484375 71.875 
Q 36.859375 71.875 42.578125 66.421875 
Q 48.296875 60.984375 48.296875 53.171875 
Q 48.296875 48.1875 45.671875 44.5 
Q 43.0625 40.828125 37.75 38.8125 
Q 44.34375 36.671875 47.78125 31.875 
Q 51.21875 27.09375 51.21875 20.453125 
Q 51.21875 11.28125 44.71875 5.03125 
Q 38.234375 -1.21875 27.640625 -1.21875 
Q 17.046875 -1.21875 10.546875 5.046875 
Q 4.046875 11.328125 4.046875 20.703125 
Q 4.046875 27.6875 7.59375 32.390625 
Q 11.140625 37.109375 17.671875 38.8125 
z
M 15.921875 53.71875 
Q 15.921875 48.640625 19.1875 45.40625 
Q 22.46875 42.1875 27.6875 42.1875 
Q 32.765625 42.1875 36.015625 45.375 
Q 39.265625 48.578125 39.265625 53.21875 
Q 39.265625 58.0625 35.90625 61.359375 
Q 32.5625 64.65625 27.59375 64.65625 
Q 22.5625 64.65625 19.234375 61.421875 
Q 15.921875 58.203125 15.921875 53.71875 
z
M 13.09375 20.65625 
Q 13.09375 16.890625 14.875 13.375 
Q 16.65625 9.859375 20.171875 7.921875 
Q 23.6875 6 27.734375 6 
Q 34.03125 6 38.125 10.046875 
Q 42.234375 14.109375 42.234375 20.359375 
Q 42.234375 26.703125 38.015625 30.859375 
Q 33.796875 35.015625 27.4375 35.015625 
Q 21.234375 35.015625 17.15625 30.90625 
Q 13.09375 26.8125 13.09375 20.65625 
z
" id="ArialMT-56"/>
      </defs>
      <g style="fill:#262626;" transform="translate(39.144297 197.185195)scale(0.165 -0.165)">
       <use xlink:href="#ArialMT-56"/>
       <use x="55.615234" xlink:href="#ArialMT-48"/>
      </g>
     </g>
    </g>
    <g id="ytick_4">
     <g id="line2d_7">
      <g>
       <use style="fill:#262626;stroke:#262626;stroke-width:1.875;" x="69.995391" xlink:href="#m680b645500" y="147.51"/>
      </g>
     </g>
     <g id="text_7">
      <!-- 85 -->
      <g style="fill:#262626;" transform="translate(39.144297 153.415195)scale(0.165 -0.165)">
       <use xlink:href="#ArialMT-56"/>
       <use x="55.615234" xlink:href="#ArialMT-53"/>
      </g>
     </g>
    </g>
    <g id="ytick_5">
     <g id="line2d_8">
      <g>
       <use style="fill:#262626;stroke:#262626;stroke-width:1.875;" x="69.995391" xlink:href="#m680b645500" y="103.74"/>
      </g>
     </g>
     <g id="text_8">
      <!-- 90 -->
      <defs>
       <path d="M 5.46875 16.546875 
L 13.921875 17.328125 
Q 14.984375 11.375 18.015625 8.6875 
Q 21.046875 6 25.78125 6 
Q 29.828125 6 32.875 7.859375 
Q 35.9375 9.71875 37.890625 12.8125 
Q 39.84375 15.921875 41.15625 21.1875 
Q 42.484375 26.46875 42.484375 31.9375 
Q 42.484375 32.515625 42.4375 33.6875 
Q 39.796875 29.5 35.234375 26.875 
Q 30.671875 24.265625 25.34375 24.265625 
Q 16.453125 24.265625 10.296875 30.703125 
Q 4.15625 37.15625 4.15625 47.703125 
Q 4.15625 58.59375 10.578125 65.234375 
Q 17 71.875 26.65625 71.875 
Q 33.640625 71.875 39.421875 68.109375 
Q 45.21875 64.359375 48.21875 57.390625 
Q 51.21875 50.4375 51.21875 37.25 
Q 51.21875 23.53125 48.234375 15.40625 
Q 45.265625 7.28125 39.375 3.03125 
Q 33.5 -1.21875 25.59375 -1.21875 
Q 17.1875 -1.21875 11.859375 3.4375 
Q 6.546875 8.109375 5.46875 16.546875 
z
M 41.453125 48.140625 
Q 41.453125 55.71875 37.421875 60.15625 
Q 33.40625 64.59375 27.734375 64.59375 
Q 21.875 64.59375 17.53125 59.8125 
Q 13.1875 55.03125 13.1875 47.40625 
Q 13.1875 40.578125 17.3125 36.296875 
Q 21.4375 32.03125 27.484375 32.03125 
Q 33.59375 32.03125 37.515625 36.296875 
Q 41.453125 40.578125 41.453125 48.140625 
z
" id="ArialMT-57"/>
      </defs>
      <g style="fill:#262626;" transform="translate(39.144297 109.645195)scale(0.165 -0.165)">
       <use xlink:href="#ArialMT-57"/>
       <use x="55.615234" xlink:href="#ArialMT-48"/>
      </g>
     </g>
    </g>
    <g id="ytick_6">
     <g id="line2d_9">
      <g>
       <use style="fill:#262626;stroke:#262626;stroke-width:1.875;" x="69.995391" xlink:href="#m680b645500" y="59.97"/>
      </g>
     </g>
     <g id="text_9">
      <!-- 95 -->
      <g style="fill:#262626;" transform="translate(39.144297 65.875195)scale(0.165 -0.165)">
       <use xlink:href="#ArialMT-57"/>
       <use x="55.615234" xlink:href="#ArialMT-53"/>
      </g>
     </g>
    </g>
    <g id="ytick_7">
     <g id="line2d_10">
      <g>
       <use style="fill:#262626;stroke:#262626;stroke-width:1.875;" x="69.995391" xlink:href="#m680b645500" y="16.2"/>
      </g>
     </g>
     <g id="text_10">
      <!-- 100 -->
      <defs>
       <path d="M 37.25 0 
L 28.46875 0 
L 28.46875 56 
Q 25.296875 52.984375 20.140625 49.953125 
Q 14.984375 46.921875 10.890625 45.40625 
L 10.890625 53.90625 
Q 18.265625 57.375 23.78125 62.296875 
Q 29.296875 67.234375 31.59375 71.875 
L 37.25 71.875 
z
" id="ArialMT-49"/>
      </defs>
      <g style="fill:#262626;" transform="translate(29.96875 22.105195)scale(0.165 -0.165)">
       <use xlink:href="#ArialMT-49"/>
       <use x="55.615234" xlink:href="#ArialMT-48"/>
       <use x="111.230469" xlink:href="#ArialMT-48"/>
      </g>
     </g>
    </g>
    <g id="text_11">
     <!-- Recall (%) -->
     <defs>
      <path d="M 7.328125 0 
L 7.328125 71.578125 
L 37.75 71.578125 
Q 49.21875 71.578125 54.421875 69.640625 
Q 59.625 67.71875 62.75 62.78125 
Q 65.875 57.859375 65.875 51.515625 
Q 65.875 43.453125 61.125 38.203125 
Q 56.390625 32.953125 46.96875 31.59375 
Q 51.65625 28.859375 54.703125 25.578125 
Q 57.765625 22.3125 62.9375 13.96875 
L 71.6875 0 
L 54.390625 0 
L 43.953125 15.578125 
Q 38.375 23.921875 36.328125 26.09375 
Q 34.28125 28.265625 31.984375 29.078125 
Q 29.6875 29.890625 24.703125 29.890625 
L 21.78125 29.890625 
L 21.78125 0 
z
M 21.78125 41.3125 
L 32.46875 41.3125 
Q 42.875 41.3125 45.453125 42.1875 
Q 48.046875 43.0625 49.515625 45.203125 
Q 50.984375 47.359375 50.984375 50.59375 
Q 50.984375 54.203125 49.046875 56.421875 
Q 47.125 58.640625 43.609375 59.234375 
Q 41.84375 59.46875 33.0625 59.46875 
L 21.78125 59.46875 
z
" id="Arial-BoldMT-82"/>
      <path d="M 52.390625 36.53125 
L 38.875 34.078125 
Q 38.1875 38.140625 35.765625 40.1875 
Q 33.34375 42.234375 29.5 42.234375 
Q 24.359375 42.234375 21.3125 38.6875 
Q 18.265625 35.15625 18.265625 26.859375 
Q 18.265625 17.625 21.359375 13.8125 
Q 24.46875 10.015625 29.6875 10.015625 
Q 33.59375 10.015625 36.078125 12.234375 
Q 38.578125 14.453125 39.59375 19.875 
L 53.078125 17.578125 
Q 50.984375 8.296875 45.015625 3.5625 
Q 39.0625 -1.171875 29.046875 -1.171875 
Q 17.671875 -1.171875 10.90625 6 
Q 4.15625 13.1875 4.15625 25.875 
Q 4.15625 38.71875 10.9375 45.875 
Q 17.71875 53.03125 29.296875 53.03125 
Q 38.765625 53.03125 44.359375 48.953125 
Q 49.953125 44.875 52.390625 36.53125 
z
" id="Arial-BoldMT-99"/>
      <path id="Arial-BoldMT-32"/>
      <path d="M 29.9375 -21.046875 
L 20.515625 -21.046875 
Q 13.03125 -9.765625 9.125 2.390625 
Q 5.21875 14.546875 5.21875 25.921875 
Q 5.21875 40.046875 10.0625 52.640625 
Q 14.265625 63.578125 20.703125 72.796875 
L 30.078125 72.796875 
Q 23.390625 58.015625 20.875 47.625 
Q 18.359375 37.25 18.359375 25.640625 
Q 18.359375 17.625 19.84375 9.21875 
Q 21.34375 0.828125 23.921875 -6.734375 
Q 25.640625 -11.71875 29.9375 -21.046875 
z
" id="Arial-BoldMT-40"/>
      <path d="M 4.34375 53.90625 
Q 4.34375 63.53125 8.5625 68.15625 
Q 12.796875 72.796875 20.015625 72.796875 
Q 27.484375 72.796875 31.703125 68.1875 
Q 35.9375 63.578125 35.9375 53.90625 
Q 35.9375 44.28125 31.703125 39.640625 
Q 27.484375 35.015625 20.265625 35.015625 
Q 12.796875 35.015625 8.5625 39.625 
Q 4.34375 44.234375 4.34375 53.90625 
z
M 15.046875 54 
Q 15.046875 47.015625 16.65625 44.625 
Q 17.875 42.875 20.015625 42.875 
Q 22.21875 42.875 23.4375 44.625 
Q 25 47.015625 25 54 
Q 25 60.984375 23.4375 63.328125 
Q 22.21875 65.140625 20.015625 65.140625 
Q 17.875 65.140625 16.65625 63.375 
Q 15.046875 60.984375 15.046875 54 
z
M 30.46875 -2.734375 
L 20.3125 -2.734375 
L 58.453125 72.796875 
L 68.3125 72.796875 
z
M 52.640625 16.0625 
Q 52.640625 25.6875 56.859375 30.328125 
Q 61.078125 34.96875 68.40625 34.96875 
Q 75.78125 34.96875 80 30.328125 
Q 84.234375 25.6875 84.234375 16.0625 
Q 84.234375 6.390625 80 1.75 
Q 75.78125 -2.875 68.5625 -2.875 
Q 61.078125 -2.875 56.859375 1.75 
Q 52.640625 6.390625 52.640625 16.0625 
z
M 63.328125 16.109375 
Q 63.328125 9.125 64.9375 6.78125 
Q 66.15625 4.984375 68.3125 4.984375 
Q 70.515625 4.984375 71.6875 6.734375 
Q 73.296875 9.125 73.296875 16.109375 
Q 73.296875 23.09375 71.734375 25.484375 
Q 70.515625 27.25 68.3125 27.25 
Q 66.109375 27.25 64.9375 25.484375 
Q 63.328125 23.09375 63.328125 16.109375 
z
" id="Arial-BoldMT-37"/>
      <path d="M 3.375 -21.046875 
Q 7.421875 -12.359375 9.078125 -7.71875 
Q 10.75 -3.078125 12.15625 2.96875 
Q 13.578125 9.03125 14.25 14.46875 
Q 14.9375 19.921875 14.9375 25.640625 
Q 14.9375 37.25 12.453125 47.625 
Q 9.96875 58.015625 3.265625 72.796875 
L 12.59375 72.796875 
Q 19.96875 62.3125 24.046875 50.53125 
Q 28.125 38.765625 28.125 26.65625 
Q 28.125 16.453125 24.90625 4.78125 
Q 21.234375 -8.296875 12.84375 -21.046875 
z
" id="Arial-BoldMT-41"/>
     </defs>
     <g style="fill:#262626;" transform="translate(21.759375 195.300625)rotate(-90)scale(0.2 -0.2)">
      <use xlink:href="#Arial-BoldMT-82"/>
      <use x="72.216797" xlink:href="#Arial-BoldMT-101"/>
      <use x="127.832031" xlink:href="#Arial-BoldMT-99"/>
      <use x="183.447266" xlink:href="#Arial-BoldMT-97"/>
      <use x="239.0625" xlink:href="#Arial-BoldMT-108"/>
      <use x="266.845703" xlink:href="#Arial-BoldMT-108"/>
      <use x="294.628906" xlink:href="#Arial-BoldMT-32"/>
      <use x="322.412109" xlink:href="#Arial-BoldMT-40"/>
      <use x="355.712891" xlink:href="#Arial-BoldMT-37"/>
      <use x="444.628906" xlink:href="#Arial-BoldMT-41"/>
     </g>
    </g>
   </g>
   <g id="PathCollection_1">
    <defs>
     <path d="M 0 5.075922 
C 1.34615 5.075922 2.637347 4.541091 3.589219 3.589219 
C 4.541091 2.637347 5.075922 1.34615 5.075922 0 
C 5.075922 -1.34615 4.541091 -2.637347 3.589219 -3.589219 
C 2.637347 -4.541091 1.34615 -5.075922 0 -5.075922 
C -1.34615 -5.075922 -2.637347 -4.541091 -3.589219 -3.589219 
C -4.541091 -2.637347 -5.075922 -1.34615 -5.075922 0 
C -5.075922 1.34615 -4.541091 2.637347 -3.589219 3.589219 
C -2.637347 4.541091 -1.34615 5.075922 0 5.075922 
z
" id="C0_0_2f8c39d167"/>
    </defs>
    <g clip-path="url(#pc75d0623ec)">
     <use style="fill:#916ab7;stroke:#916ab7;stroke-width:3.0375;" x="116.838391" xlink:href="#C0_0_2f8c39d167" y="69.586136"/>
    </g>
    <g clip-path="url(#pc75d0623ec)">
     <use style="fill:#916ab7;stroke:#916ab7;stroke-width:3.0375;" x="198.711724" xlink:href="#C0_0_2f8c39d167" y="150.494318"/>
    </g>
    <g clip-path="url(#pc75d0623ec)">
     <use style="fill:#916ab7;stroke:#916ab7;stroke-width:3.0375;" x="280.585057" xlink:href="#C0_0_2f8c39d167" y="68.149242"/>
    </g>
   </g>
   <g id="line2d_11">
    <path clip-path="url(#pc75d0623ec)" d="M 116.838391 69.586136 
L 198.711724 150.494318 
L 280.585057 68.149242 
" style="fill:none;stroke:#916ab7;stroke-linecap:round;stroke-width:4.05;"/>
   </g>
   <g id="line2d_12">
    <path clip-path="url(#pc75d0623ec)" d="M 116.838391 86.506115 
L 116.838391 51.552012 
" style="fill:none;stroke:#916ab7;stroke-linecap:round;stroke-width:4.05;"/>
   </g>
   <g id="line2d_13">
    <path clip-path="url(#pc75d0623ec)" d="M 108.651057 86.506115 
L 125.025724 86.506115 
" style="fill:none;stroke:#916ab7;stroke-linecap:round;stroke-width:4.05;"/>
   </g>
   <g id="line2d_14">
    <path clip-path="url(#pc75d0623ec)" d="M 108.651057 51.552012 
L 125.025724 51.552012 
" style="fill:none;stroke:#916ab7;stroke-linecap:round;stroke-width:4.05;"/>
   </g>
   <g id="line2d_15">
    <path clip-path="url(#pc75d0623ec)" d="M 198.711724 174.258333 
L 198.711724 128.940909 
" style="fill:none;stroke:#916ab7;stroke-linecap:round;stroke-width:4.05;"/>
   </g>
   <g id="line2d_16">
    <path clip-path="url(#pc75d0623ec)" d="M 190.524391 174.258333 
L 206.899057 174.258333 
" style="fill:none;stroke:#916ab7;stroke-linecap:round;stroke-width:4.05;"/>
   </g>
   <g id="line2d_17">
    <path clip-path="url(#pc75d0623ec)" d="M 190.524391 128.940909 
L 206.899057 128.940909 
" style="fill:none;stroke:#916ab7;stroke-linecap:round;stroke-width:4.05;"/>
   </g>
   <g id="line2d_18">
    <path clip-path="url(#pc75d0623ec)" d="M 280.585057 83.623485 
L 280.585057 52.675 
" style="fill:none;stroke:#916ab7;stroke-linecap:round;stroke-width:4.05;"/>
   </g>
   <g id="line2d_19">
    <path clip-path="url(#pc75d0623ec)" d="M 272.397724 83.623485 
L 288.772391 83.623485 
" style="fill:none;stroke:#916ab7;stroke-linecap:round;stroke-width:4.05;"/>
   </g>
   <g id="line2d_20">
    <path clip-path="url(#pc75d0623ec)" d="M 272.397724 52.675 
L 288.772391 52.675 
" style="fill:none;stroke:#916ab7;stroke-linecap:round;stroke-width:4.05;"/>
   </g>
   <g id="PathCollection_2">
    <defs>
     <path d="M 0 5.075922 
C 1.34615 5.075922 2.637347 4.541091 3.589219 3.589219 
C 4.541091 2.637347 5.075922 1.34615 5.075922 0 
C 5.075922 -1.34615 4.541091 -2.637347 3.589219 -3.589219 
C 2.637347 -4.541091 1.34615 -5.075922 0 -5.075922 
C -1.34615 -5.075922 -2.637347 -4.541091 -3.589219 -3.589219 
C -4.541091 -2.637347 -5.075922 -1.34615 -5.075922 0 
C -5.075922 1.34615 -4.541091 2.637347 -3.589219 3.589219 
C -2.637347 4.541091 -1.34615 5.075922 0 5.075922 
z
" id="C1_0_0b1b6a3ec1"/>
    </defs>
    <g clip-path="url(#pc75d0623ec)">
     <use style="fill:#444444;stroke:#444444;stroke-width:3.0375;" x="125.025724" xlink:href="#C1_0_0b1b6a3ec1" y="37.753409"/>
    </g>
    <g clip-path="url(#pc75d0623ec)">
     <use style="fill:#444444;stroke:#444444;stroke-width:3.0375;" x="206.899057" xlink:href="#C1_0_0b1b6a3ec1" y="76.991667"/>
    </g>
    <g clip-path="url(#pc75d0623ec)">
     <use style="fill:#444444;stroke:#444444;stroke-width:3.0375;" x="288.772391" xlink:href="#C1_0_0b1b6a3ec1" y="46.595833"/>
    </g>
   </g>
   <g id="line2d_21">
    <path clip-path="url(#pc75d0623ec)" d="M 125.025724 37.753409 
L 206.899057 76.991667 
L 288.772391 46.595833 
" style="fill:none;stroke:#444444;stroke-linecap:round;stroke-width:4.05;"/>
   </g>
   <g id="line2d_22">
    <path clip-path="url(#pc75d0623ec)" d="M 125.025724 44.108902 
L 125.025724 31.397917 
" style="fill:none;stroke:#444444;stroke-linecap:round;stroke-width:4.05;"/>
   </g>
   <g id="line2d_23">
    <path clip-path="url(#pc75d0623ec)" d="M 116.838391 44.108902 
L 133.213057 44.108902 
" style="fill:none;stroke:#444444;stroke-linecap:round;stroke-width:4.05;"/>
   </g>
   <g id="line2d_24">
    <path clip-path="url(#pc75d0623ec)" d="M 116.838391 31.397917 
L 133.213057 31.397917 
" style="fill:none;stroke:#444444;stroke-linecap:round;stroke-width:4.05;"/>
   </g>
   <g id="line2d_25">
    <path clip-path="url(#pc75d0623ec)" d="M 206.899057 95.229167 
L 206.899057 58.754167 
" style="fill:none;stroke:#444444;stroke-linecap:round;stroke-width:4.05;"/>
   </g>
   <g id="line2d_26">
    <path clip-path="url(#pc75d0623ec)" d="M 198.711724 95.229167 
L 215.086391 95.229167 
" style="fill:none;stroke:#444444;stroke-linecap:round;stroke-width:4.05;"/>
   </g>
   <g id="line2d_27">
    <path clip-path="url(#pc75d0623ec)" d="M 198.711724 58.754167 
L 215.086391 58.754167 
" style="fill:none;stroke:#444444;stroke-linecap:round;stroke-width:4.05;"/>
   </g>
   <g id="line2d_28">
    <path clip-path="url(#pc75d0623ec)" d="M 288.772391 55.714583 
L 288.772391 37.477083 
" style="fill:none;stroke:#444444;stroke-linecap:round;stroke-width:4.05;"/>
   </g>
   <g id="line2d_29">
    <path clip-path="url(#pc75d0623ec)" d="M 280.585057 55.714583 
L 296.959724 55.714583 
" style="fill:none;stroke:#444444;stroke-linecap:round;stroke-width:4.05;"/>
   </g>
   <g id="line2d_30">
    <path clip-path="url(#pc75d0623ec)" d="M 280.585057 37.477083 
L 296.959724 37.477083 
" style="fill:none;stroke:#444444;stroke-linecap:round;stroke-width:4.05;"/>
   </g>
   <g id="patch_3">
    <path d="M 69.995391 278.82 
L 69.995391 16.2 
" style="fill:none;stroke:#262626;stroke-linecap:square;stroke-linejoin:miter;stroke-width:1.875;"/>
   </g>
   <g id="patch_4">
    <path d="M 120.932057 288.82 
L 284.678724 288.82 
" style="fill:none;stroke:#262626;stroke-linecap:square;stroke-linejoin:miter;stroke-width:1.875;"/>
   </g>
  </g>
 </g>
 <defs>
  <clipPath id="pc75d0623ec">
   <rect height="262.62" width="245.62" x="79.995391" y="16.2"/>
  </clipPath>
 </defs>
</svg>
