<?xml version="1.0" encoding="utf-8" standalone="no"?>
<!DOCTYPE svg PUBLIC "-//W3C//DTD SVG 1.1//EN"
  "http://www.w3.org/Graphics/SVG/1.1/DTD/svg11.dtd">
<!-- Created with matplotlib (https://matplotlib.org/) -->
<svg height="288pt" version="1.1" viewBox="0 0 864 288" width="864pt" xmlns="http://www.w3.org/2000/svg" xmlns:xlink="http://www.w3.org/1999/xlink">
 <defs>
  <style type="text/css">
*{stroke-linecap:butt;stroke-linejoin:round;}
  </style>
 </defs>
 <g id="figure_1">
  <g id="patch_1">
   <path d="M 0 288 
L 864 288 
L 864 0 
L 0 0 
z
" style="fill:#ffffff;"/>
  </g>
  <g id="axes_1">
   <g id="patch_2">
    <path d="M 108 252 
L 777.6 252 
L 777.6 34.56 
L 108 34.56 
z
" style="fill:#ffffff;"/>
   </g>
   <g id="matplotlib.axis_1">
    <g id="xtick_1">
     <g id="line2d_1">
      <defs>
       <path d="M 0 0 
L 0 6 
" id="mfdf4904119" style="stroke:#262626;stroke-width:1.25;"/>
      </defs>
      <g>
       <use style="fill:#262626;stroke:#262626;stroke-width:1.25;" x="191.7" xlink:href="#mfdf4904119" y="262"/>
      </g>
     </g>
     <g id="text_1">
      <!-- Theta -->
      <defs>
       <path d="M 25.921875 0 
L 25.921875 63.140625 
L 2.34375 63.140625 
L 2.34375 71.578125 
L 59.078125 71.578125 
L 59.078125 63.140625 
L 35.40625 63.140625 
L 35.40625 0 
z
" id="ArialMT-84"/>
       <path d="M 6.59375 0 
L 6.59375 71.578125 
L 15.375 71.578125 
L 15.375 45.90625 
Q 21.53125 53.03125 30.90625 53.03125 
Q 36.671875 53.03125 40.921875 50.75 
Q 45.171875 48.484375 47 44.484375 
Q 48.828125 40.484375 48.828125 32.859375 
L 48.828125 0 
L 40.046875 0 
L 40.046875 32.859375 
Q 40.046875 39.453125 37.1875 42.453125 
Q 34.328125 45.453125 29.109375 45.453125 
Q 25.203125 45.453125 21.75 43.421875 
Q 18.3125 41.40625 16.84375 37.9375 
Q 15.375 34.46875 15.375 28.375 
L 15.375 0 
z
" id="ArialMT-104"/>
       <path d="M 42.09375 16.703125 
L 51.171875 15.578125 
Q 49.03125 7.625 43.21875 3.21875 
Q 37.40625 -1.171875 28.375 -1.171875 
Q 17 -1.171875 10.328125 5.828125 
Q 3.65625 12.84375 3.65625 25.484375 
Q 3.65625 38.578125 10.390625 45.796875 
Q 17.140625 53.03125 27.875 53.03125 
Q 38.28125 53.03125 44.875 45.953125 
Q 51.46875 38.875 51.46875 26.03125 
Q 51.46875 25.25 51.421875 23.6875 
L 12.75 23.6875 
Q 13.234375 15.140625 17.578125 10.59375 
Q 21.921875 6.0625 28.421875 6.0625 
Q 33.25 6.0625 36.671875 8.59375 
Q 40.09375 11.140625 42.09375 16.703125 
z
M 13.234375 30.90625 
L 42.1875 30.90625 
Q 41.609375 37.453125 38.875 40.71875 
Q 34.671875 45.796875 27.984375 45.796875 
Q 21.921875 45.796875 17.796875 41.75 
Q 13.671875 37.703125 13.234375 30.90625 
z
" id="ArialMT-101"/>
       <path d="M 25.78125 7.859375 
L 27.046875 0.09375 
Q 23.34375 -0.6875 20.40625 -0.6875 
Q 15.625 -0.6875 12.984375 0.828125 
Q 10.359375 2.34375 9.28125 4.8125 
Q 8.203125 7.28125 8.203125 15.1875 
L 8.203125 45.015625 
L 1.765625 45.015625 
L 1.765625 51.859375 
L 8.203125 51.859375 
L 8.203125 64.703125 
L 16.9375 69.96875 
L 16.9375 51.859375 
L 25.78125 51.859375 
L 25.78125 45.015625 
L 16.9375 45.015625 
L 16.9375 14.703125 
Q 16.9375 10.9375 17.40625 9.859375 
Q 17.875 8.796875 18.921875 8.15625 
Q 19.96875 7.515625 21.921875 7.515625 
Q 23.390625 7.515625 25.78125 7.859375 
z
" id="ArialMT-116"/>
       <path d="M 40.4375 6.390625 
Q 35.546875 2.25 31.03125 0.53125 
Q 26.515625 -1.171875 21.34375 -1.171875 
Q 12.796875 -1.171875 8.203125 3 
Q 3.609375 7.171875 3.609375 13.671875 
Q 3.609375 17.484375 5.34375 20.625 
Q 7.078125 23.78125 9.890625 25.6875 
Q 12.703125 27.59375 16.21875 28.5625 
Q 18.796875 29.25 24.03125 29.890625 
Q 34.671875 31.15625 39.703125 32.90625 
Q 39.75 34.71875 39.75 35.203125 
Q 39.75 40.578125 37.25 42.78125 
Q 33.890625 45.75 27.25 45.75 
Q 21.046875 45.75 18.09375 43.578125 
Q 15.140625 41.40625 13.71875 35.890625 
L 5.125 37.0625 
Q 6.296875 42.578125 8.984375 45.96875 
Q 11.671875 49.359375 16.75 51.1875 
Q 21.828125 53.03125 28.515625 53.03125 
Q 35.15625 53.03125 39.296875 51.46875 
Q 43.453125 49.90625 45.40625 47.53125 
Q 47.359375 45.171875 48.140625 41.546875 
Q 48.578125 39.3125 48.578125 33.453125 
L 48.578125 21.734375 
Q 48.578125 9.46875 49.140625 6.21875 
Q 49.703125 2.984375 51.375 0 
L 42.1875 0 
Q 40.828125 2.734375 40.4375 6.390625 
z
M 39.703125 26.03125 
Q 34.90625 24.078125 25.34375 22.703125 
Q 19.921875 21.921875 17.671875 20.9375 
Q 15.4375 19.96875 14.203125 18.09375 
Q 12.984375 16.21875 12.984375 13.921875 
Q 12.984375 10.40625 15.640625 8.0625 
Q 18.3125 5.71875 23.4375 5.71875 
Q 28.515625 5.71875 32.46875 7.9375 
Q 36.421875 10.15625 38.28125 14.015625 
Q 39.703125 17 39.703125 22.796875 
z
" id="ArialMT-97"/>
      </defs>
      <g style="fill:#262626;" transform="translate(163.574375 287.247187)scale(0.22 -0.22)">
       <use xlink:href="#ArialMT-84"/>
       <use x="61.083984" xlink:href="#ArialMT-104"/>
       <use x="116.699219" xlink:href="#ArialMT-101"/>
       <use x="172.314453" xlink:href="#ArialMT-116"/>
       <use x="200.097656" xlink:href="#ArialMT-97"/>
      </g>
     </g>
    </g>
    <g id="xtick_2">
     <g id="line2d_2">
      <g>
       <use style="fill:#262626;stroke:#262626;stroke-width:1.25;" x="359.1" xlink:href="#mfdf4904119" y="262"/>
      </g>
     </g>
     <g id="text_2">
      <!-- Alpha -->
      <defs>
       <path d="M -0.140625 0 
L 27.34375 71.578125 
L 37.546875 71.578125 
L 66.84375 0 
L 56.0625 0 
L 47.703125 21.6875 
L 17.78125 21.6875 
L 9.90625 0 
z
M 20.515625 29.390625 
L 44.78125 29.390625 
L 37.3125 49.21875 
Q 33.890625 58.25 32.234375 64.0625 
Q 30.859375 57.171875 28.375 50.390625 
z
" id="ArialMT-65"/>
       <path d="M 6.390625 0 
L 6.390625 71.578125 
L 15.1875 71.578125 
L 15.1875 0 
z
" id="ArialMT-108"/>
       <path d="M 6.59375 -19.875 
L 6.59375 51.859375 
L 14.59375 51.859375 
L 14.59375 45.125 
Q 17.4375 49.078125 21 51.046875 
Q 24.5625 53.03125 29.640625 53.03125 
Q 36.28125 53.03125 41.359375 49.609375 
Q 46.4375 46.1875 49.015625 39.953125 
Q 51.609375 33.734375 51.609375 26.3125 
Q 51.609375 18.359375 48.75 11.984375 
Q 45.90625 5.609375 40.453125 2.21875 
Q 35.015625 -1.171875 29 -1.171875 
Q 24.609375 -1.171875 21.109375 0.6875 
Q 17.625 2.546875 15.375 5.375 
L 15.375 -19.875 
z
M 14.546875 25.640625 
Q 14.546875 15.625 18.59375 10.84375 
Q 22.65625 6.0625 28.421875 6.0625 
Q 34.28125 6.0625 38.453125 11.015625 
Q 42.625 15.96875 42.625 26.375 
Q 42.625 36.28125 38.546875 41.203125 
Q 34.46875 46.140625 28.8125 46.140625 
Q 23.1875 46.140625 18.859375 40.890625 
Q 14.546875 35.640625 14.546875 25.640625 
z
" id="ArialMT-112"/>
      </defs>
      <g style="fill:#262626;" transform="translate(330.9675 287.247187)scale(0.22 -0.22)">
       <use xlink:href="#ArialMT-65"/>
       <use x="66.699219" xlink:href="#ArialMT-108"/>
       <use x="88.916016" xlink:href="#ArialMT-112"/>
       <use x="144.53125" xlink:href="#ArialMT-104"/>
       <use x="200.146484" xlink:href="#ArialMT-97"/>
      </g>
     </g>
    </g>
    <g id="xtick_3">
     <g id="line2d_3">
      <g>
       <use style="fill:#262626;stroke:#262626;stroke-width:1.25;" x="526.5" xlink:href="#mfdf4904119" y="262"/>
      </g>
     </g>
     <g id="text_3">
      <!-- Low-beta -->
      <defs>
       <path d="M 7.328125 0 
L 7.328125 71.578125 
L 16.796875 71.578125 
L 16.796875 8.453125 
L 52.046875 8.453125 
L 52.046875 0 
z
" id="ArialMT-76"/>
       <path d="M 3.328125 25.921875 
Q 3.328125 40.328125 11.328125 47.265625 
Q 18.015625 53.03125 27.640625 53.03125 
Q 38.328125 53.03125 45.109375 46.015625 
Q 51.90625 39.015625 51.90625 26.65625 
Q 51.90625 16.65625 48.90625 10.90625 
Q 45.90625 5.171875 40.15625 2 
Q 34.421875 -1.171875 27.640625 -1.171875 
Q 16.75 -1.171875 10.03125 5.8125 
Q 3.328125 12.796875 3.328125 25.921875 
z
M 12.359375 25.921875 
Q 12.359375 15.96875 16.703125 11.015625 
Q 21.046875 6.0625 27.640625 6.0625 
Q 34.1875 6.0625 38.53125 11.03125 
Q 42.875 16.015625 42.875 26.21875 
Q 42.875 35.84375 38.5 40.796875 
Q 34.125 45.75 27.640625 45.75 
Q 21.046875 45.75 16.703125 40.8125 
Q 12.359375 35.890625 12.359375 25.921875 
z
" id="ArialMT-111"/>
       <path d="M 16.15625 0 
L 0.296875 51.859375 
L 9.375 51.859375 
L 17.625 21.921875 
L 20.703125 10.796875 
Q 20.90625 11.625 23.390625 21.484375 
L 31.640625 51.859375 
L 40.671875 51.859375 
L 48.4375 21.78125 
L 51.03125 11.859375 
L 54 21.875 
L 62.890625 51.859375 
L 71.4375 51.859375 
L 55.21875 0 
L 46.09375 0 
L 37.84375 31.0625 
L 35.84375 39.890625 
L 25.34375 0 
z
" id="ArialMT-119"/>
       <path d="M 3.171875 21.484375 
L 3.171875 30.328125 
L 30.171875 30.328125 
L 30.171875 21.484375 
z
" id="ArialMT-45"/>
       <path d="M 14.703125 0 
L 6.546875 0 
L 6.546875 71.578125 
L 15.328125 71.578125 
L 15.328125 46.046875 
Q 20.90625 53.03125 29.546875 53.03125 
Q 34.328125 53.03125 38.59375 51.09375 
Q 42.875 49.171875 45.625 45.671875 
Q 48.390625 42.1875 49.953125 37.25 
Q 51.515625 32.328125 51.515625 26.703125 
Q 51.515625 13.375 44.921875 6.09375 
Q 38.328125 -1.171875 29.109375 -1.171875 
Q 19.921875 -1.171875 14.703125 6.5 
z
M 14.59375 26.3125 
Q 14.59375 17 17.140625 12.84375 
Q 21.296875 6.0625 28.375 6.0625 
Q 34.125 6.0625 38.328125 11.0625 
Q 42.53125 16.0625 42.53125 25.984375 
Q 42.53125 36.140625 38.5 40.96875 
Q 34.46875 45.796875 28.765625 45.796875 
Q 23 45.796875 18.796875 40.796875 
Q 14.59375 35.796875 14.59375 26.3125 
z
" id="ArialMT-98"/>
      </defs>
      <g style="fill:#262626;" transform="translate(481.252187 287.247187)scale(0.22 -0.22)">
       <use xlink:href="#ArialMT-76"/>
       <use x="55.615234" xlink:href="#ArialMT-111"/>
       <use x="111.230469" xlink:href="#ArialMT-119"/>
       <use x="183.447266" xlink:href="#ArialMT-45"/>
       <use x="216.748047" xlink:href="#ArialMT-98"/>
       <use x="272.363281" xlink:href="#ArialMT-101"/>
       <use x="327.978516" xlink:href="#ArialMT-116"/>
       <use x="355.761719" xlink:href="#ArialMT-97"/>
      </g>
     </g>
    </g>
    <g id="xtick_4">
     <g id="line2d_4">
      <g>
       <use style="fill:#262626;stroke:#262626;stroke-width:1.25;" x="693.9" xlink:href="#mfdf4904119" y="262"/>
      </g>
     </g>
     <g id="text_4">
      <!-- High-beta -->
      <defs>
       <path d="M 8.015625 0 
L 8.015625 71.578125 
L 17.484375 71.578125 
L 17.484375 42.1875 
L 54.6875 42.1875 
L 54.6875 71.578125 
L 64.15625 71.578125 
L 64.15625 0 
L 54.6875 0 
L 54.6875 33.734375 
L 17.484375 33.734375 
L 17.484375 0 
z
" id="ArialMT-72"/>
       <path d="M 6.640625 61.46875 
L 6.640625 71.578125 
L 15.4375 71.578125 
L 15.4375 61.46875 
z
M 6.640625 0 
L 6.640625 51.859375 
L 15.4375 51.859375 
L 15.4375 0 
z
" id="ArialMT-105"/>
       <path d="M 4.984375 -4.296875 
L 13.53125 -5.5625 
Q 14.0625 -9.515625 16.5 -11.328125 
Q 19.78125 -13.765625 25.4375 -13.765625 
Q 31.546875 -13.765625 34.859375 -11.328125 
Q 38.1875 -8.890625 39.359375 -4.5 
Q 40.046875 -1.8125 39.984375 6.78125 
Q 34.234375 0 25.640625 0 
Q 14.9375 0 9.078125 7.71875 
Q 3.21875 15.4375 3.21875 26.21875 
Q 3.21875 33.640625 5.90625 39.90625 
Q 8.59375 46.1875 13.6875 49.609375 
Q 18.796875 53.03125 25.6875 53.03125 
Q 34.859375 53.03125 40.828125 45.609375 
L 40.828125 51.859375 
L 48.921875 51.859375 
L 48.921875 7.03125 
Q 48.921875 -5.078125 46.453125 -10.125 
Q 44 -15.1875 38.640625 -18.109375 
Q 33.296875 -21.046875 25.484375 -21.046875 
Q 16.21875 -21.046875 10.5 -16.875 
Q 4.78125 -12.703125 4.984375 -4.296875 
z
M 12.25 26.859375 
Q 12.25 16.65625 16.296875 11.96875 
Q 20.359375 7.28125 26.46875 7.28125 
Q 32.515625 7.28125 36.609375 11.9375 
Q 40.71875 16.609375 40.71875 26.5625 
Q 40.71875 36.078125 36.5 40.90625 
Q 32.28125 45.75 26.3125 45.75 
Q 20.453125 45.75 16.34375 40.984375 
Q 12.25 36.234375 12.25 26.859375 
z
" id="ArialMT-103"/>
      </defs>
      <g style="fill:#262626;" transform="translate(646.208125 287.247187)scale(0.22 -0.22)">
       <use xlink:href="#ArialMT-72"/>
       <use x="72.216797" xlink:href="#ArialMT-105"/>
       <use x="94.433594" xlink:href="#ArialMT-103"/>
       <use x="150.048828" xlink:href="#ArialMT-104"/>
       <use x="205.664062" xlink:href="#ArialMT-45"/>
       <use x="238.964844" xlink:href="#ArialMT-98"/>
       <use x="294.580078" xlink:href="#ArialMT-101"/>
       <use x="350.195312" xlink:href="#ArialMT-116"/>
       <use x="377.978516" xlink:href="#ArialMT-97"/>
      </g>
     </g>
    </g>
   </g>
   <g id="matplotlib.axis_2">
    <g id="ytick_1">
     <g id="line2d_5">
      <defs>
       <path d="M 0 0 
L -6 0 
" id="mbc4d74f6c8" style="stroke:#262626;stroke-width:1.25;"/>
      </defs>
      <g>
       <use style="fill:#262626;stroke:#262626;stroke-width:1.25;" x="98" xlink:href="#mbc4d74f6c8" y="246.584423"/>
      </g>
     </g>
     <g id="text_5">
      <!-- −1.0 -->
      <defs>
       <path d="M 52.828125 31.203125 
L 5.5625 31.203125 
L 5.5625 39.40625 
L 52.828125 39.40625 
z
" id="ArialMT-8722"/>
       <path d="M 37.25 0 
L 28.46875 0 
L 28.46875 56 
Q 25.296875 52.984375 20.140625 49.953125 
Q 14.984375 46.921875 10.890625 45.40625 
L 10.890625 53.90625 
Q 18.265625 57.375 23.78125 62.296875 
Q 29.296875 67.234375 31.59375 71.875 
L 37.25 71.875 
z
" id="ArialMT-49"/>
       <path d="M 9.078125 0 
L 9.078125 10.015625 
L 19.09375 10.015625 
L 19.09375 0 
z
" id="ArialMT-46"/>
       <path d="M 4.15625 35.296875 
Q 4.15625 48 6.765625 55.734375 
Q 9.375 63.484375 14.515625 67.671875 
Q 19.671875 71.875 27.484375 71.875 
Q 33.25 71.875 37.59375 69.546875 
Q 41.9375 67.234375 44.765625 62.859375 
Q 47.609375 58.5 49.21875 52.21875 
Q 50.828125 45.953125 50.828125 35.296875 
Q 50.828125 22.703125 48.234375 14.96875 
Q 45.65625 7.234375 40.5 3 
Q 35.359375 -1.21875 27.484375 -1.21875 
Q 17.140625 -1.21875 11.234375 6.203125 
Q 4.15625 15.140625 4.15625 35.296875 
z
M 13.1875 35.296875 
Q 13.1875 17.671875 17.3125 11.828125 
Q 21.4375 6 27.484375 6 
Q 33.546875 6 37.671875 11.859375 
Q 41.796875 17.71875 41.796875 35.296875 
Q 41.796875 52.984375 37.671875 58.78125 
Q 33.546875 64.59375 27.390625 64.59375 
Q 21.34375 64.59375 17.71875 59.46875 
Q 13.1875 52.9375 13.1875 35.296875 
z
" id="ArialMT-48"/>
      </defs>
      <g style="fill:#262626;" transform="translate(45.070625 254.458017)scale(0.22 -0.22)">
       <use xlink:href="#ArialMT-8722"/>
       <use x="58.398438" xlink:href="#ArialMT-49"/>
       <use x="114.013672" xlink:href="#ArialMT-46"/>
       <use x="141.796875" xlink:href="#ArialMT-48"/>
      </g>
     </g>
    </g>
    <g id="ytick_2">
     <g id="line2d_6">
      <g>
       <use style="fill:#262626;stroke:#262626;stroke-width:1.25;" x="98" xlink:href="#mbc4d74f6c8" y="171.290163"/>
      </g>
     </g>
     <g id="text_6">
      <!-- −0.5 -->
      <defs>
       <path d="M 4.15625 18.75 
L 13.375 19.53125 
Q 14.40625 12.796875 18.140625 9.390625 
Q 21.875 6 27.15625 6 
Q 33.5 6 37.890625 10.78125 
Q 42.28125 15.578125 42.28125 23.484375 
Q 42.28125 31 38.0625 35.34375 
Q 33.84375 39.703125 27 39.703125 
Q 22.75 39.703125 19.328125 37.765625 
Q 15.921875 35.84375 13.96875 32.765625 
L 5.71875 33.84375 
L 12.640625 70.609375 
L 48.25 70.609375 
L 48.25 62.203125 
L 19.671875 62.203125 
L 15.828125 42.96875 
Q 22.265625 47.46875 29.34375 47.46875 
Q 38.71875 47.46875 45.15625 40.96875 
Q 51.609375 34.46875 51.609375 24.265625 
Q 51.609375 14.546875 45.953125 7.46875 
Q 39.0625 -1.21875 27.15625 -1.21875 
Q 17.390625 -1.21875 11.203125 4.25 
Q 5.03125 9.71875 4.15625 18.75 
z
" id="ArialMT-53"/>
      </defs>
      <g style="fill:#262626;" transform="translate(45.070625 179.163757)scale(0.22 -0.22)">
       <use xlink:href="#ArialMT-8722"/>
       <use x="58.398438" xlink:href="#ArialMT-48"/>
       <use x="114.013672" xlink:href="#ArialMT-46"/>
       <use x="141.796875" xlink:href="#ArialMT-53"/>
      </g>
     </g>
    </g>
    <g id="ytick_3">
     <g id="line2d_7">
      <g>
       <use style="fill:#262626;stroke:#262626;stroke-width:1.25;" x="98" xlink:href="#mbc4d74f6c8" y="95.995903"/>
      </g>
     </g>
     <g id="text_7">
      <!-- 0.0 -->
      <g style="fill:#262626;" transform="translate(57.92 103.869497)scale(0.22 -0.22)">
       <use xlink:href="#ArialMT-48"/>
       <use x="55.615234" xlink:href="#ArialMT-46"/>
       <use x="83.398438" xlink:href="#ArialMT-48"/>
      </g>
     </g>
    </g>
    <g id="text_8">
     <!-- $\Delta$ % decrease -->
     <defs>
      <path d="M 34.1875 63.1875 
L 14.15625 8.203125 
L 54.25 8.203125 
z
M 0.78125 0 
L 28.609375 72.90625 
L 39.796875 72.90625 
L 67.578125 0 
z
" id="DejaVuSans-916"/>
      <path id="Arial-BoldMT-32"/>
      <path d="M 4.34375 53.90625 
Q 4.34375 63.53125 8.5625 68.15625 
Q 12.796875 72.796875 20.015625 72.796875 
Q 27.484375 72.796875 31.703125 68.1875 
Q 35.9375 63.578125 35.9375 53.90625 
Q 35.9375 44.28125 31.703125 39.640625 
Q 27.484375 35.015625 20.265625 35.015625 
Q 12.796875 35.015625 8.5625 39.625 
Q 4.34375 44.234375 4.34375 53.90625 
z
M 15.046875 54 
Q 15.046875 47.015625 16.65625 44.625 
Q 17.875 42.875 20.015625 42.875 
Q 22.21875 42.875 23.4375 44.625 
Q 25 47.015625 25 54 
Q 25 60.984375 23.4375 63.328125 
Q 22.21875 65.140625 20.015625 65.140625 
Q 17.875 65.140625 16.65625 63.375 
Q 15.046875 60.984375 15.046875 54 
z
M 30.46875 -2.734375 
L 20.3125 -2.734375 
L 58.453125 72.796875 
L 68.3125 72.796875 
z
M 52.640625 16.0625 
Q 52.640625 25.6875 56.859375 30.328125 
Q 61.078125 34.96875 68.40625 34.96875 
Q 75.78125 34.96875 80 30.328125 
Q 84.234375 25.6875 84.234375 16.0625 
Q 84.234375 6.390625 80 1.75 
Q 75.78125 -2.875 68.5625 -2.875 
Q 61.078125 -2.875 56.859375 1.75 
Q 52.640625 6.390625 52.640625 16.0625 
z
M 63.328125 16.109375 
Q 63.328125 9.125 64.9375 6.78125 
Q 66.15625 4.984375 68.3125 4.984375 
Q 70.515625 4.984375 71.6875 6.734375 
Q 73.296875 9.125 73.296875 16.109375 
Q 73.296875 23.09375 71.734375 25.484375 
Q 70.515625 27.25 68.3125 27.25 
Q 66.109375 27.25 64.9375 25.484375 
Q 63.328125 23.09375 63.328125 16.109375 
z
" id="Arial-BoldMT-37"/>
      <path d="M 54.734375 0 
L 42 0 
L 42 7.625 
Q 38.8125 3.171875 34.484375 1 
Q 30.171875 -1.171875 25.78125 -1.171875 
Q 16.84375 -1.171875 10.46875 6.03125 
Q 4.109375 13.234375 4.109375 26.125 
Q 4.109375 39.3125 10.296875 46.171875 
Q 16.5 53.03125 25.984375 53.03125 
Q 34.671875 53.03125 41.015625 45.796875 
L 41.015625 71.578125 
L 54.734375 71.578125 
z
M 18.109375 27.046875 
Q 18.109375 18.75 20.40625 15.046875 
Q 23.734375 9.671875 29.6875 9.671875 
Q 34.421875 9.671875 37.734375 13.6875 
Q 41.0625 17.71875 41.0625 25.734375 
Q 41.0625 34.671875 37.84375 38.59375 
Q 34.625 42.53125 29.59375 42.53125 
Q 24.703125 42.53125 21.40625 38.640625 
Q 18.109375 34.765625 18.109375 27.046875 
z
" id="Arial-BoldMT-100"/>
      <path d="M 37.203125 16.5 
L 50.875 14.203125 
Q 48.25 6.6875 42.546875 2.75 
Q 36.859375 -1.171875 28.328125 -1.171875 
Q 14.796875 -1.171875 8.296875 7.671875 
Q 3.171875 14.75 3.171875 25.53125 
Q 3.171875 38.421875 9.90625 45.71875 
Q 16.65625 53.03125 26.953125 53.03125 
Q 38.53125 53.03125 45.21875 45.390625 
Q 51.90625 37.75 51.609375 21.96875 
L 17.234375 21.96875 
Q 17.390625 15.875 20.5625 12.46875 
Q 23.734375 9.078125 28.46875 9.078125 
Q 31.6875 9.078125 33.875 10.828125 
Q 36.078125 12.59375 37.203125 16.5 
z
M 37.984375 30.375 
Q 37.84375 36.328125 34.90625 39.421875 
Q 31.984375 42.53125 27.78125 42.53125 
Q 23.296875 42.53125 20.359375 39.265625 
Q 17.4375 35.984375 17.484375 30.375 
z
" id="Arial-BoldMT-101"/>
      <path d="M 52.390625 36.53125 
L 38.875 34.078125 
Q 38.1875 38.140625 35.765625 40.1875 
Q 33.34375 42.234375 29.5 42.234375 
Q 24.359375 42.234375 21.3125 38.6875 
Q 18.265625 35.15625 18.265625 26.859375 
Q 18.265625 17.625 21.359375 13.8125 
Q 24.46875 10.015625 29.6875 10.015625 
Q 33.59375 10.015625 36.078125 12.234375 
Q 38.578125 14.453125 39.59375 19.875 
L 53.078125 17.578125 
Q 50.984375 8.296875 45.015625 3.5625 
Q 39.0625 -1.171875 29.046875 -1.171875 
Q 17.671875 -1.171875 10.90625 6 
Q 4.15625 13.1875 4.15625 25.875 
Q 4.15625 38.71875 10.9375 45.875 
Q 17.71875 53.03125 29.296875 53.03125 
Q 38.765625 53.03125 44.359375 48.953125 
Q 49.953125 44.875 52.390625 36.53125 
z
" id="Arial-BoldMT-99"/>
      <path d="M 20.3125 0 
L 6.59375 0 
L 6.59375 51.859375 
L 19.34375 51.859375 
L 19.34375 44.484375 
Q 22.609375 49.703125 25.21875 51.359375 
Q 27.828125 53.03125 31.15625 53.03125 
Q 35.84375 53.03125 40.1875 50.4375 
L 35.9375 38.484375 
Q 32.46875 40.71875 29.5 40.71875 
Q 26.609375 40.71875 24.609375 39.125 
Q 22.609375 37.546875 21.453125 33.390625 
Q 20.3125 29.25 20.3125 16.015625 
z
" id="Arial-BoldMT-114"/>
      <path d="M 17.4375 36.03125 
L 4.984375 38.28125 
Q 7.078125 45.796875 12.203125 49.40625 
Q 17.328125 53.03125 27.4375 53.03125 
Q 36.625 53.03125 41.109375 50.859375 
Q 45.609375 48.6875 47.4375 45.34375 
Q 49.265625 42 49.265625 33.0625 
L 49.125 17.046875 
Q 49.125 10.203125 49.78125 6.953125 
Q 50.4375 3.71875 52.25 0 
L 38.671875 0 
Q 38.140625 1.375 37.359375 4.046875 
Q 37.015625 5.28125 36.859375 5.671875 
Q 33.34375 2.25 29.34375 0.53125 
Q 25.34375 -1.171875 20.796875 -1.171875 
Q 12.796875 -1.171875 8.171875 3.171875 
Q 3.5625 7.515625 3.5625 14.15625 
Q 3.5625 18.5625 5.65625 22 
Q 7.765625 25.4375 11.546875 27.265625 
Q 15.328125 29.109375 22.46875 30.46875 
Q 32.078125 32.28125 35.796875 33.84375 
L 35.796875 35.203125 
Q 35.796875 39.15625 33.84375 40.84375 
Q 31.890625 42.53125 26.46875 42.53125 
Q 22.796875 42.53125 20.75 41.09375 
Q 18.703125 39.65625 17.4375 36.03125 
z
M 35.796875 24.90625 
Q 33.15625 24.03125 27.4375 22.796875 
Q 21.734375 21.578125 19.96875 20.40625 
Q 17.28125 18.5 17.28125 15.578125 
Q 17.28125 12.703125 19.421875 10.59375 
Q 21.578125 8.5 24.90625 8.5 
Q 28.609375 8.5 31.984375 10.9375 
Q 34.46875 12.796875 35.25 15.484375 
Q 35.796875 17.234375 35.796875 22.171875 
z
" id="Arial-BoldMT-97"/>
      <path d="M 2.34375 14.796875 
L 16.109375 16.890625 
Q 17 12.890625 19.671875 10.8125 
Q 22.359375 8.734375 27.203125 8.734375 
Q 32.515625 8.734375 35.203125 10.6875 
Q 37.015625 12.0625 37.015625 14.359375 
Q 37.015625 15.921875 36.03125 16.9375 
Q 35.015625 17.921875 31.453125 18.75 
Q 14.84375 22.40625 10.40625 25.4375 
Q 4.25 29.640625 4.25 37.109375 
Q 4.25 43.84375 9.5625 48.4375 
Q 14.890625 53.03125 26.078125 53.03125 
Q 36.71875 53.03125 41.890625 49.5625 
Q 47.078125 46.09375 49.03125 39.3125 
L 36.078125 36.921875 
Q 35.25 39.9375 32.921875 41.546875 
Q 30.609375 43.171875 26.3125 43.171875 
Q 20.90625 43.171875 18.5625 41.65625 
Q 17 40.578125 17 38.875 
Q 17 37.40625 18.359375 36.375 
Q 20.21875 35.015625 31.171875 32.515625 
Q 42.140625 30.03125 46.484375 26.421875 
Q 50.78125 22.75 50.78125 16.21875 
Q 50.78125 9.078125 44.828125 3.953125 
Q 38.875 -1.171875 27.203125 -1.171875 
Q 16.609375 -1.171875 10.421875 3.125 
Q 4.25 7.421875 2.34375 14.796875 
z
" id="Arial-BoldMT-115"/>
     </defs>
     <g style="fill:#262626;" transform="translate(36.137031 224.155)rotate(-90)scale(0.25 -0.25)">
      <use transform="translate(0 0.09375)" xlink:href="#DejaVuSans-916"/>
      <use transform="translate(68.408203 0.09375)" xlink:href="#Arial-BoldMT-32"/>
      <use transform="translate(96.191406 0.09375)" xlink:href="#Arial-BoldMT-37"/>
      <use transform="translate(185.107422 0.09375)" xlink:href="#Arial-BoldMT-32"/>
      <use transform="translate(212.890625 0.09375)" xlink:href="#Arial-BoldMT-100"/>
      <use transform="translate(273.974609 0.09375)" xlink:href="#Arial-BoldMT-101"/>
      <use transform="translate(329.589844 0.09375)" xlink:href="#Arial-BoldMT-99"/>
      <use transform="translate(385.205078 0.09375)" xlink:href="#Arial-BoldMT-114"/>
      <use transform="translate(424.121094 0.09375)" xlink:href="#Arial-BoldMT-101"/>
      <use transform="translate(479.736328 0.09375)" xlink:href="#Arial-BoldMT-97"/>
      <use transform="translate(535.351562 0.09375)" xlink:href="#Arial-BoldMT-115"/>
      <use transform="translate(590.966797 0.09375)" xlink:href="#Arial-BoldMT-101"/>
     </g>
    </g>
   </g>
   <g id="PathCollection_1"/>
   <g id="PathCollection_2"/>
   <g id="patch_3">
    <path clip-path="url(#pfd406d85de)" d="M 124.74 95.995903 
L 191.7 95.995903 
L 191.7 112.956296 
L 124.74 112.956296 
z
" style="fill:#f5bcb9;stroke:#333333;stroke-linejoin:miter;stroke-width:2;"/>
   </g>
   <g id="patch_4">
    <path clip-path="url(#pfd406d85de)" d="M 292.14 95.995903 
L 359.1 95.995903 
L 359.1 103.832355 
L 292.14 103.832355 
z
" style="fill:#f5bcb9;stroke:#333333;stroke-linejoin:miter;stroke-width:2;"/>
   </g>
   <g id="patch_5">
    <path clip-path="url(#pfd406d85de)" d="M 459.54 95.995903 
L 526.5 95.995903 
L 526.5 106.75344 
L 459.54 106.75344 
z
" style="fill:#f5bcb9;stroke:#333333;stroke-linejoin:miter;stroke-width:2;"/>
   </g>
   <g id="patch_6">
    <path clip-path="url(#pfd406d85de)" d="M 626.94 95.995903 
L 693.9 95.995903 
L 693.9 104.497459 
L 626.94 104.497459 
z
" style="fill:#f5bcb9;stroke:#333333;stroke-linejoin:miter;stroke-width:2;"/>
   </g>
   <g id="patch_7">
    <path clip-path="url(#pfd406d85de)" d="M 191.7 95.995903 
L 258.66 95.995903 
L 258.66 140.035855 
L 191.7 140.035855 
z
" style="fill:#c8645e;stroke:#333333;stroke-linejoin:miter;stroke-width:2;"/>
   </g>
   <g id="patch_8">
    <path clip-path="url(#pfd406d85de)" d="M 359.1 95.995903 
L 426.06 95.995903 
L 426.06 120.941884 
L 359.1 120.941884 
z
" style="fill:#c8645e;stroke:#333333;stroke-linejoin:miter;stroke-width:2;"/>
   </g>
   <g id="patch_9">
    <path clip-path="url(#pfd406d85de)" d="M 526.5 95.995903 
L 593.46 95.995903 
L 593.46 116.745381 
L 526.5 116.745381 
z
" style="fill:#c8645e;stroke:#333333;stroke-linejoin:miter;stroke-width:2;"/>
   </g>
   <g id="patch_10">
    <path clip-path="url(#pfd406d85de)" d="M 693.9 95.995903 
L 760.86 95.995903 
L 760.86 114.866524 
L 693.9 114.866524 
z
" style="fill:#c8645e;stroke:#333333;stroke-linejoin:miter;stroke-width:2;"/>
   </g>
   <g id="line2d_8">
    <path clip-path="url(#pfd406d85de)" d="M 158.22 117.319672 
L 158.22 108.452984 
" style="fill:none;stroke:#424242;stroke-linecap:round;stroke-width:2.7;"/>
   </g>
   <g id="line2d_9">
    <path clip-path="url(#pfd406d85de)" d="M 154.035 117.319672 
L 162.405 117.319672 
" style="fill:none;stroke:#424242;stroke-linecap:round;stroke-width:2.7;"/>
   </g>
   <g id="line2d_10">
    <path clip-path="url(#pfd406d85de)" d="M 154.035 108.452984 
L 162.405 108.452984 
" style="fill:none;stroke:#424242;stroke-linecap:round;stroke-width:2.7;"/>
   </g>
   <g id="line2d_11">
    <path clip-path="url(#pfd406d85de)" d="M 325.62 110.146366 
L 325.62 97.55428 
" style="fill:none;stroke:#424242;stroke-linecap:round;stroke-width:2.7;"/>
   </g>
   <g id="line2d_12">
    <path clip-path="url(#pfd406d85de)" d="M 321.435 110.146366 
L 329.805 110.146366 
" style="fill:none;stroke:#424242;stroke-linecap:round;stroke-width:2.7;"/>
   </g>
   <g id="line2d_13">
    <path clip-path="url(#pfd406d85de)" d="M 321.435 97.55428 
L 329.805 97.55428 
" style="fill:none;stroke:#424242;stroke-linecap:round;stroke-width:2.7;"/>
   </g>
   <g id="line2d_14">
    <path clip-path="url(#pfd406d85de)" d="M 493.02 110.793077 
L 493.02 102.7725 
" style="fill:none;stroke:#424242;stroke-linecap:round;stroke-width:2.7;"/>
   </g>
   <g id="line2d_15">
    <path clip-path="url(#pfd406d85de)" d="M 488.835 110.793077 
L 497.205 110.793077 
" style="fill:none;stroke:#424242;stroke-linecap:round;stroke-width:2.7;"/>
   </g>
   <g id="line2d_16">
    <path clip-path="url(#pfd406d85de)" d="M 488.835 102.7725 
L 497.205 102.7725 
" style="fill:none;stroke:#424242;stroke-linecap:round;stroke-width:2.7;"/>
   </g>
   <g id="line2d_17">
    <path clip-path="url(#pfd406d85de)" d="M 660.42 108.222801 
L 660.42 100.939742 
" style="fill:none;stroke:#424242;stroke-linecap:round;stroke-width:2.7;"/>
   </g>
   <g id="line2d_18">
    <path clip-path="url(#pfd406d85de)" d="M 656.235 108.222801 
L 664.605 108.222801 
" style="fill:none;stroke:#424242;stroke-linecap:round;stroke-width:2.7;"/>
   </g>
   <g id="line2d_19">
    <path clip-path="url(#pfd406d85de)" d="M 656.235 100.939742 
L 664.605 100.939742 
" style="fill:none;stroke:#424242;stroke-linecap:round;stroke-width:2.7;"/>
   </g>
   <g id="line2d_20">
    <path clip-path="url(#pfd406d85de)" d="M 225.18 150.537136 
L 225.18 129.135397 
" style="fill:none;stroke:#424242;stroke-linecap:round;stroke-width:2.7;"/>
   </g>
   <g id="line2d_21">
    <path clip-path="url(#pfd406d85de)" d="M 220.995 150.537136 
L 229.365 150.537136 
" style="fill:none;stroke:#424242;stroke-linecap:round;stroke-width:2.7;"/>
   </g>
   <g id="line2d_22">
    <path clip-path="url(#pfd406d85de)" d="M 220.995 129.135397 
L 229.365 129.135397 
" style="fill:none;stroke:#424242;stroke-linecap:round;stroke-width:2.7;"/>
   </g>
   <g id="line2d_23">
    <path clip-path="url(#pfd406d85de)" d="M 392.58 129.907474 
L 392.58 112.319363 
" style="fill:none;stroke:#424242;stroke-linecap:round;stroke-width:2.7;"/>
   </g>
   <g id="line2d_24">
    <path clip-path="url(#pfd406d85de)" d="M 388.395 129.907474 
L 396.765 129.907474 
" style="fill:none;stroke:#424242;stroke-linecap:round;stroke-width:2.7;"/>
   </g>
   <g id="line2d_25">
    <path clip-path="url(#pfd406d85de)" d="M 388.395 112.319363 
L 396.765 112.319363 
" style="fill:none;stroke:#424242;stroke-linecap:round;stroke-width:2.7;"/>
   </g>
   <g id="line2d_26">
    <path clip-path="url(#pfd406d85de)" d="M 559.98 123.11665 
L 559.98 109.768191 
" style="fill:none;stroke:#424242;stroke-linecap:round;stroke-width:2.7;"/>
   </g>
   <g id="line2d_27">
    <path clip-path="url(#pfd406d85de)" d="M 555.795 123.11665 
L 564.165 123.11665 
" style="fill:none;stroke:#424242;stroke-linecap:round;stroke-width:2.7;"/>
   </g>
   <g id="line2d_28">
    <path clip-path="url(#pfd406d85de)" d="M 555.795 109.768191 
L 564.165 109.768191 
" style="fill:none;stroke:#424242;stroke-linecap:round;stroke-width:2.7;"/>
   </g>
   <g id="line2d_29">
    <path clip-path="url(#pfd406d85de)" d="M 727.38 126.454104 
L 727.38 103.508916 
" style="fill:none;stroke:#424242;stroke-linecap:round;stroke-width:2.7;"/>
   </g>
   <g id="line2d_30">
    <path clip-path="url(#pfd406d85de)" d="M 723.195 126.454104 
L 731.565 126.454104 
" style="fill:none;stroke:#424242;stroke-linecap:round;stroke-width:2.7;"/>
   </g>
   <g id="line2d_31">
    <path clip-path="url(#pfd406d85de)" d="M 723.195 103.508916 
L 731.565 103.508916 
" style="fill:none;stroke:#424242;stroke-linecap:round;stroke-width:2.7;"/>
   </g>
   <g id="line2d_32">
    <path clip-path="url(#pfd406d85de)" d="M 108 95.995903 
L 777.6 95.995903 
" style="fill:none;stroke:#1a1a1a;stroke-dasharray:5.55,2.4;stroke-dashoffset:0;stroke-width:1.5;"/>
   </g>
   <g id="patch_11">
    <path d="M 98 246.584423 
L 98 95.995903 
" style="fill:none;stroke:#262626;stroke-linecap:square;stroke-linejoin:miter;stroke-width:1.25;"/>
   </g>
   <g id="patch_12">
    <path d="M 191.7 262 
L 693.9 262 
" style="fill:none;stroke:#262626;stroke-linecap:square;stroke-linejoin:miter;stroke-width:1.25;"/>
   </g>
   <g id="PathCollection_3">
    <defs>
     <path d="M 0 2.5 
C 0.663008 2.5 1.29895 2.236584 1.767767 1.767767 
C 2.236584 1.29895 2.5 0.663008 2.5 0 
C 2.5 -0.663008 2.236584 -1.29895 1.767767 -1.767767 
C 1.29895 -2.236584 0.663008 -2.5 0 -2.5 
C -0.663008 -2.5 -1.29895 -2.236584 -1.767767 -1.767767 
C -2.236584 -1.29895 -2.5 -0.663008 -2.5 0 
C -2.5 0.663008 -2.236584 1.29895 -1.767767 1.767767 
C -1.29895 2.236584 -0.663008 2.5 0 2.5 
z
" id="C0_0_508c6359da"/>
    </defs>
    <g clip-path="url(#pfd406d85de)">
     <use style="fill:#222222;fill-opacity:0.6;" x="162.38118" xlink:href="#C0_0_508c6359da" y="121.061051"/>
    </g>
    <g clip-path="url(#pfd406d85de)">
     <use style="fill:#222222;fill-opacity:0.6;" x="157.000669" xlink:href="#C0_0_508c6359da" y="108.668465"/>
    </g>
    <g clip-path="url(#pfd406d85de)">
     <use style="fill:#222222;fill-opacity:0.6;" x="152.889338" xlink:href="#C0_0_508c6359da" y="96.857366"/>
    </g>
    <g clip-path="url(#pfd406d85de)">
     <use style="fill:#222222;fill-opacity:0.6;" x="156.992591" xlink:href="#C0_0_508c6359da" y="153.86589"/>
    </g>
    <g clip-path="url(#pfd406d85de)">
     <use style="fill:#222222;fill-opacity:0.6;" x="153.188014" xlink:href="#C0_0_508c6359da" y="93.511405"/>
    </g>
    <g clip-path="url(#pfd406d85de)">
     <use style="fill:#222222;fill-opacity:0.6;" x="159.653018" xlink:href="#C0_0_508c6359da" y="99.805135"/>
    </g>
    <g clip-path="url(#pfd406d85de)">
     <use style="fill:#222222;fill-opacity:0.6;" x="160.644646" xlink:href="#C0_0_508c6359da" y="124.159191"/>
    </g>
    <g clip-path="url(#pfd406d85de)">
     <use style="fill:#222222;fill-opacity:0.6;" x="161.200356" xlink:href="#C0_0_508c6359da" y="106.457041"/>
    </g>
    <g clip-path="url(#pfd406d85de)">
     <use style="fill:#222222;fill-opacity:0.6;" x="157.846957" xlink:href="#C0_0_508c6359da" y="124.080054"/>
    </g>
    <g clip-path="url(#pfd406d85de)">
     <use style="fill:#222222;fill-opacity:0.6;" x="161.044246" xlink:href="#C0_0_508c6359da" y="104.963674"/>
    </g>
    <g clip-path="url(#pfd406d85de)">
     <use style="fill:#222222;fill-opacity:0.6;" x="154.628207" xlink:href="#C0_0_508c6359da" y="107.983302"/>
    </g>
    <g clip-path="url(#pfd406d85de)">
     <use style="fill:#222222;fill-opacity:0.6;" x="159.003981" xlink:href="#C0_0_508c6359da" y="114.062978"/>
    </g>
   </g>
   <g id="PathCollection_4">
    <defs>
     <path d="M 0 2.5 
C 0.663008 2.5 1.29895 2.236584 1.767767 1.767767 
C 2.236584 1.29895 2.5 0.663008 2.5 0 
C 2.5 -0.663008 2.236584 -1.29895 1.767767 -1.767767 
C 1.29895 -2.236584 0.663008 -2.5 0 -2.5 
C -0.663008 -2.5 -1.29895 -2.236584 -1.767767 -1.767767 
C -2.236584 -1.29895 -2.5 -0.663008 -2.5 0 
C -2.5 0.663008 -2.236584 1.29895 -1.767767 1.767767 
C -1.29895 2.236584 -0.663008 2.5 0 2.5 
z
" id="C1_0_53c51195c9"/>
    </defs>
    <g clip-path="url(#pfd406d85de)">
     <use style="fill:#1a1a1a;fill-opacity:0.6;" x="227.194093" xlink:href="#C1_0_53c51195c9" y="146.047407"/>
    </g>
    <g clip-path="url(#pfd406d85de)">
     <use style="fill:#1a1a1a;fill-opacity:0.6;" x="222.164576" xlink:href="#C1_0_53c51195c9" y="131.714598"/>
    </g>
    <g clip-path="url(#pfd406d85de)">
     <use style="fill:#1a1a1a;fill-opacity:0.6;" x="223.255154" xlink:href="#C1_0_53c51195c9" y="241.336396"/>
    </g>
    <g clip-path="url(#pfd406d85de)">
     <use style="fill:#1a1a1a;fill-opacity:0.6;" x="221.347272" xlink:href="#C1_0_53c51195c9" y="132.551678"/>
    </g>
    <g clip-path="url(#pfd406d85de)">
     <use style="fill:#1a1a1a;fill-opacity:0.6;" x="224.532556" xlink:href="#C1_0_53c51195c9" y="89.66367"/>
    </g>
    <g clip-path="url(#pfd406d85de)">
     <use style="fill:#1a1a1a;fill-opacity:0.6;" x="219.797571" xlink:href="#C1_0_53c51195c9" y="113.961766"/>
    </g>
    <g clip-path="url(#pfd406d85de)">
     <use style="fill:#1a1a1a;fill-opacity:0.6;" x="226.438648" xlink:href="#C1_0_53c51195c9" y="108.343275"/>
    </g>
    <g clip-path="url(#pfd406d85de)">
     <use style="fill:#1a1a1a;fill-opacity:0.6;" x="220.374182" xlink:href="#C1_0_53c51195c9" y="160.374947"/>
    </g>
    <g clip-path="url(#pfd406d85de)">
     <use style="fill:#1a1a1a;fill-opacity:0.6;" x="225.027986" xlink:href="#C1_0_53c51195c9" y="144.586058"/>
    </g>
    <g clip-path="url(#pfd406d85de)">
     <use style="fill:#1a1a1a;fill-opacity:0.6;" x="220.64314" xlink:href="#C1_0_53c51195c9" y="152.939972"/>
    </g>
    <g clip-path="url(#pfd406d85de)">
     <use style="fill:#1a1a1a;fill-opacity:0.6;" x="226.07256" xlink:href="#C1_0_53c51195c9" y="109.128271"/>
    </g>
    <g clip-path="url(#pfd406d85de)">
     <use style="fill:#1a1a1a;fill-opacity:0.6;" x="229.154404" xlink:href="#C1_0_53c51195c9" y="149.782225"/>
    </g>
   </g>
   <g id="PathCollection_5">
    <defs>
     <path d="M 0 2.5 
C 0.663008 2.5 1.29895 2.236584 1.767767 1.767767 
C 2.236584 1.29895 2.5 0.663008 2.5 0 
C 2.5 -0.663008 2.236584 -1.29895 1.767767 -1.767767 
C 1.29895 -2.236584 0.663008 -2.5 0 -2.5 
C -0.663008 -2.5 -1.29895 -2.236584 -1.767767 -1.767767 
C -2.236584 -1.29895 -2.5 -0.663008 -2.5 0 
C -2.5 0.663008 -2.236584 1.29895 -1.767767 1.767767 
C -1.29895 2.236584 -0.663008 2.5 0 2.5 
z
" id="C2_0_8d833ee84b"/>
    </defs>
    <g clip-path="url(#pfd406d85de)">
     <use style="fill:#222222;fill-opacity:0.6;" x="322.705808" xlink:href="#C2_0_8d833ee84b" y="102.03626"/>
    </g>
    <g clip-path="url(#pfd406d85de)">
     <use style="fill:#222222;fill-opacity:0.6;" x="324.886823" xlink:href="#C2_0_8d833ee84b" y="46.381595"/>
    </g>
    <g clip-path="url(#pfd406d85de)">
     <use style="fill:#222222;fill-opacity:0.6;" x="320.306133" xlink:href="#C2_0_8d833ee84b" y="94.879786"/>
    </g>
    <g clip-path="url(#pfd406d85de)">
     <use style="fill:#222222;fill-opacity:0.6;" x="324.867999" xlink:href="#C2_0_8d833ee84b" y="128.925226"/>
    </g>
    <g clip-path="url(#pfd406d85de)">
     <use style="fill:#222222;fill-opacity:0.6;" x="325.81655" xlink:href="#C2_0_8d833ee84b" y="100.373301"/>
    </g>
    <g clip-path="url(#pfd406d85de)">
     <use style="fill:#222222;fill-opacity:0.6;" x="325.008856" xlink:href="#C2_0_8d833ee84b" y="114.253709"/>
    </g>
    <g clip-path="url(#pfd406d85de)">
     <use style="fill:#222222;fill-opacity:0.6;" x="322.885167" xlink:href="#C2_0_8d833ee84b" y="90.504608"/>
    </g>
    <g clip-path="url(#pfd406d85de)">
     <use style="fill:#222222;fill-opacity:0.6;" x="328.638293" xlink:href="#C2_0_8d833ee84b" y="104.153946"/>
    </g>
    <g clip-path="url(#pfd406d85de)">
     <use style="fill:#222222;fill-opacity:0.6;" x="330.571366" xlink:href="#C2_0_8d833ee84b" y="121.151171"/>
    </g>
    <g clip-path="url(#pfd406d85de)">
     <use style="fill:#222222;fill-opacity:0.6;" x="330.428037" xlink:href="#C2_0_8d833ee84b" y="102.419729"/>
    </g>
    <g clip-path="url(#pfd406d85de)">
     <use style="fill:#222222;fill-opacity:0.6;" x="320.897841" xlink:href="#C2_0_8d833ee84b" y="125.584964"/>
    </g>
    <g clip-path="url(#pfd406d85de)">
     <use style="fill:#222222;fill-opacity:0.6;" x="331.162832" xlink:href="#C2_0_8d833ee84b" y="115.32397"/>
    </g>
   </g>
   <g id="PathCollection_6">
    <defs>
     <path d="M 0 2.5 
C 0.663008 2.5 1.29895 2.236584 1.767767 1.767767 
C 2.236584 1.29895 2.5 0.663008 2.5 0 
C 2.5 -0.663008 2.236584 -1.29895 1.767767 -1.767767 
C 1.29895 -2.236584 0.663008 -2.5 0 -2.5 
C -0.663008 -2.5 -1.29895 -2.236584 -1.767767 -1.767767 
C -2.236584 -1.29895 -2.5 -0.663008 -2.5 0 
C -2.5 0.663008 -2.236584 1.29895 -1.767767 1.767767 
C -1.29895 2.236584 -0.663008 2.5 0 2.5 
z
" id="C3_0_2880153b31"/>
    </defs>
    <g clip-path="url(#pfd406d85de)">
     <use style="fill:#1a1a1a;fill-opacity:0.6;" x="389.999323" xlink:href="#C3_0_2880153b31" y="163.76774"/>
    </g>
    <g clip-path="url(#pfd406d85de)">
     <use style="fill:#1a1a1a;fill-opacity:0.6;" x="388.776672" xlink:href="#C3_0_2880153b31" y="123.041289"/>
    </g>
    <g clip-path="url(#pfd406d85de)">
     <use style="fill:#1a1a1a;fill-opacity:0.6;" x="393.950207" xlink:href="#C3_0_2880153b31" y="127.045446"/>
    </g>
    <g clip-path="url(#pfd406d85de)">
     <use style="fill:#1a1a1a;fill-opacity:0.6;" x="388.969464" xlink:href="#C3_0_2880153b31" y="88.785107"/>
    </g>
    <g clip-path="url(#pfd406d85de)">
     <use style="fill:#1a1a1a;fill-opacity:0.6;" x="391.331487" xlink:href="#C3_0_2880153b31" y="87.221229"/>
    </g>
    <g clip-path="url(#pfd406d85de)">
     <use style="fill:#1a1a1a;fill-opacity:0.6;" x="390.545571" xlink:href="#C3_0_2880153b31" y="107.93527"/>
    </g>
    <g clip-path="url(#pfd406d85de)">
     <use style="fill:#1a1a1a;fill-opacity:0.6;" x="390.273848" xlink:href="#C3_0_2880153b31" y="103.508734"/>
    </g>
    <g clip-path="url(#pfd406d85de)">
     <use style="fill:#1a1a1a;fill-opacity:0.6;" x="395.928256" xlink:href="#C3_0_2880153b31" y="181.123603"/>
    </g>
    <g clip-path="url(#pfd406d85de)">
     <use style="fill:#1a1a1a;fill-opacity:0.6;" x="390.361748" xlink:href="#C3_0_2880153b31" y="132.012729"/>
    </g>
    <g clip-path="url(#pfd406d85de)">
     <use style="fill:#1a1a1a;fill-opacity:0.6;" x="395.767154" xlink:href="#C3_0_2880153b31" y="139.748453"/>
    </g>
    <g clip-path="url(#pfd406d85de)">
     <use style="fill:#1a1a1a;fill-opacity:0.6;" x="390.305443" xlink:href="#C3_0_2880153b31" y="75.323601"/>
    </g>
    <g clip-path="url(#pfd406d85de)">
     <use style="fill:#1a1a1a;fill-opacity:0.6;" x="393.409561" xlink:href="#C3_0_2880153b31" y="121.789409"/>
    </g>
   </g>
   <g id="PathCollection_7">
    <defs>
     <path d="M 0 2.5 
C 0.663008 2.5 1.29895 2.236584 1.767767 1.767767 
C 2.236584 1.29895 2.5 0.663008 2.5 0 
C 2.5 -0.663008 2.236584 -1.29895 1.767767 -1.767767 
C 1.29895 -2.236584 0.663008 -2.5 0 -2.5 
C -0.663008 -2.5 -1.29895 -2.236584 -1.767767 -1.767767 
C -2.236584 -1.29895 -2.5 -0.663008 -2.5 0 
C -2.5 0.663008 -2.236584 1.29895 -1.767767 1.767767 
C -1.29895 2.236584 -0.663008 2.5 0 2.5 
z
" id="C4_0_eb9519b7c1"/>
    </defs>
    <g clip-path="url(#pfd406d85de)">
     <use style="fill:#222222;fill-opacity:0.6;" x="496.929388" xlink:href="#C4_0_eb9519b7c1" y="99.883459"/>
    </g>
    <g clip-path="url(#pfd406d85de)">
     <use style="fill:#222222;fill-opacity:0.6;" x="497.274853" xlink:href="#C4_0_eb9519b7c1" y="79.772708"/>
    </g>
    <g clip-path="url(#pfd406d85de)">
     <use style="fill:#222222;fill-opacity:0.6;" x="497.055183" xlink:href="#C4_0_eb9519b7c1" y="109.24551"/>
    </g>
    <g clip-path="url(#pfd406d85de)">
     <use style="fill:#222222;fill-opacity:0.6;" x="498.284505" xlink:href="#C4_0_eb9519b7c1" y="119.57162"/>
    </g>
    <g clip-path="url(#pfd406d85de)">
     <use style="fill:#222222;fill-opacity:0.6;" x="492.303825" xlink:href="#C4_0_eb9519b7c1" y="100.905528"/>
    </g>
    <g clip-path="url(#pfd406d85de)">
     <use style="fill:#222222;fill-opacity:0.6;" x="490.710599" xlink:href="#C4_0_eb9519b7c1" y="104.915499"/>
    </g>
    <g clip-path="url(#pfd406d85de)">
     <use style="fill:#222222;fill-opacity:0.6;" x="488.023657" xlink:href="#C4_0_eb9519b7c1" y="102.11382"/>
    </g>
    <g clip-path="url(#pfd406d85de)">
     <use style="fill:#222222;fill-opacity:0.6;" x="496.932784" xlink:href="#C4_0_eb9519b7c1" y="101.548685"/>
    </g>
    <g clip-path="url(#pfd406d85de)">
     <use style="fill:#222222;fill-opacity:0.6;" x="488.045373" xlink:href="#C4_0_eb9519b7c1" y="120.550822"/>
    </g>
    <g clip-path="url(#pfd406d85de)">
     <use style="fill:#222222;fill-opacity:0.6;" x="491.037479" xlink:href="#C4_0_eb9519b7c1" y="91.941662"/>
    </g>
    <g clip-path="url(#pfd406d85de)">
     <use style="fill:#222222;fill-opacity:0.6;" x="490.397277" xlink:href="#C4_0_eb9519b7c1" y="135.895756"/>
    </g>
    <g clip-path="url(#pfd406d85de)">
     <use style="fill:#222222;fill-opacity:0.6;" x="492.318414" xlink:href="#C4_0_eb9519b7c1" y="114.696213"/>
    </g>
   </g>
   <g id="PathCollection_8">
    <defs>
     <path d="M 0 2.5 
C 0.663008 2.5 1.29895 2.236584 1.767767 1.767767 
C 2.236584 1.29895 2.5 0.663008 2.5 0 
C 2.5 -0.663008 2.236584 -1.29895 1.767767 -1.767767 
C 1.29895 -2.236584 0.663008 -2.5 0 -2.5 
C -0.663008 -2.5 -1.29895 -2.236584 -1.767767 -1.767767 
C -2.236584 -1.29895 -2.5 -0.663008 -2.5 0 
C -2.5 0.663008 -2.236584 1.29895 -1.767767 1.767767 
C -1.29895 2.236584 -0.663008 2.5 0 2.5 
z
" id="C5_0_f9b64f250b"/>
    </defs>
    <g clip-path="url(#pfd406d85de)">
     <use style="fill:#1a1a1a;fill-opacity:0.6;" x="561.461896" xlink:href="#C5_0_f9b64f250b" y="134.123068"/>
    </g>
    <g clip-path="url(#pfd406d85de)">
     <use style="fill:#1a1a1a;fill-opacity:0.6;" x="559.355552" xlink:href="#C5_0_f9b64f250b" y="122.060475"/>
    </g>
    <g clip-path="url(#pfd406d85de)">
     <use style="fill:#1a1a1a;fill-opacity:0.6;" x="556.038538" xlink:href="#C5_0_f9b64f250b" y="125.488895"/>
    </g>
    <g clip-path="url(#pfd406d85de)">
     <use style="fill:#1a1a1a;fill-opacity:0.6;" x="563.553526" xlink:href="#C5_0_f9b64f250b" y="110.200292"/>
    </g>
    <g clip-path="url(#pfd406d85de)">
     <use style="fill:#1a1a1a;fill-opacity:0.6;" x="560.864862" xlink:href="#C5_0_f9b64f250b" y="94.633002"/>
    </g>
    <g clip-path="url(#pfd406d85de)">
     <use style="fill:#1a1a1a;fill-opacity:0.6;" x="561.733293" xlink:href="#C5_0_f9b64f250b" y="100.854828"/>
    </g>
    <g clip-path="url(#pfd406d85de)">
     <use style="fill:#1a1a1a;fill-opacity:0.6;" x="554.968602" xlink:href="#C5_0_f9b64f250b" y="92.345946"/>
    </g>
    <g clip-path="url(#pfd406d85de)">
     <use style="fill:#1a1a1a;fill-opacity:0.6;" x="554.302133" xlink:href="#C5_0_f9b64f250b" y="175.239876"/>
    </g>
    <g clip-path="url(#pfd406d85de)">
     <use style="fill:#1a1a1a;fill-opacity:0.6;" x="558.386062" xlink:href="#C5_0_f9b64f250b" y="113.891911"/>
    </g>
    <g clip-path="url(#pfd406d85de)">
     <use style="fill:#1a1a1a;fill-opacity:0.6;" x="565.133787" xlink:href="#C5_0_f9b64f250b" y="131.11381"/>
    </g>
    <g clip-path="url(#pfd406d85de)">
     <use style="fill:#1a1a1a;fill-opacity:0.6;" x="561.903781" xlink:href="#C5_0_f9b64f250b" y="81.642148"/>
    </g>
    <g clip-path="url(#pfd406d85de)">
     <use style="fill:#1a1a1a;fill-opacity:0.6;" x="557.203748" xlink:href="#C5_0_f9b64f250b" y="119.350324"/>
    </g>
   </g>
   <g id="PathCollection_9">
    <defs>
     <path d="M 0 2.5 
C 0.663008 2.5 1.29895 2.236584 1.767767 1.767767 
C 2.236584 1.29895 2.5 0.663008 2.5 0 
C 2.5 -0.663008 2.236584 -1.29895 1.767767 -1.767767 
C 1.29895 -2.236584 0.663008 -2.5 0 -2.5 
C -0.663008 -2.5 -1.29895 -2.236584 -1.767767 -1.767767 
C -2.236584 -1.29895 -2.5 -0.663008 -2.5 0 
C -2.5 0.663008 -2.236584 1.29895 -1.767767 1.767767 
C -1.29895 2.236584 -0.663008 2.5 0 2.5 
z
" id="C6_0_cb739eaa22"/>
    </defs>
    <g clip-path="url(#pfd406d85de)">
     <use style="fill:#222222;fill-opacity:0.6;" x="655.149997" xlink:href="#C6_0_cb739eaa22" y="94.6371"/>
    </g>
    <g clip-path="url(#pfd406d85de)">
     <use style="fill:#222222;fill-opacity:0.6;" x="657.597531" xlink:href="#C6_0_cb739eaa22" y="81.743564"/>
    </g>
    <g clip-path="url(#pfd406d85de)">
     <use style="fill:#222222;fill-opacity:0.6;" x="660.780041" xlink:href="#C6_0_cb739eaa22" y="105.171959"/>
    </g>
    <g clip-path="url(#pfd406d85de)">
     <use style="fill:#222222;fill-opacity:0.6;" x="662.880846" xlink:href="#C6_0_cb739eaa22" y="107.386695"/>
    </g>
    <g clip-path="url(#pfd406d85de)">
     <use style="fill:#222222;fill-opacity:0.6;" x="658.615187" xlink:href="#C6_0_cb739eaa22" y="97.637058"/>
    </g>
    <g clip-path="url(#pfd406d85de)">
     <use style="fill:#222222;fill-opacity:0.6;" x="660.092809" xlink:href="#C6_0_cb739eaa22" y="109.708161"/>
    </g>
    <g clip-path="url(#pfd406d85de)">
     <use style="fill:#222222;fill-opacity:0.6;" x="657.432452" xlink:href="#C6_0_cb739eaa22" y="104.373947"/>
    </g>
    <g clip-path="url(#pfd406d85de)">
     <use style="fill:#222222;fill-opacity:0.6;" x="663.0192" xlink:href="#C6_0_cb739eaa22" y="96.945878"/>
    </g>
    <g clip-path="url(#pfd406d85de)">
     <use style="fill:#222222;fill-opacity:0.6;" x="659.348029" xlink:href="#C6_0_cb739eaa22" y="125.894565"/>
    </g>
    <g clip-path="url(#pfd406d85de)">
     <use style="fill:#222222;fill-opacity:0.6;" x="663.020544" xlink:href="#C6_0_cb739eaa22" y="92.382335"/>
    </g>
    <g clip-path="url(#pfd406d85de)">
     <use style="fill:#222222;fill-opacity:0.6;" x="665.219946" xlink:href="#C6_0_cb739eaa22" y="123.561743"/>
    </g>
    <g clip-path="url(#pfd406d85de)">
     <use style="fill:#222222;fill-opacity:0.6;" x="665.702285" xlink:href="#C6_0_cb739eaa22" y="114.5265"/>
    </g>
   </g>
   <g id="PathCollection_10">
    <defs>
     <path d="M 0 2.5 
C 0.663008 2.5 1.29895 2.236584 1.767767 1.767767 
C 2.236584 1.29895 2.5 0.663008 2.5 0 
C 2.5 -0.663008 2.236584 -1.29895 1.767767 -1.767767 
C 1.29895 -2.236584 0.663008 -2.5 0 -2.5 
C -0.663008 -2.5 -1.29895 -2.236584 -1.767767 -1.767767 
C -2.236584 -1.29895 -2.5 -0.663008 -2.5 0 
C -2.5 0.663008 -2.236584 1.29895 -1.767767 1.767767 
C -1.29895 2.236584 -0.663008 2.5 0 2.5 
z
" id="C7_0_7205abe6d5"/>
    </defs>
    <g clip-path="url(#pfd406d85de)">
     <use style="fill:#1a1a1a;fill-opacity:0.6;" x="732.548168" xlink:href="#C7_0_7205abe6d5" y="112.179767"/>
    </g>
    <g clip-path="url(#pfd406d85de)">
     <use style="fill:#1a1a1a;fill-opacity:0.6;" x="731.066508" xlink:href="#C7_0_7205abe6d5" y="86.326487"/>
    </g>
    <g clip-path="url(#pfd406d85de)">
     <use style="fill:#1a1a1a;fill-opacity:0.6;" x="727.977489" xlink:href="#C7_0_7205abe6d5" y="120.150084"/>
    </g>
    <g clip-path="url(#pfd406d85de)">
     <use style="fill:#1a1a1a;fill-opacity:0.6;" x="721.650272" xlink:href="#C7_0_7205abe6d5" y="112.616753"/>
    </g>
    <g clip-path="url(#pfd406d85de)">
     <use style="fill:#1a1a1a;fill-opacity:0.6;" x="727.702252" xlink:href="#C7_0_7205abe6d5" y="88.666128"/>
    </g>
    <g clip-path="url(#pfd406d85de)">
     <use style="fill:#1a1a1a;fill-opacity:0.6;" x="728.43509" xlink:href="#C7_0_7205abe6d5" y="102.687826"/>
    </g>
    <g clip-path="url(#pfd406d85de)">
     <use style="fill:#1a1a1a;fill-opacity:0.6;" x="723.630371" xlink:href="#C7_0_7205abe6d5" y="127.00487"/>
    </g>
    <g clip-path="url(#pfd406d85de)">
     <use style="fill:#1a1a1a;fill-opacity:0.6;" x="728.573126" xlink:href="#C7_0_7205abe6d5" y="235.363818"/>
    </g>
    <g clip-path="url(#pfd406d85de)">
     <use style="fill:#1a1a1a;fill-opacity:0.6;" x="723.758003" xlink:href="#C7_0_7205abe6d5" y="107.065054"/>
    </g>
    <g clip-path="url(#pfd406d85de)">
     <use style="fill:#1a1a1a;fill-opacity:0.6;" x="727.311554" xlink:href="#C7_0_7205abe6d5" y="82.715879"/>
    </g>
    <g clip-path="url(#pfd406d85de)">
     <use style="fill:#1a1a1a;fill-opacity:0.6;" x="732.533853" xlink:href="#C7_0_7205abe6d5" y="91.806211"/>
    </g>
    <g clip-path="url(#pfd406d85de)">
     <use style="fill:#1a1a1a;fill-opacity:0.6;" x="728.038102" xlink:href="#C7_0_7205abe6d5" y="111.815413"/>
    </g>
   </g>
   <g id="text_9">
    <!-- * -->
    <defs>
     <path d="M 11.96875 38.671875 
L 4.59375 44.390625 
Q 8.109375 48.34375 11.921875 51.953125 
Q 13.421875 53.421875 13.8125 53.8125 
Q 12.59375 54 6.84375 55.421875 
Q 2.6875 56.453125 1.375 56.9375 
L 4.25 65.53125 
Q 10.640625 62.9375 15.671875 59.8125 
Q 14.5 67.78125 14.5 72.796875 
L 23.1875 72.796875 
Q 23.1875 69.234375 21.875 59.71875 
Q 22.859375 60.109375 26.078125 61.625 
Q 30.46875 63.625 34.1875 65.046875 
L 36.765625 56.203125 
Q 31.34375 54.984375 24.21875 53.8125 
L 30.078125 47.21875 
Q 31.84375 45.21875 32.859375 43.953125 
L 25.390625 39.015625 
L 18.796875 49.90625 
Q 15.828125 44.625 11.96875 38.671875 
z
" id="Arial-BoldMT-42"/>
    </defs>
    <g style="fill:#1a1a1a;" transform="translate(182.942578 56.997731)scale(0.45 -0.45)">
     <use xlink:href="#Arial-BoldMT-42"/>
    </g>
   </g>
  </g>
 </g>
 <defs>
  <clipPath id="pfd406d85de">
   <rect height="217.44" width="669.6" x="108" y="34.56"/>
  </clipPath>
 </defs>
</svg>
